<?xml version="1.0" encoding="UTF-8"?> <svg xmlns="http://www.w3.org/2000/svg" xmlns:xlink="http://www.w3.org/1999/xlink" width="890px" height="890px" viewBox="0 0 890 890"> <!-- Generator: Sketch 49 (51002) - http://www.bohemiancoding.com/sketch --> <title>Rectangle</title> <desc>Created with Sketch.</desc> <defs></defs> <g id="Page-1" stroke="none" stroke-width="1" fill="none" fill-rule="evenodd"> <rect id="Rectangle" fill="#F5F5F5" x="0" y="0" width="890" height="890"></rect> <g id="150575235130c30ba47894b08912069741f4920d30" transform="translate(197.000000, 139.000000)" fill="#5FAAD5" fill-rule="nonzero"> <g id="Group" transform="translate(0.000000, 325.000000)"> <path d="M248.003,287.5 C178.492,287.5 111.056,267.519 52.982,229.718 L63.931,212.898 C118.739,248.571 182.383,267.43 248.002,267.43 C313.605,267.43 377.253,248.571 432.061,212.898 L443.009,229.718 C384.938,267.519 317.501,287.5 248.003,287.5 Z" id="Shape"></path> <path d="M20.599,186.141 L0.988,181.881 C18.24,102.502 73.219,35.852 148.061,3.596 L154.315,0.9 L248.006,94.585 L341.694,0.9 L347.94,3.596 C422.788,35.851 477.769,102.498 495.012,181.881 L475.407,186.141 C460.01,115.281 411.925,55.436 346.18,24.799 L248.006,122.967 L149.826,24.799 C84.078,55.436 35.997,115.28 20.599,186.141 Z" id="Shape"></path> <rect id="Rectangle-path" x="237.969" y="108.777" width="20.067" height="29.162"></rect> <rect id="Rectangle-path" x="333.928" y="104.319" width="20.07" height="29.162"></rect> <rect id="Rectangle-path" x="237.969" y="172.487" width="20.067" height="104.979"></rect> <path d="M400.826,201.492 L287.101,201.492 L287.101,123.447 L400.826,123.447 L400.826,201.492 Z M307.171,181.422 L380.758,181.422 L380.758,143.515 L307.171,143.515 L307.171,181.422 Z" id="Shape"></path> </g> <g id="Group" transform="translate(125.000000, 0.000000)"> <path d="M123.003,317.684 C55.181,317.684 0.009,262.497 0.009,194.666 L0.009,138.187 L20.08,138.187 L20.08,194.669 C20.08,251.435 66.255,297.62 123.003,297.62 C179.75,297.62 225.916,251.435 225.916,194.669 L225.916,138.187 L245.984,138.187 L245.984,194.669 C245.981,262.5 190.813,317.684 123.003,317.684 Z" id="Shape"></path> <path d="M245.981,148.222 L0.009,148.222 L0.009,28.979 L5.823,26.283 C42.708,9.175 82.134,0.5 123.003,0.5 C163.862,0.5 203.285,9.175 240.173,26.284 L245.981,28.98 L245.981,148.222 Z M20.08,128.151 L225.916,128.151 L225.916,41.877 C193.37,27.731 158.783,20.567 123.003,20.567 C87.207,20.567 52.616,27.731 20.08,41.877 L20.08,128.151 Z" id="Shape"></path> <g transform="translate(89.000000, 48.000000)" id="Rectangle-path"> <rect x="23.951" y="0.251" width="20.066" height="66.922"></rect> <rect x="0.554" y="23.682" width="66.895" height="20.071"></rect> </g> </g> </g> </g> </svg>
