<svg width="3625" height="3593" viewBox="0 0 3625 3593" fill="none" xmlns="http://www.w3.org/2000/svg">
<path d="M3065.63 2788.61C3065.63 2788.61 2783.99 2779.98 2532.43 2951.31C2280.86 3122.64 2384.79 3252.29 2384.79 3252.29C2384.79 3252.29 2467.37 3396.49 2718.93 3225.16C2970.5 3053.84 3065.63 2788.61 3065.63 2788.61Z" fill="#4D6BCE"/>
<path d="M2381.88 3254.28C2381.53 3253.77 2381.4 3253.15 2381.52 3252.55C2381.63 3251.95 2381.98 3251.42 2382.48 3251.08L3002.83 2828.6C3003.08 2828.43 3003.36 2828.31 3003.66 2828.25C3003.95 2828.18 3004.26 2828.18 3004.56 2828.24C3004.85 2828.29 3005.13 2828.41 3005.39 2828.57C3005.64 2828.74 3005.86 2828.95 3006.03 2829.2C3006.2 2829.45 3006.32 2829.73 3006.38 2830.03C3006.44 2830.33 3006.44 2830.63 3006.39 2830.93C3006.33 2831.23 3006.22 2831.51 3006.05 2831.76C3005.88 2832.01 3005.67 2832.23 3005.42 2832.4L2385.07 3254.88C2384.82 3255.05 2384.54 3255.17 2384.24 3255.23C2383.95 3255.3 2383.64 3255.3 2383.35 3255.24C2383.05 3255.19 2382.77 3255.07 2382.52 3254.91C2382.26 3254.74 2382.05 3254.53 2381.88 3254.28Z" fill="white"/>
<path d="M2853.77 2933.94C2854.46 2934.41 2908.06 2969.67 2966.21 2973.81C2967.2 2972.35 2968.2 2970.88 2969.18 2969.42C2911.39 2966.33 2857.01 2930.57 2856.32 2930.12L2853.77 2933.94Z" fill="white"/>
<path d="M2969.73 2854.96C2986.41 2865.42 3004.11 2874.15 3022.55 2881.02C3023.29 2879.66 3024.01 2878.31 3024.72 2876.97C3006.41 2870.17 2988.84 2861.52 2972.29 2851.14L2969.73 2854.96Z" fill="white"/>
<path d="M2792.76 2975.49C2793.59 2976.04 2863.28 3021.92 2933.25 3019.6C2934.47 3018 2935.67 3016.4 2936.87 3014.8C2867.28 3018.98 2796.14 2972.22 2795.32 2971.66L2792.76 2975.49Z" fill="white"/>
<path d="M2529.69 3154.65C2530.87 3155.44 2632.03 3222.04 2731.73 3216.25C2734.15 3214.54 2736.53 3212.82 2738.92 3211.09C2638.56 3220.79 2533.44 3151.62 2532.24 3150.83L2529.69 3154.65Z" fill="white"/>
<path d="M2434.99 3217.06L2432.43 3220.89C2433.54 3221.63 2522.77 3280.36 2616.18 3282.76C2619.57 3281.32 2623 3279.8 2626.47 3278.21C2530.97 3280.23 2436.12 3217.82 2434.99 3217.06Z" fill="white"/>
<path d="M2689.57 3044.86C2690.61 3045.56 2774.57 3100.82 2862.33 3102.88C2863.76 3101.37 2865.16 3099.87 2866.58 3098.36C2778.83 3098.09 2693.17 3041.73 2692.13 3041.04L2689.57 3044.86Z" fill="white"/>
<path d="M2898.77 2804.72C2890.35 2853.19 2900.14 2899.87 2900.29 2900.57L2904.79 2899.59C2904.64 2898.9 2894.79 2851.87 2903.56 2803.84C2901.98 2804.12 2900.37 2804.42 2898.77 2804.72Z" fill="white"/>
<path d="M2825.6 2951.44L2830.09 2950.46C2829.9 2949.57 2815.09 2878.86 2835.66 2818.32C2833.9 2818.75 2832.15 2819.19 2830.38 2819.64C2810.77 2880.88 2825.4 2950.54 2825.6 2951.44Z" fill="white"/>
<path d="M2592.97 3109.86L2597.47 3108.89C2597.18 3107.53 2572.81 2991.59 2613.18 2902.63C2611 2903.79 2608.83 2904.95 2606.65 2906.14C2569 2995.8 2592.68 3108.51 2592.97 3109.86Z" fill="white"/>
<path d="M2466.61 3198.01C2466.31 3196.63 2441.02 3076.18 2484.73 2986.64C2481.96 2988.87 2479.26 2991.1 2476.61 2993.32C2437.78 3083.28 2461.82 3197.63 2462.11 3198.99L2466.61 3198.01Z" fill="white"/>
<path d="M2734.91 2848.81C2733.11 2849.46 2731.3 2850.13 2729.5 2850.79C2704.88 2930.63 2723.74 3020.37 2724 3021.53L2728.49 3020.56C2728.24 3019.39 2709.08 2928.15 2734.91 2848.81Z" fill="white"/>
<g filter="url(#filter0_d_1_5156)">
<path d="M2310.33 2736.87C2073.85 3122.6 2293.84 3234.95 2293.84 3234.95C2293.84 3234.95 2493.75 3380.04 2730.23 2994.3C2966.72 2608.57 2933.86 2191 2933.86 2191C2933.86 2191 2546.81 2351.14 2310.33 2736.87Z" fill="#FABF44"/>
<path d="M2293.84 3234.95L2294.13 3234.54L2294.1 3234.52L2294.06 3234.5L2293.84 3234.95ZM2293.84 3234.95C2294.06 3234.5 2294.06 3234.5 2294.06 3234.5L2294.06 3234.5L2294.03 3234.48L2293.98 3234.46L2293.91 3234.42C2293.81 3234.37 2293.66 3234.29 2293.45 3234.18C2293.05 3233.95 2292.45 3233.62 2291.68 3233.16C2290.13 3232.25 2287.9 3230.86 2285.13 3228.96C2279.6 3225.14 2271.95 3219.27 2263.51 3211.01C2246.63 3194.5 2226.57 3168.46 2213.88 3130.4C2188.5 3054.29 2192.56 2929.92 2310.76 2737.13C2428.95 2544.34 2584.78 2407.92 2711.06 2319.7C2774.2 2275.58 2829.96 2243.52 2869.92 2222.49C2889.9 2211.98 2905.94 2204.22 2916.98 2199.09C2922.5 2196.52 2926.77 2194.62 2929.65 2193.35C2931.1 2192.72 2932.2 2192.25 2932.94 2191.93C2933.12 2191.85 2933.27 2191.79 2933.41 2191.73C2933.42 2191.88 2933.43 2192.05 2933.45 2192.24C2933.5 2193.04 2933.58 2194.24 2933.67 2195.81C2933.85 2198.96 2934.09 2203.63 2934.31 2209.71C2934.75 2221.88 2935.1 2239.69 2934.8 2262.27C2934.18 2307.42 2930.9 2371.65 2920.23 2447.93C2898.89 2600.5 2848 2801.25 2729.81 2994.04C2611.61 3186.84 2502.62 3246.87 2423.28 3258.78C2383.6 3264.74 2351.3 3258.67 2328.93 3251.12C2317.74 3247.34 2309.03 3243.19 2303.13 3239.99C2300.17 3238.39 2297.92 3237.02 2296.41 3236.06C2295.65 3235.58 2295.08 3235.2 2294.7 3234.94C2294.51 3234.81 2294.37 3234.71 2294.27 3234.64C2294.22 3234.61 2294.19 3234.58 2294.16 3234.57L2294.14 3234.55L2294.13 3234.54C2294.13 3234.54 2294.13 3234.54 2293.84 3234.95Z" stroke="black"/>
</g>
<g filter="url(#filter1_d_1_5156)">
<path d="M2310.33 2736.87C2073.85 3122.6 2293.84 3234.95 2293.84 3234.95C2293.84 3234.95 2493.75 3380.04 2730.23 2994.3C2966.72 2608.57 2933.86 2191 2933.86 2191C2933.86 2191 2546.81 2351.14 2310.33 2736.87Z" fill="#FABF44"/>
<path d="M2293.84 3234.95L2294.13 3234.54L2294.1 3234.52L2294.06 3234.5L2293.84 3234.95ZM2293.84 3234.95C2294.06 3234.5 2294.06 3234.5 2294.06 3234.5L2294.06 3234.5L2294.03 3234.48L2293.98 3234.46L2293.91 3234.42C2293.81 3234.37 2293.66 3234.29 2293.45 3234.18C2293.05 3233.95 2292.45 3233.62 2291.68 3233.16C2290.13 3232.25 2287.9 3230.86 2285.13 3228.96C2279.6 3225.14 2271.95 3219.27 2263.51 3211.01C2246.63 3194.5 2226.57 3168.46 2213.88 3130.4C2188.5 3054.29 2192.56 2929.92 2310.76 2737.13C2428.95 2544.34 2584.78 2407.92 2711.06 2319.7C2774.2 2275.58 2829.96 2243.52 2869.92 2222.49C2889.9 2211.98 2905.94 2204.22 2916.98 2199.09C2922.5 2196.52 2926.77 2194.62 2929.65 2193.35C2931.1 2192.72 2932.2 2192.25 2932.94 2191.93C2933.12 2191.85 2933.27 2191.79 2933.41 2191.73C2933.42 2191.88 2933.43 2192.05 2933.45 2192.24C2933.5 2193.04 2933.58 2194.24 2933.67 2195.81C2933.85 2198.96 2934.09 2203.63 2934.31 2209.71C2934.75 2221.88 2935.1 2239.69 2934.8 2262.27C2934.18 2307.42 2930.9 2371.65 2920.23 2447.93C2898.89 2600.5 2848 2801.25 2729.81 2994.04C2611.61 3186.84 2502.62 3246.87 2423.28 3258.78C2383.6 3264.74 2351.3 3258.67 2328.93 3251.12C2317.74 3247.34 2309.03 3243.19 2303.13 3239.99C2300.17 3238.39 2297.92 3237.02 2296.41 3236.06C2295.65 3235.58 2295.08 3235.2 2294.7 3234.94C2294.51 3234.81 2294.37 3234.71 2294.27 3234.64C2294.22 3234.61 2294.19 3234.58 2294.16 3234.57L2294.14 3234.55L2294.13 3234.54C2294.13 3234.54 2294.13 3234.54 2293.84 3234.95Z" stroke="black"/>
</g>
<g filter="url(#filter2_d_1_5156)">
<path d="M2310.33 2736.87C2073.85 3122.6 2293.84 3234.95 2293.84 3234.95C2293.84 3234.95 2493.75 3380.04 2730.23 2994.3C2966.72 2608.57 2933.86 2191 2933.86 2191C2933.86 2191 2546.81 2351.14 2310.33 2736.87Z" fill="#FABF44"/>
<path d="M2293.84 3234.95L2294.13 3234.54L2294.1 3234.52L2294.06 3234.5L2293.84 3234.95ZM2293.84 3234.95C2294.06 3234.5 2294.06 3234.5 2294.06 3234.5L2294.06 3234.5L2294.03 3234.48L2293.98 3234.46L2293.91 3234.42C2293.81 3234.37 2293.66 3234.29 2293.45 3234.18C2293.05 3233.95 2292.45 3233.62 2291.68 3233.16C2290.13 3232.25 2287.9 3230.86 2285.13 3228.96C2279.6 3225.14 2271.95 3219.27 2263.51 3211.01C2246.63 3194.5 2226.57 3168.46 2213.88 3130.4C2188.5 3054.29 2192.56 2929.92 2310.76 2737.13C2428.95 2544.34 2584.78 2407.92 2711.06 2319.7C2774.2 2275.58 2829.96 2243.52 2869.92 2222.49C2889.9 2211.98 2905.94 2204.22 2916.98 2199.09C2922.5 2196.52 2926.77 2194.62 2929.65 2193.35C2931.1 2192.72 2932.2 2192.25 2932.94 2191.93C2933.12 2191.85 2933.27 2191.79 2933.41 2191.73C2933.42 2191.88 2933.43 2192.05 2933.45 2192.24C2933.5 2193.04 2933.58 2194.24 2933.67 2195.81C2933.85 2198.96 2934.09 2203.63 2934.31 2209.71C2934.75 2221.88 2935.1 2239.69 2934.8 2262.27C2934.18 2307.42 2930.9 2371.65 2920.23 2447.93C2898.89 2600.5 2848 2801.25 2729.81 2994.04C2611.61 3186.84 2502.62 3246.87 2423.28 3258.78C2383.6 3264.74 2351.3 3258.67 2328.93 3251.12C2317.74 3247.34 2309.03 3243.19 2303.13 3239.99C2300.17 3238.39 2297.92 3237.02 2296.41 3236.06C2295.65 3235.58 2295.08 3235.2 2294.7 3234.94C2294.51 3234.81 2294.37 3234.71 2294.27 3234.64C2294.22 3234.61 2294.19 3234.58 2294.16 3234.57L2294.14 3234.55L2294.13 3234.54C2294.13 3234.54 2294.13 3234.54 2293.84 3234.95Z" stroke="black"/>
</g>
<g filter="url(#filter3_d_1_5156)">
<path d="M2310.33 2736.87C2073.85 3122.6 2293.84 3234.95 2293.84 3234.95C2293.84 3234.95 2493.75 3380.04 2730.23 2994.3C2966.72 2608.57 2933.86 2191 2933.86 2191C2933.86 2191 2546.81 2351.14 2310.33 2736.87Z" fill="#FABF44"/>
<path d="M2293.84 3234.95L2294.13 3234.54L2294.1 3234.52L2294.06 3234.5L2293.84 3234.95ZM2293.84 3234.95C2294.06 3234.5 2294.06 3234.5 2294.06 3234.5L2294.06 3234.5L2294.03 3234.48L2293.98 3234.46L2293.91 3234.42C2293.81 3234.37 2293.66 3234.29 2293.45 3234.18C2293.05 3233.95 2292.45 3233.62 2291.68 3233.16C2290.13 3232.25 2287.9 3230.86 2285.13 3228.96C2279.6 3225.14 2271.95 3219.27 2263.51 3211.01C2246.63 3194.5 2226.57 3168.46 2213.88 3130.4C2188.5 3054.29 2192.56 2929.92 2310.76 2737.13C2428.95 2544.34 2584.78 2407.92 2711.06 2319.7C2774.2 2275.58 2829.96 2243.52 2869.92 2222.49C2889.9 2211.98 2905.94 2204.22 2916.98 2199.09C2922.5 2196.52 2926.77 2194.62 2929.65 2193.35C2931.1 2192.72 2932.2 2192.25 2932.94 2191.93C2933.12 2191.85 2933.27 2191.79 2933.41 2191.73C2933.42 2191.88 2933.43 2192.05 2933.45 2192.24C2933.5 2193.04 2933.58 2194.24 2933.67 2195.81C2933.85 2198.96 2934.09 2203.63 2934.31 2209.71C2934.75 2221.88 2935.1 2239.69 2934.8 2262.27C2934.18 2307.42 2930.9 2371.65 2920.23 2447.93C2898.89 2600.5 2848 2801.25 2729.81 2994.04C2611.61 3186.84 2502.62 3246.87 2423.28 3258.78C2383.6 3264.74 2351.3 3258.67 2328.93 3251.12C2317.74 3247.34 2309.03 3243.19 2303.13 3239.99C2300.17 3238.39 2297.92 3237.02 2296.41 3236.06C2295.65 3235.58 2295.08 3235.2 2294.7 3234.94C2294.51 3234.81 2294.37 3234.71 2294.27 3234.64C2294.22 3234.61 2294.19 3234.58 2294.16 3234.57L2294.14 3234.55L2294.13 3234.54C2294.13 3234.54 2294.13 3234.54 2293.84 3234.95Z" stroke="black"/>
</g>
<path d="M2291.09 3239.42C2291.48 3239.66 2291.9 3239.81 2292.35 3239.88C2292.79 3239.95 2293.24 3239.94 2293.68 3239.83C2294.12 3239.73 2294.53 3239.54 2294.89 3239.27C2295.25 3239.01 2295.56 3238.67 2295.8 3238.29L2878.96 2287.09C2879.19 2286.71 2879.35 2286.29 2879.42 2285.84C2879.49 2285.4 2879.48 2284.94 2879.37 2284.51C2879.27 2284.07 2879.08 2283.66 2878.81 2283.29C2878.55 2282.93 2878.22 2282.62 2877.83 2282.39C2877.45 2282.15 2877.02 2282 2876.58 2281.93C2876.14 2281.86 2875.68 2281.87 2875.25 2281.98C2874.81 2282.08 2874.4 2282.27 2874.03 2282.54C2873.67 2282.8 2873.36 2283.14 2873.13 2283.52L2289.96 3234.72C2289.49 3235.49 2289.34 3236.42 2289.56 3237.3C2289.77 3238.18 2290.32 3238.95 2291.09 3239.42Z" fill="white"/>
<path d="M2733.15 2515.93C2732.41 2514.94 2676.24 2437.85 2665.95 2351.81C2668.05 2350.23 2670.16 2348.65 2672.25 2347.09C2680.95 2432.67 2737.92 2510.87 2738.65 2511.86L2733.15 2515.93Z" fill="white"/>
<path d="M2842.16 2338.12C2841.7 2337.49 2818.94 2306.24 2799.71 2261.54C2801.69 2260.35 2803.64 2259.19 2805.58 2258.04C2824.54 2302.3 2847.2 2333.43 2847.66 2334.05L2842.16 2338.12Z" fill="white"/>
<path d="M2675.8 2609.47C2674.92 2608.29 2601.83 2508.06 2600.3 2404.02C2602.59 2402.09 2604.88 2400.19 2607.17 2398.29C2605.92 2501.92 2680.42 2604.22 2681.3 2605.41L2675.8 2609.47Z" fill="white"/>
<path d="M2428.5 3012.85C2427.25 3011.15 2321.15 2865.68 2322.64 2717.23C2325.01 2713.52 2327.41 2709.85 2329.8 2706.19C2322.54 2855.9 2432.73 3007.06 2434 3008.78L2428.5 3012.85Z" fill="white"/>
<path d="M2342.57 3157.91L2337.07 3161.98C2335.9 3160.39 2242.33 3032.07 2232.11 2893.54C2234.02 2888.41 2236.03 2883.21 2238.14 2877.94C2241.94 3019.88 2341.36 3156.28 2342.57 3157.91Z" fill="white"/>
<path d="M2580.14 2767.63C2579.03 2766.14 2490.99 2645.4 2481.7 2515.24C2483.83 2513.01 2485.97 2510.82 2488.1 2508.61C2494.75 2638.89 2584.53 2762.07 2585.64 2763.56L2580.14 2767.63Z" fill="white"/>
<path d="M2921.83 2439.91C2850.45 2455.86 2780.44 2444.65 2779.39 2444.48L2780.52 2437.73C2781.56 2437.9 2852.1 2449.18 2922.78 2432.74C2922.48 2435.11 2922.15 2437.52 2921.83 2439.91Z" fill="white"/>
<path d="M2709.18 2559L2710.3 2552.26C2711.65 2552.48 2817.68 2569.44 2906.13 2534.59C2905.61 2537.23 2905.08 2539.87 2904.54 2542.52C2814.99 2576 2710.52 2559.23 2709.18 2559Z" fill="white"/>
<path d="M2490.5 2915.69L2491.63 2908.95C2493.67 2909.29 2667.55 2937.21 2796.77 2870.94C2795.21 2874.25 2793.63 2877.56 2792.03 2880.87C2661.58 2943.17 2492.52 2916.03 2490.5 2915.69Z" fill="white"/>
<path d="M2368.61 3109.6C2370.69 3109.95 2551.32 3138.93 2681.17 3067.65C2678.05 3071.91 2674.94 3076.09 2671.83 3080.18C2541.02 3144.24 2369.52 3116.69 2367.48 3116.35L2368.61 3109.6Z" fill="white"/>
<path d="M2868.02 2686.35C2867.18 2689.07 2866.32 2691.8 2865.46 2694.53C2748.66 2736.76 2614.07 2715.15 2612.32 2714.86L2613.45 2708.11C2615.21 2708.4 2752.05 2730.36 2868.02 2686.35Z" fill="white"/>
<path d="M1947.87 2314.53C1947.87 2314.53 1856.25 2626.59 1974.38 2957.44C2092.51 3288.3 2267.58 3209.96 2267.58 3209.96C2267.58 3209.96 2452.67 3159.71 2334.54 2828.85C2316.05 2777.27 2293.4 2727.27 2266.82 2679.36C2136.21 2443.24 1947.87 2314.53 1947.87 2314.53Z" fill="url(#paint0_linear_1_5156)"/>
<path d="M2268.95 3213.8C2269.61 3213.56 2270.15 3213.07 2270.45 3212.43C2270.76 3211.8 2270.79 3211.07 2270.56 3210.4L1979.25 2394.53C1979.14 2394.2 1978.96 2393.9 1978.72 2393.64C1978.49 2393.38 1978.2 2393.17 1977.89 2393.02C1977.57 2392.87 1977.23 2392.79 1976.88 2392.77C1976.54 2392.75 1976.19 2392.8 1975.86 2392.92C1975.53 2393.04 1975.23 2393.22 1974.97 2393.45C1974.71 2393.69 1974.5 2393.97 1974.35 2394.29C1974.2 2394.6 1974.12 2394.94 1974.1 2395.29C1974.08 2395.64 1974.13 2395.99 1974.25 2396.32L2265.55 3212.19C2265.67 3212.52 2265.85 3212.82 2266.08 3213.08C2266.32 3213.34 2266.6 3213.55 2266.92 3213.7C2267.23 3213.84 2267.57 3213.93 2267.92 3213.95C2268.27 3213.96 2268.62 3213.91 2268.95 3213.8Z" fill="white"/>
<path d="M2046.65 2594.14C2045.69 2594.1 1971.71 2590.55 1914.67 2554.87C1914.74 2552.83 1914.81 2550.79 1914.88 2548.76C1970.88 2585.17 2045.91 2588.8 2046.87 2588.84L2046.65 2594.14Z" fill="white"/>
<path d="M1992.19 2441.63C1969.53 2440.04 1947.09 2436.15 1925.21 2430.02C1925.46 2428.24 1925.7 2426.5 1925.95 2424.76C1947.65 2430.88 1969.92 2434.75 1992.41 2436.32L1992.19 2441.63Z" fill="white"/>
<path d="M2075.3 2674.38C2074.15 2674.33 1977.95 2669.73 1914.28 2619.99C1914.23 2617.67 1914.19 2615.36 1914.16 2613.05C1976.22 2664.27 2074.37 2669.03 2075.52 2669.07L2075.3 2674.38Z" fill="white"/>
<path d="M2198.83 3020.37C2197.19 3020.3 2057.55 3013.62 1968.5 2940.44C1967.41 2937.2 1966.36 2933.97 1965.31 2930.73C2052.31 3008.02 2197.39 3014.99 2199.05 3015.06L2198.83 3020.37Z" fill="white"/>
<path d="M2244.72 3142.98L2244.5 3148.28C2242.96 3148.22 2119.8 3142.32 2031.04 3081.04C2028.87 3077.39 2026.7 3073.64 2024.54 3069.8C2112.24 3136.62 2243.15 3142.91 2244.72 3142.98Z" fill="white"/>
<path d="M2124.37 2809.25C2122.92 2809.19 2007.04 2803.64 1923.79 2745.89C1923.48 2743.51 1923.19 2741.15 1922.9 2738.78C2004.92 2798.2 2123.14 2803.88 2124.59 2803.94L2124.37 2809.25Z" fill="white"/>
<path d="M2092.55 2443.02C2067.44 2493.95 2026.57 2530.84 2025.95 2531.38L2022.42 2527.42C2023.03 2526.87 2064.2 2489.7 2088.68 2438.95C2089.96 2440.28 2091.25 2441.66 2092.55 2443.02Z" fill="white"/>
<path d="M2061.03 2629.62L2057.49 2625.65C2058.28 2624.95 2120.18 2569.08 2142.17 2498.62C2143.5 2500.22 2144.84 2501.82 2146.19 2503.44C2122.83 2573.9 2061.82 2628.92 2061.03 2629.62Z" fill="white"/>
<path d="M2170.26 2935.56L2166.73 2931.59C2167.93 2930.52 2269.49 2838.96 2292.33 2728.54C2293.57 2731.1 2294.81 2733.66 2296.03 2736.24C2270.19 2845.47 2171.45 2934.5 2170.26 2935.56Z" fill="white"/>
<path d="M2215.39 2595.57C2216.63 2597.4 2217.86 2599.24 2219.09 2601.09C2187.75 2692.3 2109.15 2763.17 2108.12 2764.09L2104.59 2760.12C2105.62 2759.2 2185.53 2687.13 2215.39 2595.57Z" fill="white"/>
<path d="M2903.62 2586.69H541.493C490.175 2586.69 440.959 2566.31 404.671 2530.02C368.384 2493.74 347.998 2444.53 347.998 2393.21V435.399C347.998 384.084 368.384 334.871 404.671 298.586C440.959 262.301 490.175 241.917 541.493 241.917H2903.64C2954.96 241.92 3004.18 262.304 3040.48 298.586C3076.78 334.868 3097.18 384.079 3097.2 435.399V2393.14C3097.2 2444.48 3076.8 2493.71 3040.5 2530.01C3004.2 2566.3 2954.96 2586.69 2903.62 2586.69Z" fill="#CEDBEE"/>
<path d="M2977.1 536.524V2304.09C2977.1 2352.22 2957.98 2398.38 2923.94 2432.41C2889.91 2466.44 2843.75 2485.57 2795.62 2485.57H649.58C601.445 2485.57 555.282 2466.45 521.245 2432.41C487.208 2398.38 468.087 2352.22 468.087 2304.09V536.524C468.078 512.695 472.764 489.097 481.878 467.079C490.991 445.061 504.353 425.055 521.201 408.202C538.049 391.349 558.052 377.98 580.068 368.859C602.084 359.738 625.682 355.043 649.512 355.043H2795.62C2843.75 355.047 2889.91 374.168 2923.94 408.202C2957.98 442.236 2977.1 488.395 2977.1 536.524Z" fill="white"/>
<path d="M2977.1 629.463V609.75H2754.82V355.043H2735.11V609.75H2339.65V355.043H2319.92V609.75H1939.06V355.043H1919.4V609.75H1523.87V355.043H1504.17V609.75H1111.36V355.043H1091.64V609.75H696.181V355.043H676.466V609.75H468.087V629.463H676.466V1002.14H468.087V1021.85H676.466V1417.29H468.087V1437H676.466V1790.63H468.087V1810.34H676.466V2205.78H468.087V2225.49H676.466V2485.56H696.181V2225.49H1091.64V2485.56H1111.36V2225.49H1504.15V2485.56H1523.85V2225.49H1919.31V2485.56H1939.03V2225.49H2319.92V2485.56H2339.63V2225.49H2735.09V2485.56H2754.81V2225.49H2977.08V2205.78H2754.79V1810.34H2977.07V1790.63H2754.79V1437.02H2977.07V1417.3H2754.79V1021.85H2977.07V1002.14H2754.79V629.463H2977.1ZM1091.64 2205.74H696.181V1810.36H1091.64V2205.74ZM1091.64 1790.57H696.181V1437.02H1091.64V1790.57ZM1091.64 1417.23H696.181V1021.85H1091.64V1417.23ZM1091.64 1002.09H696.181V629.463H1091.64V1002.09ZM1504.17 2205.74H1111.36V1810.36H1504.15V2205.79L1504.17 2205.74ZM1504.17 1790.57H1111.36V1437.02H1504.15V1790.63L1504.17 1790.57ZM1504.17 1417.23H1111.36V1021.85H1504.15V1417.29L1504.17 1417.23ZM1504.17 1002.09H1111.36V629.463H1504.15V1002.14L1504.17 1002.09ZM1919.4 2205.79H1523.87V1810.36H1919.4V2205.79ZM1919.4 1790.63H1523.87V1437.02H1919.4V1790.63ZM1919.4 1417.29H1523.87V1021.85H1919.4V1417.29ZM1919.4 1002.14H1523.87V629.463H1919.4V1002.14ZM2319.92 2205.79H1939.07V1810.36H2319.92V2205.79ZM2319.92 1790.63H1939.07V1437.02H2319.92V1790.63ZM2319.92 1417.29H1939.07V1021.85H2319.92V1417.29ZM2319.92 1002.14H1939.07V629.463H2319.92V1002.14ZM2735.09 2205.79H2339.66V1810.36H2735.12L2735.09 2205.79ZM2735.09 1790.63H2339.66V1437.02H2735.12L2735.09 1790.63ZM2735.09 1417.29H2339.66V1021.85H2735.12L2735.09 1417.29ZM2735.09 1002.14H2339.66V629.463H2735.12L2735.09 1002.14Z" fill="#CEDBEE"/>
<path d="M1040.12 1100.41H818.205C812.553 1100.41 807.132 1098.17 803.136 1094.17C799.139 1090.17 796.894 1084.75 796.894 1079.1C796.894 1073.45 799.139 1068.03 803.136 1064.03C807.132 1060.04 812.553 1057.79 818.205 1057.79H1040.12C1045.77 1057.79 1051.19 1060.04 1055.19 1064.03C1059.18 1068.03 1061.43 1073.45 1061.43 1079.1C1061.43 1084.75 1059.18 1090.17 1055.19 1094.17C1051.19 1098.17 1045.77 1100.41 1040.12 1100.41ZM1278.94 1100.74H1175.26C1169.61 1100.74 1164.19 1098.49 1160.2 1094.49C1156.2 1090.5 1153.95 1085.08 1153.95 1079.42C1153.95 1073.77 1156.2 1068.35 1160.2 1064.36C1164.19 1060.36 1169.61 1058.11 1175.26 1058.11H1278.94C1284.59 1058.11 1290.01 1060.36 1294.01 1064.36C1298.01 1068.35 1300.25 1073.77 1300.25 1079.42C1300.25 1085.08 1298.01 1090.5 1294.01 1094.49C1290.01 1098.49 1284.59 1100.74 1278.94 1100.74Z" fill="#AEC6D3"/>
<path d="M2523.3 2314.18H2410.09C2404.71 2314.18 2399.54 2312.04 2395.74 2308.24C2391.93 2304.43 2389.79 2299.27 2389.79 2293.89C2389.81 2288.5 2391.97 2283.34 2395.78 2279.53C2399.6 2275.73 2404.77 2273.59 2410.16 2273.59H2523.37C2528.75 2273.59 2533.92 2275.73 2537.72 2279.53C2541.53 2283.34 2543.67 2288.5 2543.67 2293.89C2543.65 2299.27 2541.49 2304.43 2537.68 2308.24C2533.86 2312.04 2528.69 2314.18 2523.3 2314.18ZM2564.61 1986.01H2417.79C2410.35 1986.01 2403.22 1983.05 2397.96 1977.79C2392.71 1972.54 2389.75 1965.41 2389.75 1957.97V1911.63C2389.75 1904.19 2392.71 1897.06 2397.96 1891.81C2403.22 1886.55 2410.35 1883.59 2417.79 1883.59H2564.61C2572.05 1883.59 2579.18 1886.55 2584.44 1891.81C2589.7 1897.06 2592.65 1904.19 2592.65 1911.63V1958.02C2592.64 1965.45 2589.68 1972.57 2584.42 1977.81C2579.16 1983.06 2572.04 1986.01 2564.61 1986.01ZM3454.14 999.975V1239.01C3454.14 1244.03 3453.15 1249 3451.23 1253.63C3449.31 1258.27 3446.49 1262.48 3442.95 1266.03C3439.4 1269.57 3435.18 1272.39 3430.55 1274.31C3425.91 1276.23 3420.94 1277.21 3415.93 1277.21H3348.87V1380.55L3234.27 1277.21H2900.85C2895.83 1277.21 2890.86 1276.23 2886.23 1274.31C2881.59 1272.39 2877.38 1269.57 2873.83 1266.03C2870.28 1262.48 2867.47 1258.27 2865.55 1253.63C2863.63 1249 2862.64 1244.03 2862.64 1239.01V999.975C2862.64 989.842 2866.66 980.123 2873.83 972.957C2881 965.792 2890.72 961.766 2900.85 961.766H3415.94C3426.07 961.77 3435.79 965.797 3442.95 972.962C3450.11 980.127 3454.14 989.844 3454.14 999.975Z" fill="#CEDBEE"/>
<path d="M3354.95 1394.23L3231.93 1283.29H2900.85C2889.1 1283.27 2877.84 1278.61 2869.54 1270.3C2861.23 1262 2856.55 1250.74 2856.54 1239V999.975C2856.54 994.157 2857.68 988.395 2859.91 983.02C2862.14 977.645 2865.4 972.761 2869.52 968.647C2873.63 964.533 2878.52 961.271 2883.89 959.045C2889.27 956.82 2895.03 955.675 2900.85 955.677H3415.94C3427.68 955.692 3438.94 960.364 3447.24 968.668C3455.55 976.973 3460.22 988.232 3460.23 999.975V1239.01C3460.21 1250.75 3455.54 1262.01 3447.24 1270.31C3438.94 1278.61 3427.68 1283.28 3415.94 1283.3H3354.97L3354.95 1394.23ZM2900.85 967.854C2892.33 967.854 2884.16 971.238 2878.13 977.262C2872.1 983.285 2868.72 991.455 2868.71 999.975V1239.01C2868.73 1247.53 2872.12 1255.69 2878.14 1261.71C2884.17 1267.73 2892.33 1271.11 2900.85 1271.12H3236.6L3342.78 1366.86V1271.12H3415.94C3424.45 1271.11 3432.61 1267.72 3438.63 1261.71C3444.65 1255.69 3448.04 1247.53 3448.05 1239.01V999.975C3448.04 991.461 3444.66 983.297 3438.64 977.275C3432.62 971.253 3424.45 967.865 3415.94 967.854H2900.85Z" fill="#AEC6D3"/>
<path d="M3279.96 1051.93H2962.65C2959.63 1051.93 2956.73 1050.73 2954.6 1048.6C2952.47 1046.46 2951.27 1043.57 2951.27 1040.55C2951.27 1037.53 2952.47 1034.64 2954.6 1032.51C2956.73 1030.37 2959.63 1029.17 2962.65 1029.17H3279.91C3282.93 1029.18 3285.82 1030.38 3287.95 1032.51C3290.08 1034.64 3291.28 1037.54 3291.28 1040.55C3291.28 1043.56 3290.09 1046.44 3287.97 1048.58C3285.85 1050.71 3282.97 1051.91 3279.96 1051.93ZM3240.7 1129.32H2960.6C2959.38 1129.33 2958.17 1129.09 2957.05 1128.62C2955.92 1128.16 2954.89 1127.47 2954.03 1126.61C2953.17 1125.75 2952.48 1124.73 2952.01 1123.6C2951.55 1122.47 2951.31 1121.26 2951.31 1120.04V1115.86C2951.31 1114.64 2951.55 1113.43 2952.01 1112.31C2952.48 1111.18 2953.17 1110.16 2954.03 1109.29C2954.89 1108.43 2955.92 1107.75 2957.05 1107.28C2958.17 1106.82 2959.38 1106.58 2960.6 1106.58H3240.7C3243.16 1106.58 3245.52 1107.56 3247.26 1109.3C3249 1111.04 3249.98 1113.4 3249.98 1115.86V1120.04C3249.98 1122.5 3249 1124.87 3247.26 1126.61C3245.52 1128.35 3243.16 1129.32 3240.7 1129.32ZM3166.22 1203.75H2962.65C2961.15 1203.75 2959.67 1203.46 2958.29 1202.89C2956.91 1202.32 2955.66 1201.48 2954.6 1200.42C2953.54 1199.37 2952.7 1198.11 2952.13 1196.73C2951.56 1195.35 2951.27 1193.87 2951.27 1192.38C2951.27 1189.36 2952.47 1186.46 2954.6 1184.33C2956.73 1182.2 2959.63 1181 2962.65 1181H3166.17C3169.19 1181 3172.08 1182.2 3174.21 1184.33C3176.35 1186.46 3177.55 1189.36 3177.55 1192.38C3177.55 1195.39 3176.36 1198.27 3174.24 1200.41C3172.11 1202.54 3169.23 1203.74 3166.22 1203.75Z" fill="white"/>
<path d="M3159.16 765.564H2603.03C2591.51 765.56 2580.47 760.985 2572.33 752.843C2564.19 744.701 2559.61 733.66 2559.61 722.145V520.883C2559.61 509.369 2564.19 498.327 2572.33 490.186C2580.47 482.044 2591.51 477.468 2603.03 477.465H3159.16C3170.67 477.468 3181.72 482.044 3189.86 490.186C3198 498.327 3202.58 509.369 3202.58 520.883V722.145C3202.58 733.66 3198 744.701 3189.86 752.843C3181.72 760.985 3170.67 765.56 3159.16 765.564Z" fill="#DFE9F4"/>
<path d="M2569.74 684.166L2480.71 832.349L2693.76 748.394L2569.74 684.166Z" fill="#DFE9F4"/>
<path d="M2869.46 572.866H2650.35C2647.12 572.866 2644.02 571.583 2641.74 569.3C2639.45 567.016 2638.17 563.919 2638.17 560.689C2638.16 559.084 2638.47 557.494 2639.08 556.008C2639.69 554.523 2640.58 553.173 2641.71 552.035C2642.84 550.897 2644.19 549.994 2645.67 549.378C2647.15 548.761 2648.74 548.444 2650.35 548.444H2869.46C2871.06 548.444 2872.65 548.761 2874.13 549.378C2875.62 549.994 2876.96 550.897 2878.09 552.035C2879.22 553.173 2880.12 554.523 2880.73 556.008C2881.34 557.494 2881.64 559.084 2881.64 560.689C2881.64 563.919 2880.35 567.016 2878.07 569.3C2875.79 571.583 2872.69 572.866 2869.46 572.866ZM3091.11 572.866H2931.53C2929.92 572.875 2928.33 572.567 2926.84 571.959C2925.36 571.351 2924.01 570.455 2922.87 569.324C2921.73 568.192 2920.83 566.847 2920.21 565.365C2919.6 563.883 2919.28 562.294 2919.28 560.689C2919.27 559.079 2919.58 557.482 2920.19 555.993C2920.81 554.503 2921.71 553.149 2922.85 552.011C2923.99 550.872 2925.34 549.97 2926.83 549.358C2928.32 548.746 2929.91 548.435 2931.53 548.444H3091.19C3094.44 548.444 3097.56 549.734 3099.86 552.03C3102.16 554.326 3103.45 557.44 3103.45 560.689C3103.44 562.299 3103.11 563.891 3102.49 565.374C3101.86 566.857 3100.95 568.203 3099.8 569.333C3098.66 570.464 3097.3 571.358 3095.81 571.964C3094.32 572.571 3092.72 572.877 3091.11 572.866ZM2869.46 634.564H2650.35C2648.74 634.564 2647.15 634.247 2645.67 633.631C2644.19 633.015 2642.84 632.112 2641.71 630.974C2640.58 629.836 2639.69 628.485 2639.08 627C2638.47 625.515 2638.16 623.924 2638.17 622.319C2638.17 619.09 2639.45 615.992 2641.74 613.709C2644.02 611.425 2647.12 610.142 2650.35 610.142H2869.46C2872.69 610.142 2875.79 611.425 2878.07 613.709C2880.35 615.992 2881.64 619.09 2881.64 622.319C2881.64 625.555 2880.36 628.66 2878.07 630.954C2875.79 633.248 2872.69 634.546 2869.46 634.564ZM2790.29 708.967H2650.36C2648.75 708.976 2647.15 708.665 2645.66 708.053C2644.18 707.441 2642.82 706.539 2641.68 705.401C2640.54 704.262 2639.64 702.908 2639.03 701.419C2638.42 699.929 2638.11 698.333 2638.12 696.722C2638.12 695.117 2638.43 693.528 2639.05 692.046C2639.67 690.565 2640.57 689.219 2641.71 688.088C2642.84 686.956 2644.2 686.06 2645.68 685.452C2647.17 684.844 2648.76 684.536 2650.36 684.545H2790.29C2791.89 684.536 2793.48 684.844 2794.97 685.452C2796.45 686.06 2797.8 686.956 2798.94 688.088C2800.08 689.219 2800.98 690.565 2801.6 692.046C2802.22 693.528 2802.53 695.117 2802.53 696.722C2802.53 698.33 2802.22 699.922 2801.6 701.408C2800.99 702.894 2800.08 704.244 2798.95 705.381C2797.81 706.518 2796.46 707.42 2794.97 708.035C2793.49 708.65 2791.9 708.967 2790.29 708.967ZM3091.11 634.564H2931.53C2929.91 634.573 2928.32 634.263 2926.83 633.65C2925.34 633.038 2923.99 632.137 2922.85 630.998C2921.71 629.859 2920.81 628.506 2920.19 627.016C2919.58 625.526 2919.27 623.93 2919.28 622.319C2919.28 620.715 2919.6 619.125 2920.21 617.644C2920.83 616.162 2921.73 614.816 2922.87 613.685C2924.01 612.553 2925.36 611.658 2926.84 611.05C2928.33 610.442 2929.92 610.133 2931.53 610.142H3091.19C3094.43 610.142 3097.54 611.422 3099.83 613.704C3102.13 615.985 3103.43 619.082 3103.45 622.319C3103.45 623.935 3103.13 625.534 3102.51 627.025C3101.89 628.516 3100.97 629.869 3099.83 631.007C3098.68 632.145 3097.32 633.045 3095.82 633.656C3094.33 634.266 3092.73 634.575 3091.11 634.564ZM3103.37 483.553H2621.93C2620.32 483.553 2618.77 482.912 2617.63 481.77C2616.49 480.628 2615.84 479.079 2615.84 477.465C2615.84 475.85 2616.49 474.301 2617.63 473.159C2618.77 472.018 2620.32 471.376 2621.93 471.376H3103.37C3104.99 471.376 3106.53 472.018 3107.68 473.159C3108.82 474.301 3109.46 475.85 3109.46 477.465C3109.46 479.079 3108.82 480.628 3107.68 481.77C3106.53 482.912 3104.99 483.553 3103.37 483.553Z" fill="#AEC6D3"/>
<path d="M3172.81 771.666H2638.12C2636.5 771.666 2634.95 771.025 2633.81 769.883C2632.67 768.741 2632.03 767.192 2632.03 765.578C2632.03 763.963 2632.67 762.414 2633.81 761.272C2634.95 760.13 2636.5 759.489 2638.12 759.489H3172.81C3179.09 759.478 3185.11 756.98 3189.54 752.542C3193.98 748.104 3196.48 742.087 3196.49 735.811V572.866C3196.49 571.252 3197.13 569.703 3198.28 568.561C3199.42 567.419 3200.97 566.778 3202.58 566.778C3204.2 566.778 3205.74 567.419 3206.89 568.561C3208.03 569.703 3208.67 571.252 3208.67 572.866V735.811C3208.66 745.317 3204.88 754.431 3198.16 761.153C3191.43 767.874 3182.32 771.655 3172.81 771.666Z" fill="#AEC6D3"/>
<path d="M3390.95 2132.56H2902.93C2895.28 2132.56 2887.94 2129.53 2882.53 2124.12C2877.12 2118.71 2874.08 2111.37 2874.08 2103.72V1898.06C2874.08 1890.41 2877.12 1883.07 2882.53 1877.66C2887.94 1872.25 2895.28 1869.21 2902.93 1869.21H3390.95C3394.74 1869.21 3398.49 1869.96 3401.99 1871.41C3405.49 1872.86 3408.67 1874.98 3411.35 1877.66C3414.02 1880.34 3416.15 1883.52 3417.6 1887.02C3419.05 1890.52 3419.8 1894.27 3419.8 1898.06V2103.72C3419.79 2111.37 3416.75 2118.7 3411.34 2124.11C3405.93 2129.52 3398.6 2132.56 3390.95 2132.56Z" fill="#CEDBEE"/>
<path d="M3390.95 2138.69H2902.93C2893.67 2138.68 2884.79 2135 2878.24 2128.45C2871.68 2121.9 2868 2113.02 2867.98 2103.76V1898.1C2867.99 1888.83 2871.68 1879.95 2878.23 1873.4C2884.78 1866.85 2893.67 1863.17 2902.93 1863.16H3390.95C3400.21 1863.17 3409.09 1866.86 3415.64 1873.41C3422.18 1879.96 3425.86 1888.84 3425.87 1898.1V2103.76C3425.86 2113.02 3422.17 2121.89 3415.63 2128.44C3409.08 2134.99 3400.21 2138.68 3390.95 2138.69ZM2902.93 1875.4C2896.9 1875.4 2891.11 1877.8 2886.84 1882.06C2882.57 1886.33 2880.17 1892.12 2880.16 1898.15V2103.81C2880.17 2109.85 2882.57 2115.63 2886.84 2119.9C2891.11 2124.16 2896.9 2126.56 2902.93 2126.57H3390.95C3396.98 2126.56 3402.76 2124.16 3407.03 2119.89C3411.29 2115.62 3413.69 2109.83 3413.69 2103.8V1898.14C3413.69 1892.11 3411.29 1886.32 3407.03 1882.06C3402.76 1877.79 3396.98 1875.39 3390.95 1875.38L2902.93 1875.4Z" fill="#AEC6D3"/>
<path d="M3419.78 2096.99V2222.92L3257.58 2110.35L3419.78 2096.99Z" fill="#CEDBEE"/>
<path d="M3228.66 1959.3H2985.65C2981.94 1959.3 2978.38 1957.82 2975.75 1955.2C2973.13 1952.58 2971.65 1949.02 2971.64 1945.31C2971.64 1943.47 2972.01 1941.65 2972.71 1939.95C2973.41 1938.25 2974.44 1936.71 2975.74 1935.41C2977.04 1934.11 2978.58 1933.08 2980.28 1932.38C2981.98 1931.68 2983.8 1931.32 2985.64 1931.32H3228.6C3230.44 1931.32 3232.26 1931.68 3233.96 1932.38C3235.65 1933.08 3237.2 1934.11 3238.49 1935.41C3239.79 1936.71 3240.82 1938.25 3241.53 1939.95C3242.23 1941.65 3242.59 1943.47 3242.59 1945.31C3242.6 1947.14 3242.24 1948.96 3241.54 1950.65C3240.84 1952.35 3239.82 1953.89 3238.52 1955.19C3237.23 1956.49 3235.69 1957.52 3234 1958.22C3232.3 1958.93 3230.49 1959.29 3228.66 1959.3ZM3168.32 2047.07H2982.42C2976.5 2047.07 2971.71 2040.8 2971.71 2033.08C2971.66 2029.77 2972.61 2026.52 2974.42 2023.75C2975.26 2022.38 2976.43 2021.23 2977.83 2020.42C2979.22 2019.61 2980.79 2019.15 2982.4 2019.09H3168.32C3174.23 2019.09 3179.01 2025.35 3179.01 2033.08C3179.04 2040.8 3174.25 2047.07 3168.32 2047.07Z" fill="white"/>
<path d="M3058.12 1730.03H2566.02C2554.78 1730.03 2544 1725.56 2536.06 1717.61C2528.11 1709.67 2523.64 1698.89 2523.64 1687.65V1458.24C2523.64 1452.68 2524.74 1447.17 2526.87 1442.02C2529 1436.88 2532.12 1432.21 2536.06 1428.28C2540 1424.34 2544.67 1421.22 2549.81 1419.09C2554.96 1416.96 2560.47 1415.87 2566.04 1415.87H3058.14C3069.38 1415.87 3080.16 1420.33 3088.1 1428.28C3096.05 1436.23 3100.52 1447.01 3100.52 1458.24V1687.65C3100.51 1698.89 3096.04 1709.67 3088.09 1717.61C3080.14 1725.56 3069.36 1730.02 3058.12 1730.03Z" fill="#DFE9F4"/>
<path d="M3058.11 1736.13H2566.02C2553.17 1736.11 2540.85 1731 2531.77 1721.92C2522.68 1712.83 2517.57 1700.51 2517.55 1687.66V1458.24C2517.55 1451.88 2518.8 1445.58 2521.24 1439.69C2523.67 1433.81 2527.24 1428.47 2531.74 1423.97C2536.24 1419.47 2541.59 1415.9 2547.47 1413.46C2553.35 1411.03 2559.66 1409.78 2566.02 1409.78H3058.14C3070.99 1409.79 3083.3 1414.9 3092.39 1423.99C3101.47 1433.08 3106.58 1445.4 3106.59 1458.24V1687.65C3106.57 1700.5 3101.46 1712.82 3092.37 1721.91C3083.28 1731 3070.96 1736.11 3058.11 1736.13ZM2566.02 1421.96C2561.26 1421.95 2556.53 1422.89 2552.13 1424.71C2547.73 1426.53 2543.72 1429.21 2540.35 1432.58C2536.98 1435.95 2534.31 1439.95 2532.49 1444.35C2530.66 1448.76 2529.73 1453.48 2529.73 1458.24V1687.65C2529.74 1697.27 2533.57 1706.49 2540.37 1713.3C2547.18 1720.1 2556.4 1723.93 2566.02 1723.94H3058.11C3067.73 1723.93 3076.96 1720.1 3083.77 1713.29C3090.57 1706.49 3094.4 1697.26 3094.41 1687.64V1458.24C3094.4 1448.63 3090.58 1439.4 3083.78 1432.6C3076.98 1425.8 3067.76 1421.97 3058.14 1421.96H2566.02Z" fill="#AEC6D3"/>
<path d="M2808.89 1514.11H2641.62C2638.58 1514.11 2635.67 1512.9 2633.53 1510.76C2631.38 1508.61 2630.17 1505.7 2630.17 1502.66C2630.17 1499.63 2631.38 1496.72 2633.53 1494.57C2635.67 1492.42 2638.58 1491.22 2641.62 1491.22H2808.89C2811.93 1491.22 2814.84 1492.42 2816.99 1494.57C2819.13 1496.72 2820.34 1499.63 2820.34 1502.66C2820.34 1505.7 2819.13 1508.61 2816.99 1510.76C2814.84 1512.9 2811.93 1514.11 2808.89 1514.11ZM2950.08 1514.11H2855.94C2852.91 1514.11 2850 1512.9 2847.85 1510.75C2845.7 1508.61 2844.5 1505.7 2844.49 1502.66C2844.5 1499.63 2845.7 1496.72 2847.85 1494.57C2850 1492.43 2852.91 1491.22 2855.94 1491.22H2950.08C2953.11 1491.22 2956.02 1492.42 2958.17 1494.57C2960.32 1496.72 2961.52 1499.63 2961.52 1502.66C2961.52 1505.7 2960.32 1508.61 2958.17 1510.76C2956.02 1512.9 2953.11 1514.11 2950.08 1514.11ZM2808.89 1587.89H2641.62C2638.58 1587.89 2635.67 1586.69 2633.53 1584.54C2631.38 1582.39 2630.17 1579.48 2630.17 1576.44C2630.17 1573.41 2631.38 1570.5 2633.53 1568.35C2635.67 1566.2 2638.58 1565 2641.62 1565H2808.89C2811.93 1565 2814.84 1566.2 2816.99 1568.35C2819.13 1570.5 2820.34 1573.41 2820.34 1576.44C2820.34 1579.48 2819.13 1582.39 2816.99 1584.54C2814.84 1586.69 2811.93 1587.89 2808.89 1587.89ZM2810.98 1657.84H2639.5C2638.27 1657.84 2637.05 1657.6 2635.92 1657.13C2634.79 1656.66 2633.76 1655.97 2632.89 1655.1C2632.02 1654.24 2631.33 1653.2 2630.87 1652.07C2630.4 1650.94 2630.16 1649.72 2630.16 1648.49V1644.29C2630.16 1641.81 2631.14 1639.43 2632.89 1637.68C2634.64 1635.93 2637.02 1634.94 2639.5 1634.94H2810.98C2812.2 1634.94 2813.42 1635.18 2814.55 1635.65C2815.69 1636.12 2816.72 1636.81 2817.59 1637.67C2818.46 1638.54 2819.14 1639.57 2819.61 1640.71C2820.08 1641.84 2820.33 1643.06 2820.33 1644.29V1648.49C2820.33 1649.72 2820.09 1650.94 2819.62 1652.08C2819.15 1653.21 2818.46 1654.24 2817.6 1655.11C2816.73 1655.98 2815.69 1656.67 2814.56 1657.14C2813.42 1657.61 2812.2 1657.85 2810.98 1657.84ZM2950.08 1587.89H2855.94C2852.91 1587.89 2850 1586.68 2847.85 1584.53C2845.7 1582.39 2844.5 1579.48 2844.49 1576.44C2844.5 1573.41 2845.7 1570.5 2847.85 1568.35C2850 1566.21 2852.91 1565 2855.94 1565H2950.08C2953.11 1565 2956.02 1566.2 2958.17 1568.35C2960.32 1570.5 2961.52 1573.41 2961.52 1576.44C2961.52 1579.48 2960.32 1582.39 2958.17 1584.54C2956.02 1586.69 2953.11 1587.89 2950.08 1587.89Z" fill="#AEC6D3"/>
<path d="M1292.3 556.644C1321.1 556.644 1344.44 533.297 1344.44 504.498C1344.44 475.699 1321.1 452.353 1292.3 452.353C1263.49 452.353 1240.15 475.699 1240.15 504.498C1240.15 533.297 1263.49 556.644 1292.3 556.644Z" fill="#7394BC"/>
<path d="M1413.58 427.863C1413.58 427.863 1444.57 286.323 1387.5 237.709C1345.49 201.921 1305.18 200.825 1291.73 201.624C1278.28 200.812 1237.97 201.921 1195.95 237.709C1138.88 286.323 1169.87 427.863 1169.87 427.863C1169.87 427.863 1132.36 489.547 1132.36 499.086C1132.36 506.338 1451.1 506.338 1451.1 499.086C1451.1 489.561 1413.58 427.863 1413.58 427.863Z" fill="#DFE9F4"/>
<path d="M1161.56 361.132C1160.01 361.128 1158.52 360.534 1157.39 359.471C1156.26 358.408 1155.58 356.956 1155.48 355.408C1151.75 293.318 1170.61 257.449 1187.09 238.291C1205.29 217.129 1224.5 211.081 1225.32 210.838C1226.86 210.364 1228.53 210.523 1229.96 211.281C1231.39 212.038 1232.45 213.332 1232.93 214.877C1233.4 216.421 1233.24 218.091 1232.48 219.518C1231.73 220.946 1230.43 222.014 1228.89 222.487C1228.58 222.582 1211.66 228.102 1195.82 246.842C1174.64 271.859 1164.9 309.148 1167.65 354.705C1167.74 356.316 1167.2 357.899 1166.12 359.107C1165.05 360.314 1163.55 361.048 1161.94 361.145L1161.56 361.132ZM1136.61 493.295C1135.55 493.291 1134.51 493.011 1133.59 492.483C1132.67 491.955 1131.91 491.197 1131.37 490.284C1130.83 489.37 1130.54 488.333 1130.53 487.274C1130.51 486.215 1130.78 485.171 1131.29 484.243L1159.5 433.397V402.71C1159.5 401.095 1160.14 399.547 1161.28 398.405C1162.43 397.263 1163.98 396.621 1165.59 396.621C1167.2 396.621 1168.75 397.263 1169.9 398.405C1171.04 399.547 1171.68 401.095 1171.68 402.71V436.536L1141.91 490.142C1141.39 491.092 1140.62 491.884 1139.69 492.439C1138.75 492.993 1137.69 493.288 1136.61 493.295ZM1448.67 510.194H1356.73C1355.12 510.194 1353.57 509.553 1352.43 508.411C1351.28 507.269 1350.64 505.72 1350.64 504.106C1350.64 502.491 1351.28 500.942 1352.43 499.8C1353.57 498.659 1355.12 498.017 1356.73 498.017H1441.53L1408.79 420.611L1409.12 418.811C1409.3 417.837 1427 320.879 1409.72 288.731C1408.95 287.309 1408.79 285.64 1409.25 284.094C1409.72 282.547 1410.78 281.249 1412.2 280.485C1413.62 279.72 1415.29 279.552 1416.84 280.018C1418.39 280.484 1419.68 281.545 1420.45 282.967C1438.54 316.644 1423.94 404.983 1421.42 419.217L1455.54 499.844C1456.01 500.976 1456.2 502.209 1456.09 503.433C1455.97 504.657 1455.56 505.833 1454.88 506.858C1454.2 507.882 1453.28 508.723 1452.2 509.305C1451.11 509.887 1449.9 510.193 1448.67 510.194Z" fill="#AEC6D3"/>
<path d="M1465.6 256.268C1473.83 221.404 1452.25 186.465 1417.38 178.23C1382.51 169.995 1347.57 191.582 1339.34 226.446C1331.1 261.31 1352.69 296.249 1387.56 304.484C1422.42 312.719 1457.36 291.132 1465.6 256.268Z" fill="#92B1DD"/>
<path d="M1154.89 2060.1H223.213C207.714 2060.1 192.849 2053.94 181.889 2042.98C170.93 2032.02 164.772 2017.16 164.772 2001.66V1277.13C164.772 1269.45 166.284 1261.86 169.221 1254.77C172.158 1247.68 176.463 1241.23 181.889 1235.81C187.316 1230.38 193.759 1226.08 200.849 1223.14C207.939 1220.2 215.539 1218.69 223.213 1218.69H1154.89C1162.56 1218.69 1170.16 1220.2 1177.25 1223.14C1184.34 1226.08 1190.78 1230.38 1196.21 1235.81C1201.64 1241.23 1205.94 1247.68 1208.88 1254.77C1211.82 1261.86 1213.33 1269.45 1213.33 1277.13V2001.66C1213.33 2009.33 1211.82 2016.93 1208.88 2024.02C1205.95 2031.12 1201.64 2037.56 1196.21 2042.98C1190.79 2048.41 1184.34 2052.72 1177.25 2055.65C1170.16 2058.59 1162.56 2060.1 1154.89 2060.1Z" fill="#CEDBEE"/>
<path d="M242.685 1293.11H1135.36V1978.06H242.685V1293.11Z" fill="white"/>
<path d="M439.766 1487.08L439.671 1440.67L416.668 1479.07H410.864L387.861 1441.26V1487.06H375.493V1417.06H386.21L414.003 1463.47L441.309 1417.06H452.012L452.106 1487.06H439.766V1487.08ZM523.47 1476.17V1487.08H470.969V1417.07H522.076V1427.98H483.972V1446.18H517.8V1456.88H483.972V1476.19H523.47V1476.17ZM590.476 1476.17V1487.08H537.975V1417.07H589.082V1427.98H550.978V1446.18H584.806V1456.88H550.978V1476.19H590.476V1476.17ZM619.175 1428.07H595.97V1417.07H655.371V1428.07H632.179V1487.08H619.175V1428.07ZM665.181 1417.07H678.185V1487.08H665.181V1417.07ZM759.29 1417.07V1487.08H748.587L709.983 1439.72V1487.08H697.088V1417.07H707.777L746.395 1464.43V1417.07H759.29ZM825.904 1451.28H838.258V1479.18C834.498 1482.13 830.228 1484.37 825.661 1485.78C820.875 1487.31 815.881 1488.08 810.858 1488.08C804.132 1488.18 797.491 1486.58 791.549 1483.42C785.945 1480.46 781.265 1476.01 778.017 1470.57C774.807 1464.93 773.119 1458.56 773.119 1452.07C773.119 1445.59 774.807 1439.21 778.017 1433.58C781.258 1428.13 785.94 1423.68 791.549 1420.73C797.542 1417.57 804.233 1415.97 811.006 1416.07C816.479 1416 821.914 1416.98 827.014 1418.97C831.666 1420.79 835.814 1423.71 839.111 1427.46L830.911 1435.46C828.409 1432.88 825.405 1430.84 822.084 1429.46C818.763 1428.09 815.196 1427.41 811.602 1427.46C807.027 1427.37 802.503 1428.44 798.449 1430.56C794.692 1432.56 791.573 1435.57 789.451 1439.26C787.243 1443.16 786.122 1447.58 786.204 1452.06C786.138 1456.48 787.26 1460.83 789.451 1464.66C791.585 1468.36 794.698 1471.4 798.449 1473.45C802.451 1475.63 806.95 1476.74 811.507 1476.66C816.541 1476.77 821.513 1475.52 825.904 1473.06V1451.28ZM461.619 1865.41C457.033 1862.36 453.422 1858.05 451.213 1853C446.144 1840.6 446.144 1826.71 451.213 1814.31C453.413 1809.26 457.027 1804.95 461.619 1801.91C466.139 1799.14 471.34 1797.66 476.645 1797.66C481.95 1797.66 487.152 1799.14 491.671 1801.91C496.278 1804.94 499.903 1809.25 502.104 1814.31C507.174 1826.71 507.174 1840.6 502.104 1853C499.891 1858.06 496.269 1862.36 491.671 1865.41C487.175 1868.26 481.947 1869.73 476.625 1869.66C471.314 1869.75 466.096 1868.27 461.619 1865.41ZM488.465 1852.16C491.36 1848.03 492.808 1841.87 492.808 1833.67C492.808 1825.47 491.36 1819.3 488.465 1815.17C487.147 1813.26 485.385 1811.7 483.33 1810.62C481.274 1809.54 478.987 1808.97 476.666 1808.97C474.344 1808.97 472.057 1809.54 470.001 1810.62C467.946 1811.7 466.184 1813.26 464.866 1815.17C461.953 1819.31 460.5 1825.48 460.509 1833.67C460.518 1841.86 461.971 1848.02 464.866 1852.16C466.184 1854.08 467.946 1855.64 470.001 1856.72C472.057 1857.8 474.344 1858.36 476.666 1858.36C478.987 1858.36 481.274 1857.8 483.33 1856.72C485.385 1855.64 487.147 1854.08 488.465 1852.16ZM560.68 1806.66C565.966 1812.67 568.619 1821.27 568.637 1832.46C568.835 1839.43 567.36 1846.34 564.334 1852.61C561.673 1857.95 557.474 1862.38 552.278 1865.32C546.77 1868.3 540.582 1869.79 534.322 1869.66C530.905 1869.68 527.498 1869.3 524.173 1868.51C521.258 1867.84 518.471 1866.71 515.919 1865.15L520.723 1855.36C524.727 1857.77 529.353 1858.95 534.024 1858.75C540.762 1858.75 546.031 1856.69 549.828 1852.56C553.631 1848.5 555.525 1842.45 555.525 1834.66V1834.56C553.383 1837 550.667 1838.86 547.623 1839.97C544.16 1841.25 540.49 1841.88 536.798 1841.83C532.51 1841.88 528.266 1840.96 524.39 1839.12C520.808 1837.47 517.79 1834.8 515.709 1831.45C513.629 1828.1 512.577 1824.22 512.685 1820.27C512.602 1816.04 513.785 1811.88 516.082 1808.33C518.358 1804.88 521.542 1802.12 525.283 1800.37C529.348 1798.46 533.795 1797.5 538.286 1797.57C547.929 1797.63 555.394 1800.66 560.68 1806.66ZM549.571 1828.31C550.803 1827.26 551.793 1825.95 552.475 1824.49C553.157 1823.02 553.515 1821.42 553.524 1819.8C553.533 1818.18 553.193 1816.58 552.527 1815.1C551.862 1813.63 550.886 1812.31 549.666 1811.25C547.095 1809.01 543.545 1807.89 539.017 1807.89C535.43 1807.73 531.907 1808.89 529.112 1811.14C527.914 1812.25 526.958 1813.59 526.304 1815.08C525.65 1816.57 525.312 1818.18 525.312 1819.81C525.312 1821.44 525.65 1823.05 526.304 1824.55C526.958 1826.04 527.914 1827.38 529.112 1828.49C532.019 1830.74 535.641 1831.88 539.315 1831.68C543.042 1831.86 546.702 1830.64 549.571 1828.26V1828.31ZM578.23 1867.01C576.846 1865.66 575.973 1863.88 575.76 1861.96C575.546 1860.04 576.007 1858.11 577.062 1856.49C578.117 1854.88 579.701 1853.68 581.542 1853.1C583.384 1852.52 585.369 1852.6 587.158 1853.33C588.947 1854.05 590.428 1855.38 591.347 1857.08C592.267 1858.77 592.568 1860.74 592.199 1862.63C591.829 1864.53 590.813 1866.23 589.324 1867.46C587.835 1868.69 585.965 1869.36 584.035 1869.36C582.959 1869.38 581.89 1869.18 580.892 1868.78C579.895 1868.37 578.989 1867.77 578.23 1867.01ZM613.641 1865.41C609.056 1862.36 605.444 1858.05 603.236 1853C598.166 1840.6 598.166 1826.71 603.236 1814.31C605.436 1809.26 609.049 1804.95 613.641 1801.91C618.161 1799.14 623.362 1797.66 628.667 1797.66C633.973 1797.66 639.174 1799.14 643.694 1801.91C648.302 1804.95 651.93 1809.25 654.14 1814.31C659.21 1826.71 659.21 1840.6 654.14 1853C651.922 1858.06 648.295 1862.36 643.694 1865.41C639.198 1868.26 633.969 1869.73 628.647 1869.66C623.337 1869.75 618.118 1868.27 613.641 1865.41ZM640.5 1852.16C643.396 1848.03 644.849 1841.87 644.858 1833.67C644.867 1825.47 643.414 1819.3 640.5 1815.17C639.183 1813.26 637.421 1811.7 635.365 1810.62C633.31 1809.54 631.023 1808.97 628.701 1808.97C626.38 1808.97 624.093 1809.54 622.037 1810.62C619.982 1811.7 618.22 1813.26 616.902 1815.17C614.006 1819.31 612.554 1825.48 612.545 1833.67C612.536 1841.86 613.988 1848.02 616.902 1852.16C618.168 1854.11 619.912 1855.71 621.968 1856.79C624.024 1857.88 626.323 1858.42 628.647 1858.36C630.985 1858.42 633.298 1857.88 635.37 1856.8C637.441 1855.71 639.203 1854.12 640.487 1852.16H640.5ZM680.932 1865.41C676.346 1862.36 672.734 1858.05 670.526 1853C665.456 1840.6 665.456 1826.71 670.526 1814.31C672.72 1809.25 676.335 1804.95 680.932 1801.91C685.451 1799.14 690.653 1797.66 695.958 1797.66C701.263 1797.66 706.464 1799.14 710.984 1801.91C715.591 1804.94 719.216 1809.25 721.417 1814.31C726.487 1826.71 726.487 1840.6 721.417 1853C719.208 1858.06 715.585 1862.37 710.984 1865.41C706.487 1868.26 701.259 1869.73 695.938 1869.66C690.627 1869.75 685.408 1868.27 680.932 1865.41ZM707.791 1852.16C710.687 1848.03 712.134 1841.87 712.134 1833.67C712.134 1825.47 710.687 1819.3 707.791 1815.17C706.473 1813.26 704.711 1811.7 702.656 1810.62C700.6 1809.54 698.313 1808.97 695.992 1808.97C693.67 1808.97 691.383 1809.54 689.328 1810.62C687.272 1811.7 685.51 1813.26 684.193 1815.17C681.297 1819.31 679.845 1825.48 679.835 1833.67C679.826 1841.86 681.279 1848.02 684.193 1852.16C685.51 1854.08 687.272 1855.64 689.328 1856.72C691.383 1857.8 693.67 1858.36 695.992 1858.36C698.313 1858.36 700.6 1857.8 702.656 1856.72C704.711 1855.64 706.473 1854.08 707.791 1852.16ZM812.048 1852.49H777.043L770.142 1868.73H756.747L788.193 1798.65H800.993L832.656 1868.73H819.057L812.048 1852.49ZM807.745 1842.29L794.539 1811.68L781.427 1842.26L807.745 1842.29ZM905.914 1868.73L905.819 1822.32L882.816 1860.72H876.957L853.954 1822.91V1868.71H841.546V1798.64H852.249L880.056 1845.05L907.362 1798.64H918.092L918.187 1868.64H905.914V1868.73Z" fill="#92B1DD"/>
<path d="M1016.26 1615.87H396.141C394.344 1615.87 392.564 1615.52 390.903 1614.83C389.243 1614.14 387.734 1613.13 386.463 1611.86C385.193 1610.59 384.186 1609.08 383.499 1607.42C382.812 1605.76 382.46 1603.98 382.461 1602.18C382.461 1598.55 383.903 1595.07 386.468 1592.51C389.034 1589.94 392.513 1588.5 396.141 1588.5H1016.26C1019.89 1588.5 1023.37 1589.94 1025.93 1592.51C1028.5 1595.07 1029.94 1598.55 1029.94 1602.18C1029.94 1603.98 1029.59 1605.76 1028.9 1607.42C1028.22 1609.08 1027.21 1610.59 1025.94 1611.86C1024.67 1613.13 1023.16 1614.14 1021.5 1614.83C1019.84 1615.52 1018.06 1615.87 1016.26 1615.87ZM1016.87 1678.19H396.777C393.149 1678.19 389.67 1676.75 387.104 1674.19C384.539 1671.62 383.097 1668.14 383.097 1664.51C383.112 1660.89 384.559 1657.43 387.123 1654.88C389.687 1652.32 393.159 1650.89 396.777 1650.89H1016.87C1020.5 1650.89 1023.97 1652.33 1026.54 1654.9C1029.1 1657.46 1030.55 1660.94 1030.55 1664.57C1030.53 1668.19 1029.09 1671.65 1026.52 1674.2C1023.96 1676.76 1020.49 1678.19 1016.87 1678.19ZM707.155 1741.8H396.141C392.513 1741.8 389.034 1740.36 386.468 1737.79C383.903 1735.23 382.461 1731.75 382.461 1728.12C382.472 1724.5 383.918 1721.03 386.483 1718.47C389.047 1715.92 392.52 1714.48 396.141 1714.48H707.155C708.951 1714.48 710.73 1714.83 712.39 1715.52C714.049 1716.21 715.558 1717.22 716.828 1718.49C718.098 1719.76 719.106 1721.27 719.793 1722.92C720.481 1724.58 720.835 1726.36 720.835 1728.16C720.82 1731.78 719.373 1735.25 716.81 1737.8C714.246 1740.36 710.775 1741.79 707.155 1741.8Z" fill="#CEDBEE"/>
<path d="M271.073 1212.62H1022.5V1224.79H271.073V1212.62ZM223.444 2054.33H985.112V2066.51H223.444V2054.33ZM1206.08 1351.83H1218.25V1934.59H1206.08V1351.83ZM248.774 1837.51H236.596V1287.17H856.228V1299.35H248.774V1837.51Z" fill="#AEC6D3"/>
<path d="M2343.75 2570.8C2326.16 2536.19 2295.6 2519.46 2258.87 2514.32C2132.24 2496.6 1931.82 2616.58 1931.82 2616.58L1933.4 2644.62L1930.14 2645.21L1931.82 2616.58C1931.82 2616.58 1759.42 2517.34 1629.15 2512.7C1574.62 2510.75 1527.51 2525.39 1503.48 2570.78C1503.48 2570.78 1478.9 2626.11 1483.71 2791.46C1488.51 2956.81 1520.84 3270.99 1520.84 3270.99H1893.48L1898.8 3179.85L1913.24 2933.43C1924.85 2933.56 1937.47 2933.65 1949.69 2933.73L1963.6 3180.66L1968.69 3270.99H2327.05C2327.05 3270.99 2358.17 2956.81 2362.77 2791.46C2367.37 2626.11 2343.75 2570.8 2343.75 2570.8Z" fill="#2C4FA0"/>
<path opacity="0.58" d="M1582.01 3175.92L1898.82 3179.86L1893.48 3271H1520.85C1520.85 3271 1488.5 2956.83 1483.69 2791.49C1478.89 2626.15 1503.46 2570.81 1503.46 2570.81C1527.49 2525.4 1574.64 2510.78 1629.14 2512.72L1709.19 2636C1709.19 2636 1561.63 2611.83 1526.02 2744.12C1490.4 2876.4 1582.01 3175.92 1582.01 3175.92Z" fill="#273657"/>
<path opacity="0.58" d="M2362.76 2791.49C2358.16 2956.84 2327.04 3271.01 2327.04 3271.01H1968.68L1963.59 3180.68L2246 3184.2C2246 3184.2 2301.96 2896.1 2300.04 2763.82C2298.12 2631.53 2109.87 2624.54 2109.87 2624.54C2109.87 2624.54 2186.88 2553.11 2258.84 2514.32C2295.58 2519.46 2326.1 2536.19 2343.72 2570.8C2343.75 2570.8 2367.36 2626.12 2362.76 2791.49Z" fill="#273657"/>
<path opacity="0.58" d="M1899.37 2669.05L1907.02 2889.73C1907.02 2889.73 1969.34 2837.58 1966.15 2665.87C1962.95 2494.16 1900.64 2663.97 1900.64 2663.97" fill="#273657"/>
<path d="M2360.15 2570.8C2360.15 2570.8 2295.28 2602.08 2191.44 2633.1C2136.14 2649.66 2079.94 2663.04 2023.11 2673.18C2009.19 2686.29 1832.77 2686.29 1818.79 2673.18C1767.37 2664.06 1720.01 2652.76 1677.88 2641.02C1558.18 2607.65 1481.77 2570.8 1481.77 2570.8C1481.77 2570.8 1606.43 2273.13 1593.08 2093.18C1586.39 2003.22 1562.09 1851.79 1543.41 1716.2C1524.72 1580.61 1511.66 1460.71 1527.56 1434.3C1537.52 1417.78 1573.97 1390.54 1619.33 1360.91C1630.15 1353.85 1641.44 1346.66 1653.01 1339.45C1748.16 1280.17 1861.48 1219.34 1861.48 1219.34L1920.93 1228.57L1980.38 1219.34C1980.38 1219.34 2101.28 1284.29 2198.23 1345.29C2211.63 1353.74 2224.58 1362.11 2236.67 1370.23C2275.37 1396.18 2305.45 1419.52 2314.34 1434.3C2342.35 1480.79 2280.52 1816.9 2256.31 2019.37C2253.02 2046.77 2250.42 2071.72 2248.84 2093.18C2235.5 2273.16 2360.15 2570.8 2360.15 2570.8Z" fill="#6CC58D"/>
<path opacity="0.78" d="M1677.93 2641.02C1558.24 2607.65 1481.83 2570.8 1481.83 2570.8C1481.83 2570.8 1606.49 2273.13 1593.13 2093.18C1586.45 2003.22 1562.15 1851.79 1543.46 1716.2C1549.89 1680.84 1553.69 1660.08 1553.69 1660.08L1563.55 1739.9C1563.55 1739.9 1590.26 1865.83 1619.52 1905.26C1648.77 1944.68 1812.23 2188.27 1812.23 2188.27L1645.59 2281.13C1645.59 2281.13 1562.4 2552.26 1677.93 2641.02Z" fill="#3E9A83"/>
<path opacity="0.78" d="M2208.49 2271.56L1990.98 2206.06L2226.31 2024.76L2224.4 1993.64C2227 1995.23 2239.47 2005.02 2256.33 2019.34C2253.03 2046.74 2250.45 2071.69 2248.87 2093.15C2235.51 2273.1 2360.17 2570.77 2360.17 2570.77C2360.17 2570.77 2295.3 2602.05 2191.47 2633.08C2302.92 2546.97 2208.49 2271.56 2208.49 2271.56Z" fill="#3E9A83"/>
<path d="M2314.38 1434.3C2329.28 1446.49 2340.87 1462.23 2348.09 1480.08C2399.99 1608.15 2532.11 1961.76 2489.29 2063.91C2436.52 2189.84 2265.41 2145.32 2203.08 2063.91C2112.16 1945.2 2255.85 1790.44 2255.85 1790.44L2314.38 1434.3Z" fill="#6CC58D"/>
<path opacity="0.78" d="M2291.66 1835.09L2289.88 1668.03L2251.87 1823.9C2232.28 1835.59 2181.51 1870.58 2250.52 1884.26C2333.84 1900.79 2410.79 1930.04 2410.79 1930.04C2376.64 1883.92 2325.09 1852.22 2291.66 1835.09Z" fill="#3E9A83"/>
<path d="M1629.38 2137.69C1629.38 2137.69 1617.72 2140.93 1598.76 2145.42C1564.84 2153.46 1507.55 2165.5 1451.91 2170.22C1390.42 2175.43 1330.98 2171.71 1307.22 2143.74C1281.73 2113.7 1276.1 2060.33 1283.87 1992.68C1293.57 1908.49 1324.04 1802.17 1362.86 1691.24C1443 1462.28 1527.59 1434.3 1527.59 1434.3C1527.59 1434.3 1609.64 1550.05 1583.55 1687.42C1571.55 1750.63 1557.19 1816.08 1545.19 1868.31C1531.05 1929.61 1520.23 1972.65 1520.23 1972.65L1595.11 1979.82L1603.23 1980.59L1629.38 2137.69Z" fill="#6CC58D"/>
<path d="M1629.38 2137.69C1629.38 2137.69 1617.72 2140.93 1598.76 2145.42C1579.82 2131.4 1563.92 2106.98 1561.97 2070.29C1559.08 2015.65 1583.38 1989.31 1595.19 1979.84L1603.31 1980.61L1629.38 2137.69Z" fill="#273657"/>
<path opacity="0.78" d="M1545.23 1868.31C1531.13 1929.57 1520.3 1972.65 1520.3 1972.65L1407.74 2025.42C1409.27 2024.24 1507.06 1948.74 1545.02 1867.21L1545.23 1868.31Z" fill="#3E9A83"/>
<path opacity="0.78" d="M1451.91 2170.21C1390.42 2175.42 1330.98 2171.69 1307.22 2143.73C1281.73 2113.69 1276.1 2060.31 1283.87 1992.66C1288.45 2036.55 1301.46 2083.67 1333.31 2111.3C1372.39 2145.18 1418.22 2161.95 1451.91 2170.21Z" fill="#3E9A83"/>
<path d="M2284.4 1784.72L2231.88 2146.34L2225.88 2187.84C2224.67 2196.17 2220.5 2203.78 2214.13 2209.29C2207.77 2214.8 2199.63 2217.83 2191.21 2217.83H1682.6C1674.18 2217.83 1666.05 2214.8 1659.68 2209.29C1653.31 2203.78 1649.14 2196.17 1647.93 2187.84L1589.41 1784.73C1588.72 1780.06 1588.99 1775.3 1590.19 1770.74C1591.4 1766.17 1593.52 1761.9 1596.42 1758.18C1596.96 1757.49 1597.53 1756.83 1598.11 1756.17C1601.39 1752.54 1605.4 1749.64 1609.87 1747.66C1614.35 1745.67 1619.19 1744.66 1624.08 1744.67H2249.73C2254.76 1744.66 2259.72 1745.74 2264.29 1747.83C2268.86 1749.92 2272.93 1752.97 2276.22 1756.77C2279.51 1760.57 2281.94 1765.03 2283.35 1769.85C2284.76 1774.67 2285.12 1779.74 2284.4 1784.72Z" fill="#DFE9F4"/>
<path d="M2177.6 1873.12C2197.27 1873.12 2213.21 1857.18 2213.21 1837.51C2213.21 1817.84 2197.27 1801.9 2177.6 1801.9C2157.93 1801.9 2141.98 1817.84 2141.98 1837.51C2141.98 1857.18 2157.93 1873.12 2177.6 1873.12Z" fill="#92B1DD"/>
<path d="M2231.88 2146.34L2225.88 2187.84C2224.67 2196.17 2220.5 2203.78 2214.13 2209.29C2207.77 2214.8 2199.63 2217.83 2191.21 2217.83H1682.6C1674.18 2217.83 1666.05 2214.8 1659.68 2209.29C1653.31 2203.78 1649.14 2196.17 1647.93 2187.84L1589.41 1784.73C1588.72 1780.06 1588.99 1775.3 1590.19 1770.74C1591.4 1766.17 1593.52 1761.9 1596.42 1758.18L1649.42 1888.07C1649.42 1888.07 1724.45 1911.6 1768.36 1944.67C1812.27 1977.74 1714.24 2149.45 1714.24 2149.45C1714.24 2149.45 2050.69 2195.24 2164.54 2170.44C2192.31 2164.4 2214.37 2155.84 2231.88 2146.34Z" fill="#CEDBEE"/>
<path d="M1597.58 1994.56C1597.58 1994.56 1640.19 1925.88 1698.72 1922.7C1757.24 1919.52 1759.77 1936.05 1758.5 1946.86C1757.23 1957.67 1696.81 1960.85 1696.81 1960.85C1696.81 1960.85 1786.8 1947.17 1804.61 1964.36C1822.42 1981.54 1815.11 1988.85 1711.44 1997.11C1711.44 1997.11 1823.74 1989.79 1826.87 2012C1830 2034.2 1711.44 2039.06 1711.44 2039.06C1711.44 2039.06 1800.74 2022.82 1804.61 2048.28C1808.48 2073.75 1702.53 2084.22 1692.3 2086.17C1682.07 2088.12 1675.77 2142.77 1629.34 2137.68C1582.92 2132.59 1571.51 2028.3 1597.58 1994.56Z" fill="#FFB2A8"/>
<path d="M1690.11 1966.78C1687.96 1966.86 1685.86 1966.09 1684.28 1964.63C1682.69 1963.16 1681.76 1961.13 1681.67 1958.98C1681.59 1956.83 1682.36 1954.73 1683.83 1953.15C1685.29 1951.56 1687.32 1950.63 1689.47 1950.54L1761.99 1944.82C1764.14 1944.65 1766.27 1945.34 1767.92 1946.74C1769.56 1948.14 1770.58 1950.14 1770.75 1952.29C1770.92 1954.45 1770.23 1956.58 1768.83 1958.22C1767.42 1959.87 1765.43 1960.88 1763.27 1961.06L1690.76 1966.78H1690.11ZM1704.43 2005.26C1703.36 2005.28 1702.3 2005.1 1701.31 2004.72C1700.31 2004.33 1699.4 2003.76 1698.63 2003.02C1697.07 2001.53 1696.16 1999.49 1696.11 1997.34C1696.06 1995.18 1696.87 1993.1 1698.35 1991.54C1699.84 1989.98 1701.88 1989.07 1704.03 1989.02L1794.98 1984.57C1796.04 1984.52 1797.11 1984.68 1798.11 1985.04C1799.12 1985.4 1800.04 1985.95 1800.83 1986.67C1801.63 1987.38 1802.27 1988.25 1802.72 1989.21C1803.18 1990.18 1803.44 1991.22 1803.5 1992.29C1803.55 1993.36 1803.39 1994.42 1803.03 1995.43C1802.67 1996.43 1802.12 1997.36 1801.4 1998.15C1800.68 1998.94 1799.82 1999.58 1798.85 2000.04C1797.89 2000.49 1796.84 2000.75 1795.78 2000.81L1704.83 2005.26H1704.43ZM1707.61 2045.97C1705.45 2046.01 1703.37 2045.19 1701.82 2043.69C1700.28 2042.2 1699.38 2040.15 1699.35 2038C1699.31 2035.84 1700.13 2033.76 1701.62 2032.21C1703.12 2030.66 1705.17 2029.77 1707.32 2029.73L1795.09 2026.56C1797.24 2026.48 1799.33 2027.26 1800.91 2028.73C1802.49 2030.2 1803.42 2032.23 1803.5 2034.38C1803.57 2036.54 1802.79 2038.63 1801.32 2040.21C1799.85 2041.79 1797.82 2042.71 1795.67 2042.79L1707.9 2045.97H1707.61Z" fill="#F27C85"/>
<path d="M1885.7 564.288C1885.7 564.288 1791.57 477.789 1663.79 595.408C1536.02 713.026 1619.28 837.085 1619.28 837.085C1619.28 837.085 1490.16 868.881 1509.88 1041.87C1529.59 1214.85 1748.32 1271.5 1862.8 1240.92C1977.27 1210.34 1993.82 1239.65 1993.82 1239.65C1993.82 1239.65 2201.15 1277.17 2283.21 1108.64C2365.26 940.104 2193.52 855.513 2193.52 855.513C2193.52 855.513 2260.3 700.971 2168.72 585.22C2077.14 469.468 1934.67 503.862 1885.7 564.288Z" fill="#343A28"/>
<path d="M2017.77 1328.1C1983.43 1204.08 2013.32 1102.33 2013.32 1102.33L1930.23 1100.78V1100.42L1920.9 1100.6L1911.56 1100.42V1100.78L1828.48 1102.33C1828.48 1102.33 1858.37 1204.09 1824.03 1328.1C1789.69 1452.1 1900.99 1443.85 1900.99 1443.85L1920.93 1433.89L1940.86 1443.85C1940.86 1443.85 2052.11 1452.1 2017.77 1328.1Z" fill="#FFB2A8"/>
<path d="M1850.09 1110.58L1994.47 1134.11C1994.47 1134.11 1990.31 1212.59 1927.37 1209.48C1864.42 1206.37 1844.37 1131.57 1844.37 1131.57L1850.09 1110.58Z" fill="#F27C85"/>
<path d="M2236.69 1370.23C2173.79 1461.86 2058.37 1605.13 1953.1 1602.48C1842.99 1599.77 1695.24 1447.93 1619.37 1360.91C1630.2 1353.85 1641.48 1346.66 1653.05 1339.45C1748.2 1280.17 1861.52 1219.34 1861.52 1219.34L1920.97 1228.57L1980.42 1219.34C1980.42 1219.34 2101.32 1284.29 2198.27 1345.29C2211.67 1353.74 2224.59 1362.11 2236.69 1370.23Z" fill="white"/>
<path d="M2198.22 1339.41C2154.77 1409.13 2045.99 1565.95 1948.01 1563.4C1845.18 1560.7 1702.14 1394.41 1653.04 1333.39C1748.19 1272.5 1861.51 1210.03 1861.51 1210.03L1920.95 1219.5L1980.41 1210.03C1980.41 1210.03 2101.34 1276.7 2198.22 1339.41ZM2136.73 714.339C2136.73 714.339 2136.3 808.293 2132.55 903.586C2132.44 906.292 2132.34 909.093 2132.21 911.853C2131.51 929.009 2130.68 946.139 2129.74 962.673C2123.88 1064.99 2033.67 1152.7 1941.9 1164.83C1939.28 1165.71 1936.54 1166.17 1933.78 1166.18C1931.26 1166.18 1928.73 1166.18 1926.2 1166.09C1923.67 1165.99 1921.14 1166.21 1918.62 1166.18C1915.86 1166.16 1913.12 1165.71 1910.51 1164.83C1818.71 1152.65 1728.53 1064.99 1722.67 962.673C1721.72 946.139 1720.88 929.023 1720.19 911.853C1720.06 909.093 1719.95 906.337 1719.85 903.586C1716.1 808.306 1715.67 714.339 1715.67 714.339C1771.99 616.921 1871.28 614.472 1926.26 621.968C1981.11 614.472 2080.42 616.853 2136.73 714.339Z" fill="#FFB2A8"/>
<path d="M1700.61 848.545C1700.61 848.545 1831 793.856 1896.5 684.464C1896.5 684.464 2012.87 831.375 2147.75 842.767C2147.75 842.767 2206.88 586.464 1945.5 592.187C1684.12 597.911 1682.17 768.432 1700.61 848.545Z" fill="#343A28"/>
<path d="M2023.4 939.184C2034.64 939.184 2043.75 930.073 2043.75 918.835C2043.75 907.596 2034.64 898.485 2023.4 898.485C2012.16 898.485 2003.05 907.596 2003.05 918.835C2003.05 930.073 2012.16 939.184 2023.4 939.184Z" fill="#343A28"/>
<path d="M1982.69 869.869C1983.95 855.878 2017.04 847.611 2043.75 858.422C2070.46 869.233 2073.65 888.946 2058.37 885.077C2043.1 881.207 2017.04 876.174 1999.23 879.353C1981.42 882.533 1982.69 869.869 1982.69 869.869Z" fill="#343A28"/>
<path d="M1718.87 1009.78C1740.63 1000.19 1746.28 965.193 1731.48 931.611C1716.68 898.029 1687.04 878.578 1665.28 888.166C1643.52 897.753 1637.88 932.749 1652.68 966.332C1667.48 999.914 1697.11 1019.36 1718.87 1009.78Z" fill="#FFB2A8"/>
<path d="M1720.91 973.24C1713.97 962.605 1705.16 956.652 1699.04 959.344C1692.28 962.307 1691.1 974.769 1695.66 988.624C1684.83 985.701 1673.58 975.093 1666.99 960.21C1657.51 938.805 1661.15 916.494 1675.02 910.378C1688.89 904.262 1707.78 916.67 1717.21 938.074C1722.75 950.631 1723.78 963.552 1720.91 973.24Z" fill="#F27C85"/>
<path d="M2199.06 966.659C2213.85 933.077 2208.21 898.08 2186.45 888.493C2164.69 878.905 2135.05 898.356 2120.25 931.938C2105.46 965.52 2111.1 1000.52 2132.86 1010.1C2154.62 1019.69 2184.26 1000.24 2199.06 966.659Z" fill="#FFB2A8"/>
<path d="M2130.74 973.24C2137.68 962.605 2146.49 956.652 2152.62 959.344C2159.38 962.307 2160.56 974.769 2156 988.624C2166.83 985.701 2178.07 975.093 2184.66 960.21C2194.13 938.805 2190.51 916.494 2176.64 910.378C2162.77 904.262 2143.88 916.67 2134.43 938.074C2128.9 950.631 2127.86 963.552 2130.74 973.24Z" fill="#F27C85"/>
<path d="M1835.76 939.184C1847 939.184 1856.11 930.073 1856.11 918.835C1856.11 907.596 1847 898.485 1835.76 898.485C1824.52 898.485 1815.41 907.596 1815.41 918.835C1815.41 930.073 1824.52 939.184 1835.76 939.184Z" fill="#343A28"/>
<path d="M1876.49 869.869C1875.22 855.878 1842.15 847.611 1815.44 858.422C1788.73 869.233 1785.55 888.946 1800.81 885.131C1816.07 881.315 1842.15 876.228 1859.94 879.407C1877.73 882.587 1876.49 869.869 1876.49 869.869Z" fill="#343A28"/>
<path d="M1937.91 1018.65C1928.53 1018.65 1915.23 1016.97 1908.79 1008.4C1903.97 1001.99 1903.93 993.359 1908.68 982.697C1923.94 948.56 1920.41 880.016 1920.36 879.326C1920.24 878.661 1920.27 877.979 1920.43 877.325C1920.6 876.671 1920.9 876.06 1921.32 875.531C1921.74 875.003 1922.27 874.57 1922.87 874.26C1923.47 873.951 1924.13 873.772 1924.8 873.735C1925.48 873.698 1926.15 873.805 1926.78 874.048C1927.41 874.291 1927.98 874.665 1928.46 875.144C1928.93 875.624 1929.3 876.199 1929.54 876.831C1929.77 877.463 1929.87 878.138 1929.83 878.812C1929.99 881.721 1933.52 950.333 1917.34 986.594C1914.11 993.819 1913.78 999.231 1916.37 1002.65C1921.98 1010.12 1940.6 1009.42 1946.67 1008.54C1947.93 1008.36 1949.21 1008.69 1950.22 1009.45C1951.24 1010.21 1951.91 1011.34 1952.09 1012.6C1952.27 1013.85 1951.94 1015.13 1951.18 1016.15C1950.42 1017.16 1949.28 1017.83 1948.03 1018.01C1944.67 1018.43 1941.29 1018.64 1937.91 1018.65ZM1930.22 1068.24C1910.28 1068.24 1894.4 1052.3 1893.69 1051.61C1892.79 1050.71 1892.29 1049.49 1892.29 1048.22C1892.29 1046.96 1892.79 1045.74 1893.69 1044.84C1894.58 1043.94 1895.8 1043.44 1897.07 1043.44C1898.34 1043.44 1899.56 1043.94 1900.45 1044.84C1900.59 1044.98 1914.24 1058.62 1930.13 1058.62H1930.65C1938.66 1058.47 1946.08 1054.73 1952.68 1047.52C1953.11 1047.06 1953.62 1046.68 1954.18 1046.42C1954.75 1046.15 1955.36 1046 1955.99 1045.98C1956.62 1045.95 1957.24 1046.04 1957.83 1046.26C1958.42 1046.47 1958.96 1046.8 1959.42 1047.22C1959.88 1047.65 1960.26 1048.16 1960.52 1048.72C1960.79 1049.29 1960.94 1049.9 1960.97 1050.53C1960.99 1051.16 1960.9 1051.78 1960.68 1052.37C1960.47 1052.96 1960.14 1053.5 1959.72 1053.96C1951.26 1063.2 1941.53 1067.98 1930.78 1068.17L1930.22 1068.24Z" fill="#F27C85"/>
<path d="M1926.73 1091.83C1933.75 1091.83 1939.45 1089.98 1939.45 1087.69C1939.45 1085.41 1933.75 1083.55 1926.73 1083.55C1919.71 1083.55 1914.01 1085.41 1914.01 1087.69C1914.01 1089.98 1919.71 1091.83 1926.73 1091.83Z" fill="#F27C85"/>
<path d="M2944.37 3322.83C3049.39 3322.83 3134.53 3310.88 3134.53 3296.12C3134.53 3281.37 3049.39 3269.42 2944.37 3269.42C2839.34 3269.42 2754.2 3281.37 2754.2 3296.12C2754.2 3310.88 2839.34 3322.83 2944.37 3322.83Z" fill="#DFE9F4"/>
<path d="M2899.2 3411.24C2949.43 3411.24 2990.16 3403.55 2990.16 3394.07C2990.16 3384.59 2949.43 3376.9 2899.2 3376.9C2848.97 3376.9 2808.24 3384.59 2808.24 3394.07C2808.24 3403.55 2848.97 3411.24 2899.2 3411.24Z" fill="#DFE9F4"/>
<path d="M1901.91 3391.53C1936.33 3391.53 1964.24 3383.41 1964.24 3373.4C1964.24 3363.38 1936.33 3355.27 1901.91 3355.27C1867.49 3355.27 1839.59 3363.38 1839.59 3373.4C1839.59 3383.41 1867.49 3391.53 1901.91 3391.53Z" fill="#DFE9F4"/>
<path d="M1366.07 3322.85C1437.9 3322.85 1496.13 3314.16 1496.13 3303.44C1496.13 3292.73 1437.9 3284.04 1366.07 3284.04C1294.24 3284.04 1236.01 3292.73 1236.01 3303.44C1236.01 3314.16 1294.24 3322.85 1366.07 3322.85Z" fill="#DFE9F4"/>
<path d="M730.374 3408.7C855.07 3408.7 956.155 3396.74 956.155 3381.99C956.155 3367.24 855.07 3355.28 730.374 3355.28C605.679 3355.28 504.594 3367.24 504.594 3381.99C504.594 3396.74 605.679 3408.7 730.374 3408.7Z" fill="#DFE9F4"/>
<path d="M1801.14 1043.33C1831.54 1042.66 1855.73 1020.83 1855.16 994.562C1854.58 968.294 1829.47 947.538 1799.06 948.202C1768.65 948.866 1744.46 970.699 1745.04 996.966C1745.61 1023.23 1770.73 1043.99 1801.14 1043.33Z" fill="#FC9E8B"/>
<path d="M2046.14 1046.33C2076.54 1045.66 2100.73 1023.83 2100.16 997.562C2099.58 971.294 2074.47 950.538 2044.06 951.202C2013.65 951.866 1989.46 973.699 1990.04 999.966C1990.61 1026.23 2015.73 1046.99 2046.14 1046.33Z" fill="#FC9E8B"/>
<path d="M2121.56 903.572C2120.54 882.127 2111.4 861.874 2095.99 846.921C2080.58 831.967 2060.06 823.432 2038.6 823.047C2017.13 822.661 1996.32 830.454 1980.38 844.845C1964.45 859.235 1954.59 879.147 1952.79 900.542C1943.01 894.786 1931.43 892.881 1920.32 895.197C1916.79 895.947 1913.35 897.077 1910.06 898.566C1907.74 877.421 1897.54 857.926 1881.49 843.964C1865.44 830.003 1844.72 822.6 1823.46 823.232C1802.19 823.863 1781.95 832.482 1766.75 847.371C1751.56 862.261 1742.53 882.327 1741.48 903.572H1719.83C1719.93 906.278 1720.04 909.079 1720.16 911.839H1741.5C1742.19 934.17 1751.69 955.321 1767.92 970.676C1784.15 986.03 1805.79 994.342 1828.13 993.795C1850.46 993.248 1871.68 983.888 1887.14 967.758C1902.6 951.627 1911.05 930.037 1910.64 907.699V907.537C1916.78 904.059 1933.79 896.875 1952.59 910.148C1953.26 931.976 1962.35 952.699 1977.95 967.98C1993.55 983.262 2014.46 991.917 2036.3 992.136C2058.14 992.354 2079.21 984.119 2095.12 969.153C2111.02 954.187 2120.52 933.65 2121.63 911.839H2132.27C2132.38 909.079 2132.5 906.324 2132.61 903.572H2121.56ZM1825.92 984.023C1810.83 984.023 1796.07 979.546 1783.52 971.159C1770.96 962.772 1761.18 950.851 1755.4 936.904C1749.63 922.957 1748.12 907.61 1751.06 892.804C1754.01 877.998 1761.28 864.399 1771.95 853.725C1782.63 843.051 1796.23 835.783 1811.04 832.84C1825.85 829.896 1841.2 831.41 1855.14 837.189C1869.09 842.968 1881.01 852.752 1889.39 865.306C1897.78 877.859 1902.25 892.617 1902.25 907.713C1902.23 927.947 1894.18 947.347 1879.87 961.653C1865.56 975.96 1846.16 984.005 1825.92 984.023ZM2037.01 984.023C2021.91 984.021 2007.16 979.542 1994.6 971.153C1982.05 962.764 1972.27 950.842 1966.5 936.895C1960.72 922.947 1959.21 907.601 1962.16 892.796C1965.11 877.991 1972.38 864.392 1983.06 853.72C1993.74 843.048 2007.34 835.781 2022.14 832.839C2036.95 829.897 2052.3 831.411 2066.24 837.19C2080.19 842.969 2092.11 852.754 2100.49 865.307C2108.88 877.86 2113.35 892.617 2113.35 907.713C2113.32 927.929 2105.28 947.31 2091 961.612C2076.71 975.915 2057.33 983.973 2037.12 984.023H2037.01Z" fill="white"/>
<path d="M223.361 2562.84C223.361 2562.84 543.342 2600.98 798.705 2837.52C1054.07 3074.06 914.484 3203.02 914.484 3203.02C914.484 3203.02 796.574 3352.05 541.212 3115.51C285.844 2878.97 223.361 2562.84 223.361 2562.84Z" fill="#4D6BCE"/>
<path d="M917.444 3205.76C917.918 3205.25 918.169 3204.57 918.143 3203.87C918.116 3203.18 917.814 3202.52 917.303 3202.04L287.581 2618.74C287.328 2618.51 287.031 2618.33 286.707 2618.2C286.382 2618.08 286.038 2618.03 285.692 2618.04C285.347 2618.06 285.007 2618.14 284.693 2618.28C284.379 2618.43 284.096 2618.63 283.861 2618.88C283.626 2619.14 283.444 2619.44 283.324 2619.76C283.204 2620.08 283.149 2620.43 283.163 2620.77C283.176 2621.12 283.258 2621.46 283.403 2621.77C283.547 2622.09 283.753 2622.37 284.007 2622.6L913.728 3205.9C913.982 3206.14 914.278 3206.32 914.602 3206.44C914.926 3206.56 915.271 3206.62 915.616 3206.6C915.961 3206.59 916.3 3206.51 916.614 3206.36C916.927 3206.22 917.21 3206.01 917.444 3205.76Z" fill="white"/>
<path d="M438.247 2763.23C437.386 2763.64 370.768 2794.4 304.307 2789.2C303.429 2787.37 302.552 2785.54 301.693 2783.73C367.567 2790.06 435.149 2758.87 436.007 2758.47L438.247 2763.23Z" fill="white"/>
<path d="M320.528 2654.19C299.89 2663.18 278.391 2670.04 256.363 2674.68C255.762 2673.01 255.181 2671.36 254.601 2669.72C276.468 2665.15 297.809 2658.35 318.289 2649.43L320.528 2654.19Z" fill="white"/>
<path d="M500.175 2820.59C499.148 2821.08 412.524 2861.11 333.795 2846.59C332.688 2844.57 331.601 2842.56 330.511 2840.54C408.499 2857.11 496.909 2816.32 497.936 2815.83L500.175 2820.59Z" fill="white"/>
<path d="M767.22 3067.95C765.753 3068.64 640.016 3126.76 528.247 3103.26C525.809 3100.92 523.404 3098.56 521 3096.2C632.846 3124.24 763.495 3063.89 764.981 3063.19L767.22 3067.95Z" fill="white"/>
<path d="M863.711 3154.64L865.95 3159.41C864.571 3160.05 753.664 3211.3 647.616 3198.13C644.033 3195.92 640.413 3193.62 636.756 3191.23C744.41 3209.76 862.301 3155.31 863.711 3154.64Z" fill="white"/>
<path d="M605.077 2916.6C603.782 2917.21 499.43 2965.43 399.834 2952.83C398.469 2950.88 397.142 2948.94 395.793 2947C495.082 2961.62 601.543 2912.45 602.837 2911.84L605.077 2916.6Z" fill="white"/>
<path d="M409.33 2609.43C410.609 2665.68 391.599 2716.81 391.308 2717.58L386.39 2715.71C386.678 2714.95 405.813 2663.44 404.064 2607.63C405.804 2608.22 407.573 2608.83 409.33 2609.43Z" fill="white"/>
<path d="M467.13 2787.81L462.211 2785.94C462.585 2784.96 491.358 2707.52 478.394 2635.55C480.305 2636.33 482.214 2637.13 484.136 2637.94C495.899 2710.54 467.504 2786.83 467.13 2787.81Z" fill="white"/>
<path d="M703.267 3006.54L698.348 3004.67C698.912 3003.18 746.186 2876.21 715.661 2768.74C717.923 2770.41 720.184 2772.1 722.444 2773.81C749.785 2881.61 703.827 3005.06 703.267 3006.54Z" fill="white"/>
<path d="M831.189 3127.72C831.762 3126.2 880.846 2994.29 846.644 2885.59C849.391 2888.59 852.072 2891.57 854.687 2894.53C883.304 3002.87 836.671 3128.1 836.107 3129.59L831.189 3127.72Z" fill="white"/>
<path d="M587.142 2687.17C589.069 2688.21 590.998 2689.27 592.926 2690.33C607.185 2784.81 570.597 2883.09 570.111 2884.36L565.192 2882.49C565.673 2881.22 602.862 2781.29 587.142 2687.17Z" fill="white"/>
<path d="M1088.49 2654.46C1290.34 3130.92 1022.44 3220.56 1022.44 3220.56C1022.44 3220.56 771.681 3350.65 569.83 2874.19C367.984 2397.74 476.162 1931.08 476.162 1931.08C476.162 1931.08 886.648 2178.01 1088.49 2654.46Z" fill="#FABF44"/>
<path d="M1024.78 3226.08C1024.31 3226.28 1023.8 3226.39 1023.29 3226.39C1022.77 3226.4 1022.26 3226.3 1021.79 3226.11C1021.31 3225.91 1020.88 3225.63 1020.51 3225.27C1020.15 3224.91 1019.86 3224.48 1019.65 3224.01L521.908 2049.09C521.707 2048.62 521.601 2048.11 521.597 2047.6C521.592 2047.08 521.689 2046.57 521.881 2046.1C522.074 2045.62 522.359 2045.19 522.719 2044.82C523.079 2044.45 523.508 2044.16 523.982 2043.96C524.455 2043.76 524.963 2043.65 525.477 2043.65C525.991 2043.65 526.5 2043.74 526.976 2043.94C527.453 2044.13 527.886 2044.42 528.252 2044.78C528.618 2045.14 528.91 2045.57 529.109 2046.04L1026.86 3220.96C1027.26 3221.91 1027.27 3222.99 1026.88 3223.95C1026.49 3224.91 1025.74 3225.68 1024.78 3226.08Z" fill="white"/>
<path d="M907.919 2946.48C909.621 2944.77 1054.35 2798.29 1077.91 2630.16C1075.86 2625.56 1073.78 2621.01 1071.69 2616.46C1054.44 2787 904.115 2939.21 902.391 2940.94L907.919 2946.48Z" fill="white"/>
<path d="M980.43 3125.15L985.957 3130.68C987.554 3129.08 1115.2 2999.88 1150.31 2844.95C1149.02 2838.82 1147.64 2832.6 1146.15 2826.28C1117.71 2986.16 982.068 3123.51 980.43 3125.15Z" fill="white"/>
<path d="M778.13 2643.36C779.633 2641.86 899.731 2520.29 932.384 2374.67C930.355 2371.78 928.307 2368.95 926.267 2366.08C896.595 2512.29 774.11 2636.33 772.602 2637.83L778.13 2643.36Z" fill="white"/>
<path d="M854.327 2826.06L854.197 2818.23C851.831 2818.27 650.432 2820.28 515.565 2723.35C516.77 2727.37 517.994 2731.38 519.237 2735.4C656.17 2828.04 851.979 2826.09 854.327 2826.06Z" fill="white"/>
<path d="M959.198 3066.09C956.786 3066.12 747.57 3068.17 612.841 2965.48C615.649 2970.84 618.46 2976.09 621.274 2981.24C758.324 3075.94 956.962 3073.95 959.329 3073.91L959.198 3066.09Z" fill="white"/>
<path d="M466.38 2502.48C466.864 2505.7 467.374 2508.94 467.878 2512.17C592.794 2579.79 748.679 2578.24 750.706 2578.21L750.574 2570.38C748.542 2570.41 590.051 2571.97 466.38 2502.48Z" fill="white"/>
<path d="M1570.24 2238.47C1570.24 2238.47 1620.78 2606.97 1430.92 2961.05C1241.05 3315.14 1056.39 3196.76 1056.39 3196.76C1056.39 3196.76 855.603 3108.45 1045.47 2754.37C1075.15 2699.18 1109.27 2646.49 1147.48 2596.82C1335.35 2351.99 1570.24 2238.47 1570.24 2238.47Z" fill="url(#paint1_linear_1_5156)"/>
<path d="M1054.18 3200.87C1053.48 3200.49 1052.95 3199.84 1052.71 3199.07C1052.48 3198.3 1052.56 3197.47 1052.94 3196.76L1521.14 2323.6C1521.52 2322.89 1522.17 2322.36 1522.94 2322.13C1523.71 2321.9 1524.54 2321.98 1525.25 2322.36C1525.96 2322.74 1526.49 2323.39 1526.73 2324.16C1526.96 2324.93 1526.88 2325.77 1526.49 2326.48L1058.3 3199.63C1058.11 3199.98 1057.85 3200.29 1057.54 3200.54C1057.24 3200.8 1056.88 3200.99 1056.5 3201.1C1056.12 3201.22 1055.72 3201.26 1055.32 3201.22C1054.92 3201.18 1054.54 3201.06 1054.18 3200.87Z" fill="white"/>
<path d="M1410.97 2537.89C1412.06 2538.01 1496.33 2546.57 1566.91 2515.92C1567.18 2513.6 1567.45 2511.28 1567.71 2508.98C1498.19 2540.63 1412.72 2531.97 1411.63 2531.86L1410.97 2537.89Z" fill="white"/>
<path d="M1364.93 2623.76C1366.23 2623.9 1475.81 2635.06 1556.28 2589.64C1556.73 2587.02 1557.16 2584.41 1557.59 2581.81C1478.7 2629.17 1366.89 2617.87 1365.58 2617.72L1364.93 2623.76Z" fill="white"/>
<path d="M1166.38 2994.04C1168.24 2994.24 1327.3 3010.44 1440.46 2942.82C1442.24 2939.34 1443.98 2935.86 1445.72 2932.38C1334.18 3004.99 1168.92 2988.2 1167.03 2988L1166.38 2994.04Z" fill="white"/>
<path d="M1093.63 3124.9L1092.98 3130.94C1094.72 3131.12 1235.02 3145.4 1345.81 3091.19C1348.89 3087.43 1351.98 3083.56 1355.08 3079.59C1244.54 3140.24 1095.42 3125.09 1093.63 3124.9Z" fill="white"/>
<path d="M1286.5 2767.94C1288.14 2768.12 1420.14 2781.56 1524.11 2730.4C1524.87 2727.76 1525.59 2725.14 1526.33 2722.51C1423.46 2775.76 1288.8 2762.09 1287.15 2761.91L1286.5 2767.94Z" fill="white"/>
<path d="M1384.76 2359.17C1404.5 2421.05 1444.45 2469.71 1445.05 2470.44L1449.72 2466.55C1449.12 2465.83 1408.89 2416.79 1389.83 2355.23C1388.16 2356.52 1386.46 2357.86 1384.76 2359.17Z" fill="white"/>
<path d="M1388.68 2575.57L1393.35 2571.68C1392.57 2570.76 1332.08 2497.04 1319.19 2413.62C1317.41 2415.19 1315.62 2416.78 1313.83 2418.38C1328.26 2502.04 1387.9 2574.64 1388.68 2575.57Z" fill="white"/>
<path d="M1213.11 2902.99L1217.78 2899.1C1216.6 2897.69 1117.31 2776.87 1110.26 2648.1C1108.43 2650.78 1106.6 2653.48 1104.77 2656.19C1115.42 2784.11 1211.95 2901.59 1213.11 2902.99Z" fill="white"/>
<path d="M1219.89 2510.8C1218.18 2512.66 1216.48 2514.54 1214.77 2516.42C1234.7 2624.9 1311.54 2718.42 1312.55 2719.63L1317.22 2715.74C1316.21 2714.53 1238.09 2619.44 1219.89 2510.8Z" fill="white"/>
<path d="M3034.04 3238.26H475.299C458.432 3238.26 442.256 3231.56 430.33 3219.63C418.403 3207.7 411.703 3191.53 411.703 3174.66H3097.63C3097.63 3191.53 3090.93 3207.7 3079.01 3219.63C3067.08 3231.56 3050.9 3238.26 3034.04 3238.26ZM1132.59 3321.56H500.521C493.7 3321.57 486.945 3320.23 480.641 3317.63C474.337 3315.02 468.609 3311.2 463.783 3306.38C458.958 3301.56 455.13 3295.83 452.518 3289.53C449.906 3283.23 448.561 3276.48 448.561 3269.66V3257.97H1184.44V3269.66C1184.44 3283.42 1178.98 3296.61 1169.26 3306.34C1159.53 3316.07 1146.34 3321.55 1132.59 3321.56ZM1704.75 3429.68H1096.08C1079.21 3429.68 1063.04 3422.98 1051.11 3411.06C1039.18 3399.13 1032.48 3382.96 1032.48 3366.09H1768.36C1768.36 3374.44 1766.72 3382.71 1763.52 3390.43C1760.32 3398.15 1755.64 3405.16 1749.73 3411.06C1743.82 3416.97 1736.81 3421.65 1729.09 3424.85C1721.38 3428.04 1713.1 3429.68 1704.75 3429.68ZM2691.21 3429.68H2082.54C2065.67 3429.68 2049.5 3422.98 2037.57 3411.06C2025.64 3399.13 2018.94 3382.96 2018.94 3366.09H2754.82C2754.82 3374.44 2753.18 3382.71 2749.98 3390.43C2746.78 3398.15 2742.1 3405.16 2736.19 3411.06C2730.28 3416.97 2723.27 3421.65 2715.55 3424.85C2707.84 3428.04 2699.56 3429.68 2691.21 3429.68ZM2636.13 3321.56H1555.67C1541.9 3321.56 1528.7 3316.09 1518.97 3306.36C1509.23 3296.62 1503.76 3283.42 1503.76 3269.66V3257.97H2688.05V3269.66C2688.04 3283.43 2682.57 3296.63 2672.83 3306.36C2663.1 3316.09 2649.89 3321.56 2636.13 3321.56Z" fill="#DFE9F4"/>
<path d="M3099.54 3156.21H388.199C384.32 3156.21 380.599 3157.75 377.856 3160.49C375.113 3163.24 373.572 3166.96 373.572 3170.84C373.572 3174.71 375.113 3178.43 377.856 3181.18C380.599 3183.92 384.32 3185.46 388.199 3185.46H3099.55C3103.43 3185.46 3107.15 3183.92 3109.9 3181.18C3112.64 3178.43 3114.18 3174.71 3114.18 3170.84C3114.18 3166.95 3112.63 3163.23 3109.89 3160.49C3107.14 3157.75 3103.42 3156.21 3099.54 3156.21ZM1221.37 3282.41H438.427C431.608 3282.41 425.069 3279.7 420.247 3274.88C415.426 3270.05 412.717 3263.52 412.717 3256.7C412.717 3249.88 415.426 3243.34 420.247 3238.52C425.069 3233.7 431.608 3230.99 438.427 3230.99H1221.37C1228.18 3230.99 1234.72 3233.7 1239.54 3238.52C1244.37 3243.34 1247.07 3249.88 1247.07 3256.7C1247.07 3263.52 1244.37 3270.05 1239.54 3274.88C1234.72 3279.7 1228.18 3282.41 1221.37 3282.41ZM2702.67 3272.87H1483.41C1476.59 3272.87 1470.05 3270.16 1465.23 3265.34C1460.41 3260.52 1457.7 3253.98 1457.7 3247.16C1457.7 3240.34 1460.41 3233.8 1465.23 3228.98C1470.05 3224.16 1476.59 3221.45 1483.41 3221.45H2702.67C2709.49 3221.45 2716.03 3224.16 2720.85 3228.98C2725.67 3233.8 2728.38 3240.34 2728.38 3247.16C2728.38 3253.98 2725.67 3260.52 2720.85 3265.34C2716.03 3270.16 2709.49 3272.87 2702.67 3272.87ZM1800.16 3395.61H993.054C986.236 3395.61 979.697 3392.9 974.875 3388.08C970.054 3383.26 967.345 3376.72 967.345 3369.91C967.345 3363.09 970.054 3356.55 974.875 3351.73C979.697 3346.91 986.236 3344.2 993.054 3344.2H1800.16C1806.98 3344.2 1813.52 3346.91 1818.34 3351.73C1823.16 3356.55 1825.87 3363.09 1825.87 3369.91C1825.87 3376.72 1823.16 3383.26 1818.34 3388.08C1813.52 3392.9 1806.98 3395.61 1800.16 3395.61ZM2756.73 3395.61H2006.23C1999.41 3395.61 1992.87 3392.9 1988.05 3388.08C1983.22 3383.26 1980.52 3376.72 1980.52 3369.91C1980.52 3363.09 1983.22 3356.55 1988.05 3351.73C1992.87 3346.91 1999.41 3344.2 2006.23 3344.2H2756.73C2763.55 3344.2 2770.09 3346.91 2774.91 3351.73C2779.73 3356.55 2782.44 3363.09 2782.44 3369.91C2782.44 3376.72 2779.73 3383.26 2774.91 3388.08C2770.09 3392.9 2763.55 3395.61 2756.73 3395.61Z" fill="#92B1DD"/>
<defs>
<filter id="filter0_d_1_5156" x="2196.77" y="2191" width="742.639" height="1078.69" filterUnits="userSpaceOnUse" color-interpolation-filters="sRGB">
<feFlood flood-opacity="0" result="BackgroundImageFix"/>
<feColorMatrix in="SourceAlpha" type="matrix" values="0 0 0 0 0 0 0 0 0 0 0 0 0 0 0 0 0 0 127 0" result="hardAlpha"/>
<feOffset dy="4"/>
<feGaussianBlur stdDeviation="2"/>
<feComposite in2="hardAlpha" operator="out"/>
<feColorMatrix type="matrix" values="0 0 0 0 0 0 0 0 0 0 0 0 0 0 0 0 0 0 0.25 0"/>
<feBlend mode="normal" in2="BackgroundImageFix" result="effect1_dropShadow_1_5156"/>
<feBlend mode="normal" in="SourceGraphic" in2="effect1_dropShadow_1_5156" result="shape"/>
</filter>
<filter id="filter1_d_1_5156" x="2196.77" y="2191" width="742.639" height="1078.69" filterUnits="userSpaceOnUse" color-interpolation-filters="sRGB">
<feFlood flood-opacity="0" result="BackgroundImageFix"/>
<feColorMatrix in="SourceAlpha" type="matrix" values="0 0 0 0 0 0 0 0 0 0 0 0 0 0 0 0 0 0 127 0" result="hardAlpha"/>
<feOffset dy="4"/>
<feGaussianBlur stdDeviation="2"/>
<feComposite in2="hardAlpha" operator="out"/>
<feColorMatrix type="matrix" values="0 0 0 0 0 0 0 0 0 0 0 0 0 0 0 0 0 0 0.25 0"/>
<feBlend mode="normal" in2="BackgroundImageFix" result="effect1_dropShadow_1_5156"/>
<feBlend mode="normal" in="SourceGraphic" in2="effect1_dropShadow_1_5156" result="shape"/>
</filter>
<filter id="filter2_d_1_5156" x="2196.77" y="2191" width="742.639" height="1078.69" filterUnits="userSpaceOnUse" color-interpolation-filters="sRGB">
<feFlood flood-opacity="0" result="BackgroundImageFix"/>
<feColorMatrix in="SourceAlpha" type="matrix" values="0 0 0 0 0 0 0 0 0 0 0 0 0 0 0 0 0 0 127 0" result="hardAlpha"/>
<feOffset dy="4"/>
<feGaussianBlur stdDeviation="2"/>
<feComposite in2="hardAlpha" operator="out"/>
<feColorMatrix type="matrix" values="0 0 0 0 0 0 0 0 0 0 0 0 0 0 0 0 0 0 0.25 0"/>
<feBlend mode="normal" in2="BackgroundImageFix" result="effect1_dropShadow_1_5156"/>
<feBlend mode="normal" in="SourceGraphic" in2="effect1_dropShadow_1_5156" result="shape"/>
</filter>
<filter id="filter3_d_1_5156" x="2196.77" y="2191" width="742.639" height="1078.69" filterUnits="userSpaceOnUse" color-interpolation-filters="sRGB">
<feFlood flood-opacity="0" result="BackgroundImageFix"/>
<feColorMatrix in="SourceAlpha" type="matrix" values="0 0 0 0 0 0 0 0 0 0 0 0 0 0 0 0 0 0 127 0" result="hardAlpha"/>
<feOffset dy="4"/>
<feGaussianBlur stdDeviation="2"/>
<feComposite in2="hardAlpha" operator="out"/>
<feColorMatrix type="matrix" values="0 0 0 0 0 0 0 0 0 0 0 0 0 0 0 0 0 0 0.25 0"/>
<feBlend mode="normal" in2="BackgroundImageFix" result="effect1_dropShadow_1_5156"/>
<feBlend mode="normal" in="SourceGraphic" in2="effect1_dropShadow_1_5156" result="shape"/>
</filter>
<linearGradient id="paint0_linear_1_5156" x1="1862.05" y1="2361.91" x2="2317.12" y2="3184.7" gradientUnits="userSpaceOnUse">
<stop stop-color="#F88C6E"/>
<stop offset="1" stop-color="#FF5C60"/>
</linearGradient>
<linearGradient id="paint1_linear_1_5156" x1="1659.1" y1="2306.65" x2="1004.51" y2="3159.77" gradientUnits="userSpaceOnUse">
<stop stop-color="#F88C6E"/>
<stop offset="1" stop-color="#FF5C60"/>
</linearGradient>
</defs>
</svg>
