<svg width="3890" height="2913" viewBox="0 0 3890 2913" fill="none" xmlns="http://www.w3.org/2000/svg">
<path d="M2633.33 2702.04C2633.33 2702.04 2251.73 2222 2410.18 2159.44C2568.62 2096.87 2708.99 2691.9 2708.99 2691.9L2633.33 2702.04Z" fill="url(#paint0_linear_1_5018)"/>
<g opacity="0.61">
<path d="M2443.89 2236.21C2449.02 2244.29 2453.96 2252.47 2458.88 2260.66C2471.9 2282.33 2484.54 2304.19 2496.79 2326.24C2514.25 2357.56 2531 2389.2 2547.04 2421.16C2565.62 2458.3 2583.16 2495.89 2599.19 2534.02C2615.7 2573.29 2630.68 2613.16 2642.87 2653.75C2644.32 2658.55 2645.72 2663.37 2647.08 2668.19C2648.24 2672.3 2641.41 2674.46 2640.25 2670.33C2628.88 2630.1 2614.64 2590.59 2598.78 2551.67C2583.03 2513.02 2565.64 2474.93 2547.16 2437.32C2531.01 2404.46 2514.05 2371.96 2496.27 2339.8C2483.4 2316.47 2470.14 2293.32 2456.48 2270.36C2450.48 2260.3 2443.84 2250.46 2438.13 2240.26C2438.05 2240.13 2437.96 2240 2437.88 2239.87C2435.55 2236.2 2441.55 2232.52 2443.89 2236.21Z" fill="#65E0A8"/>
<path d="M2511.54 2233.88C2515.78 2259.53 2516.03 2286.14 2514.12 2311.95C2513.22 2324.64 2511.48 2337.27 2508.93 2349.77C2508.06 2353.96 2500.98 2352.65 2501.85 2348.46C2509.07 2313.55 2509.61 2277.28 2505.38 2242C2505.08 2239.44 2504.76 2236.88 2504.34 2234.34C2503.64 2230.12 2510.85 2229.7 2511.54 2233.88Z" fill="#65E0A8"/>
<path d="M2432.64 2317.6C2436.79 2324.07 2441.97 2330.08 2447.23 2335.79C2459.65 2349.37 2474.23 2361.15 2490.49 2370.73C2502.2 2377.62 2514.83 2383.11 2528.05 2387.08C2532.42 2388.38 2531.04 2394.88 2526.62 2393.57C2488.28 2382.2 2455.02 2358.22 2431.71 2328.26C2429.94 2325.99 2428.18 2323.68 2426.63 2321.26C2424.28 2317.6 2430.28 2313.92 2432.64 2317.6Z" fill="#65E0A8"/>
<path d="M2584.09 2371.83C2585.72 2382.2 2585.73 2392.93 2585.31 2403.37C2584.36 2427.14 2579.69 2450.63 2570.7 2472.96C2569.09 2476.95 2562.66 2473.93 2564.25 2469.97C2572.99 2448.29 2577.43 2425.13 2578.17 2402.04C2578.49 2392.18 2578.42 2382.08 2576.89 2372.29C2576.23 2368.07 2583.44 2367.64 2584.09 2371.83Z" fill="#65E0A8"/>
<path d="M2519.13 2472.08C2524.83 2479 2531.71 2485.26 2538.63 2491.24C2555.83 2506.11 2575.14 2518.77 2596.04 2528.9C2600.13 2530.89 2596.9 2536.81 2592.78 2534.81C2564.43 2521.07 2538.18 2502.66 2517.23 2480.32C2515.82 2478.82 2514.42 2477.31 2513.12 2475.74C2510.31 2472.33 2516.34 2468.69 2519.13 2472.08Z" fill="#65E0A8"/>
</g>
<path d="M2657.06 2633.14C2657.06 2633.14 2520.2 2546.79 2474.06 2493.4C2427.91 2440.01 2307.38 2354.95 2276.74 2397.91C2246.09 2440.88 2315.5 2611.54 2494.24 2651.53L2657.32 2644.11L2657.06 2633.14Z" fill="url(#paint1_linear_1_5018)"/>
<g opacity="0.6">
<path d="M2335.42 2445.68C2351.83 2464.59 2369.91 2482.41 2388.27 2499.73C2427.63 2536.85 2470.24 2571.7 2517.22 2600.55C2545.4 2617.86 2575.36 2633.08 2607.32 2643.69C2611.41 2645.04 2608.32 2650.58 2604.26 2649.23C2547.16 2630.29 2496.15 2597.3 2450.17 2561.5C2413.71 2533 2379.59 2502.07 2348.08 2468.97C2341.86 2462.45 2335.65 2455.9 2329.77 2449.11C2327.05 2445.98 2332.72 2442.56 2335.42 2445.68Z" fill="#65E0A8"/>
<path d="M2321.53 2496.79C2344.63 2510.88 2369.65 2522.12 2395.94 2530.22C2407 2533.67 2418.4 2536.1 2429.98 2537.48C2434.31 2537.96 2432.94 2544.05 2428.64 2543.57C2408.01 2541.28 2388.05 2534.93 2369.11 2527.29C2354.43 2521.35 2340.19 2514.55 2326.46 2506.93C2323.77 2505.44 2321.09 2503.93 2318.47 2502.34C2314.88 2500.16 2317.89 2494.58 2321.53 2496.79Z" fill="#65E0A8"/>
<path d="M2446.91 2492.2C2462.9 2509.62 2474.92 2531.27 2483.2 2552.58C2487.39 2563.37 2490.49 2574.49 2492.44 2585.8C2493.12 2589.75 2486.35 2590.15 2485.67 2586.23C2480.38 2555.54 2465.77 2525.97 2445.76 2500.98C2444.31 2499.17 2442.84 2497.36 2441.26 2495.64C2438.45 2492.58 2444.12 2489.17 2446.91 2492.2Z" fill="#65E0A8"/>
<path d="M2435.66 2595.9C2442.08 2599.22 2449.02 2601.8 2455.85 2604.25C2474.67 2610.88 2494.1 2615.92 2513.91 2619.32C2529.67 2622.09 2545.58 2624.03 2561.58 2625.11C2565.92 2625.41 2564.54 2631.5 2560.24 2631.2C2519.08 2628.34 2476.87 2620.66 2439.27 2604.51C2437.02 2603.55 2434.77 2602.57 2432.6 2601.45C2428.82 2599.49 2431.85 2593.93 2435.66 2595.9Z" fill="#65E0A8"/>
</g>
<path d="M2699.08 2695.06C2699.08 2695.06 3340.94 2107.35 3150.48 1975.31C2960.02 1843.28 2602.4 2660.36 2602.4 2660.36L2699.08 2695.06Z" fill="url(#paint2_linear_1_5018)"/>
<path d="M2699.08 2695.06C2699.08 2695.06 3340.94 2107.35 3150.48 1975.31C2960.02 1843.28 2602.4 2660.36 2602.4 2660.36L2699.08 2695.06Z" fill="url(#paint3_linear_1_5018)"/>
<g opacity="0.61">
<path d="M3083.79 2076.59C3074.69 2086.82 3065.81 2097.25 3056.96 2107.7C3033.52 2135.35 3010.53 2163.38 2987.99 2191.78C2955.91 2232.1 2924.67 2273.08 2894.27 2314.71C2859.01 2363.09 2825 2412.4 2792.82 2462.88C2759.68 2514.88 2728.38 2568.14 2700.54 2623.18C2697.24 2629.69 2694 2636.23 2690.8 2642.8C2688.08 2648.39 2696.44 2653.31 2699.18 2647.69C2725.82 2592.95 2756.05 2539.99 2788.24 2488.33C2820.2 2437.02 2854.15 2386.96 2889.42 2337.87C2920.23 2294.99 2952 2252.83 2984.74 2211.39C3008.46 2181.31 3032.65 2151.61 3057.3 2122.27C3068.12 2109.42 3079.72 2097.06 3090.21 2083.94C3090.35 2083.77 3090.5 2083.61 3090.65 2083.44C3094.78 2078.79 3087.95 2071.91 3083.79 2076.59Z" fill="#65E0A8"/>
<path d="M2995.39 2055.23C2982.37 2090.93 2974.31 2129.07 2969.32 2166.65C2966.83 2185.11 2965.45 2203.71 2965.18 2222.34C2965.11 2228.58 2974.81 2228.59 2974.88 2222.34C2975.51 2170.28 2985.34 2118.06 3001.15 2068.52C3002.29 2064.93 3003.45 2061.34 3004.74 2057.8C3006.89 2051.93 2997.52 2049.4 2995.39 2055.23Z" fill="#65E0A8"/>
<path d="M3074.97 2196.46C3067.63 2204.64 3059.07 2211.89 3050.48 2218.69C3030.18 2234.88 3007.56 2247.91 2983.37 2257.34C2965.95 2264.11 2947.73 2268.64 2929.16 2270.82C2923.03 2271.52 2922.96 2281.23 2929.16 2280.52C2982.95 2274.4 3033.7 2248.82 3073.1 2212.01C3076.1 2209.22 3079.09 2206.37 3081.82 2203.31C3085.98 2198.68 3079.14 2191.8 3074.97 2196.46Z" fill="#65E0A8"/>
<path d="M2859.81 2234C2854.65 2248.46 2851.52 2263.86 2849.04 2278.97C2843.4 2313.35 2842.71 2348.33 2848.08 2382.79C2849.03 2388.94 2858.38 2386.33 2857.43 2380.21C2852.22 2346.74 2853.09 2312.3 2858.83 2278.96C2861.27 2264.72 2864.3 2250.23 2869.16 2236.58C2871.25 2230.69 2861.89 2228.15 2859.81 2234Z" fill="#65E0A8"/>
<path d="M2916.23 2395.25C2906.71 2403.67 2895.83 2410.83 2884.98 2417.58C2858.02 2434.34 2828.92 2447.39 2798.46 2456.37C2792.49 2458.13 2795.03 2467.49 2801.04 2465.72C2842.36 2453.54 2882.26 2434.09 2916.34 2407.59C2918.63 2405.81 2920.91 2404.03 2923.08 2402.11C2927.77 2397.96 2920.89 2391.12 2916.23 2395.25Z" fill="#65E0A8"/>
</g>
<g opacity="0.61">
<path d="M3083.79 2076.59C3074.69 2086.82 3065.81 2097.25 3056.96 2107.7C3033.52 2135.35 3010.53 2163.38 2987.99 2191.78C2955.91 2232.1 2924.67 2273.08 2894.27 2314.71C2859.01 2363.09 2825 2412.4 2792.82 2462.88C2759.68 2514.88 2728.38 2568.14 2700.54 2623.18C2697.24 2629.69 2694 2636.23 2690.8 2642.8C2688.08 2648.39 2696.44 2653.31 2699.18 2647.69C2725.82 2592.95 2756.05 2539.99 2788.24 2488.33C2820.2 2437.02 2854.15 2386.96 2889.42 2337.87C2920.23 2294.99 2952 2252.83 2984.74 2211.39C3008.46 2181.31 3032.65 2151.61 3057.3 2122.27C3068.12 2109.42 3079.72 2097.06 3090.21 2083.94C3090.35 2083.77 3090.5 2083.61 3090.65 2083.44C3094.78 2078.79 3087.95 2071.91 3083.79 2076.59Z" fill="#65E0A8"/>
<path d="M2995.39 2055.23C2982.37 2090.93 2974.31 2129.07 2969.32 2166.65C2966.83 2185.11 2965.45 2203.71 2965.18 2222.34C2965.11 2228.58 2974.81 2228.59 2974.88 2222.34C2975.51 2170.28 2985.34 2118.06 3001.15 2068.52C3002.29 2064.93 3003.45 2061.34 3004.74 2057.8C3006.89 2051.93 2997.52 2049.4 2995.39 2055.23Z" fill="#65E0A8"/>
<path d="M3074.97 2196.46C3067.63 2204.64 3059.07 2211.89 3050.48 2218.69C3030.18 2234.88 3007.56 2247.91 2983.37 2257.34C2965.95 2264.11 2947.73 2268.64 2929.16 2270.82C2923.03 2271.52 2922.96 2281.23 2929.16 2280.52C2982.95 2274.4 3033.7 2248.82 3073.1 2212.01C3076.1 2209.22 3079.09 2206.37 3081.82 2203.31C3085.98 2198.68 3079.14 2191.8 3074.97 2196.46Z" fill="#65E0A8"/>
<path d="M2859.81 2234C2854.65 2248.46 2851.52 2263.86 2849.04 2278.97C2843.4 2313.35 2842.71 2348.33 2848.08 2382.79C2849.03 2388.94 2858.38 2386.33 2857.43 2380.21C2852.22 2346.74 2853.09 2312.3 2858.83 2278.96C2861.27 2264.72 2864.3 2250.23 2869.16 2236.58C2871.25 2230.69 2861.89 2228.15 2859.81 2234Z" fill="#65E0A8"/>
<path d="M2916.23 2395.25C2906.71 2403.67 2895.83 2410.83 2884.98 2417.58C2858.02 2434.34 2828.92 2447.39 2798.46 2456.37C2792.49 2458.13 2795.03 2467.49 2801.04 2465.72C2842.36 2453.54 2882.26 2434.09 2916.34 2407.59C2918.63 2405.81 2920.91 2404.03 2923.08 2402.11C2927.77 2397.96 2920.89 2391.12 2916.23 2395.25Z" fill="#65E0A8"/>
</g>
<path d="M2728.41 2664.89C2728.41 2664.89 3097.94 1697.43 2813.56 1651.44C2529.18 1605.45 2602.48 2676.67 2602.48 2676.67L2728.41 2664.89Z" fill="url(#paint4_linear_1_5018)"/>
<g opacity="0.61">
<path d="M2798.11 1796.06C2793.94 1811.94 2790.12 1827.92 2786.33 1843.9C2776.36 1886.01 2767.1 1928.28 2758.54 1970.72C2746.29 2031.1 2735.37 2091.73 2725.76 2152.61C2714.67 2223.33 2705.47 2294.36 2698.95 2365.65C2692.25 2438.89 2688.31 2512.48 2689.1 2586.04C2689.19 2594.97 2689.36 2603.9 2689.6 2612.83C2689.81 2620.42 2701.63 2620.45 2701.42 2612.83C2699.45 2539.56 2702.46 2466.21 2708.39 2393.18C2714.22 2321.46 2722.9 2249.98 2733.61 2178.83C2743.02 2116.37 2753.9 2054.15 2766.26 1992.19C2775.15 1947.4 2784.76 1902.76 2795.09 1858.28C2799.63 1838.82 2804.98 1819.5 2809.3 1800C2809.36 1799.73 2809.44 1799.47 2809.51 1799.2C2811.44 1791.84 2800.05 1788.7 2798.11 1796.06Z" fill="#65E0A8"/>
<path d="M2688.83 1816.71C2694.96 1862.81 2707.72 1908.74 2723.78 1952.27C2731.67 1973.81 2740.83 1994.86 2751.21 2015.32C2754.67 2022.09 2764.87 2016.12 2761.42 2009.35C2732.73 1953.11 2713.73 1891.43 2702.72 1829.33C2702.12 1825.97 2701.56 1822.61 2701.04 1819.24C2700.9 1818.35 2700.18 1813.19 2700.65 1816.71C2700.22 1813.53 2698.23 1810.84 2694.74 1810.81C2691.87 1810.78 2688.41 1813.55 2688.83 1816.71Z" fill="#65E0A8"/>
<path d="M2856.78 1930.87C2853.44 1943.34 2848.25 1955.47 2842.73 1967.1C2829.46 1995.4 2811.81 2021.43 2790.42 2044.22C2775.14 2060.38 2757.81 2074.46 2738.88 2086.12C2732.41 2090.1 2738.34 2100.33 2744.84 2096.33C2800.01 2062.44 2841.38 2008.1 2863.67 1947.63C2865.32 1943.16 2866.94 1938.63 2868.17 1934.01C2870.14 1926.66 2858.74 1923.52 2856.78 1930.87Z" fill="#65E0A8"/>
<path d="M2642.12 2082.02C2643.73 2093.46 2646.62 2104.8 2649.7 2115.91C2657.28 2143.31 2667.6 2169.88 2680.48 2195.22C2689.92 2213.81 2700.86 2231.58 2713.21 2248.36C2717.68 2254.42 2727.94 2248.53 2723.42 2242.4C2690.2 2197.08 2667.07 2145.18 2655.59 2090.18C2654.81 2086.43 2654.05 2082.67 2653.52 2078.88C2652.46 2071.38 2641.07 2074.57 2642.12 2082.02Z" fill="#65E0A8"/>
<path d="M2795.86 2228.22C2795.33 2229.55 2796.55 2226.72 2795.58 2228.88C2794.78 2230.68 2793.97 2232.48 2793.12 2234.26C2790.04 2240.77 2786.69 2247.14 2783.16 2253.41C2770.98 2275.01 2756.77 2295.4 2740.74 2314.32C2728.55 2328.71 2715.38 2342.23 2701.31 2354.8C2695.63 2359.88 2704.01 2368.22 2709.67 2363.16C2747.58 2329.23 2780.43 2287.75 2802.59 2241.77C2804.24 2238.35 2805.84 2234.89 2807.26 2231.37C2810.1 2224.31 2798.67 2221.25 2795.86 2228.22Z" fill="#65E0A8"/>
</g>
<path d="M2687.84 2589.81C2687.84 2589.81 2893.12 2502.26 2969.39 2437.87C3045.65 2373.48 3229.05 2283.44 3256.93 2353.3C3284.8 2423.15 3143.85 2649.75 2896.89 2659.58L2684.31 2605.5L2687.84 2589.81Z" fill="url(#paint5_linear_1_5018)"/>
<g opacity="0.6">
<path d="M3165.79 2406.26C3138.69 2429.05 3109.7 2449.83 3080.5 2469.8C3017.9 2512.63 2951.68 2551.33 2881.44 2580.25C2839.3 2597.6 2795.44 2611.48 2750.27 2618.2C2744.5 2619.05 2746.95 2627.83 2752.69 2626.98C2833.38 2614.97 2910.13 2581.19 2981.06 2542.03C3037.35 2510.8 3091.25 2475.47 3142.35 2436.33C3152.44 2428.63 3162.52 2420.87 3172.23 2412.7C3176.72 2408.92 3170.25 2402.51 3165.79 2406.26Z" fill="#65E0A8"/>
<path d="M3169.23 2483.36C3134.73 2497.44 3098.52 2506.92 3061.54 2511.54C3045.99 2513.56 3030.27 2514.01 3014.62 2512.91C3008.78 2512.44 3008.81 2521.55 3014.62 2522.01C3042.44 2524.22 3070.57 2520.4 3097.72 2514.48C3118.78 2509.86 3139.51 2503.88 3159.8 2496.6C3163.77 2495.18 3167.74 2493.73 3171.65 2492.14C3177.01 2489.96 3174.67 2481.15 3169.23 2483.36Z" fill="#65E0A8"/>
<path d="M3005.48 2443.38C2979.37 2464.14 2957.25 2492.03 2940.16 2520.42C2931.51 2534.79 2924.2 2549.94 2918.35 2565.66C2916.3 2571.16 2925.1 2573.53 2927.13 2568.08C2943.02 2525.42 2970.84 2486.84 3004.45 2456.29C3006.88 2454.08 3009.34 2451.87 3011.92 2449.82C3016.51 2446.18 3010.02 2439.77 3005.48 2443.38Z" fill="#65E0A8"/>
<path d="M2990.17 2595.29C2980.76 2598.34 2970.88 2600.21 2961.16 2601.91C2934.46 2606.4 2907.41 2608.47 2880.34 2608.08C2858.79 2607.86 2837.27 2606.4 2815.89 2603.7C2810.09 2602.98 2810.14 2612.09 2815.89 2612.81C2870.92 2619.65 2928.72 2619.87 2982.92 2606.69C2986.16 2605.91 2989.42 2605.1 2992.59 2604.07C2998.14 2602.27 2995.77 2593.47 2990.17 2595.29Z" fill="#65E0A8"/>
</g>
<g opacity="0.6">
<path d="M3165.79 2406.26C3138.69 2429.05 3109.7 2449.83 3080.5 2469.8C3017.9 2512.63 2951.68 2551.33 2881.44 2580.25C2839.3 2597.6 2795.44 2611.48 2750.27 2618.2C2744.5 2619.05 2746.95 2627.83 2752.69 2626.98C2833.38 2614.97 2910.13 2581.19 2981.06 2542.03C3037.35 2510.8 3091.25 2475.47 3142.35 2436.33C3152.44 2428.63 3162.52 2420.87 3172.23 2412.7C3176.72 2408.92 3170.25 2402.51 3165.79 2406.26Z" fill="#65E0A8"/>
<path d="M3169.23 2483.36C3134.73 2497.44 3098.52 2506.92 3061.54 2511.54C3045.99 2513.56 3030.27 2514.01 3014.62 2512.91C3008.78 2512.44 3008.81 2521.55 3014.62 2522.01C3042.44 2524.22 3070.57 2520.4 3097.72 2514.48C3118.78 2509.86 3139.51 2503.88 3159.8 2496.6C3163.77 2495.18 3167.74 2493.73 3171.65 2492.14C3177.01 2489.96 3174.67 2481.15 3169.23 2483.36Z" fill="#65E0A8"/>
<path d="M3005.48 2443.38C2979.37 2464.14 2957.25 2492.03 2940.16 2520.42C2931.51 2534.79 2924.2 2549.94 2918.35 2565.66C2916.3 2571.16 2925.1 2573.53 2927.13 2568.08C2943.02 2525.42 2970.84 2486.84 3004.45 2456.29C3006.88 2454.08 3009.34 2451.87 3011.92 2449.82C3016.51 2446.18 3010.02 2439.77 3005.48 2443.38Z" fill="#65E0A8"/>
<path d="M2990.17 2595.29C2980.76 2598.34 2970.88 2600.21 2961.16 2601.91C2934.46 2606.4 2907.41 2608.47 2880.34 2608.08C2858.79 2607.86 2837.27 2606.4 2815.89 2603.7C2810.09 2602.98 2810.14 2612.09 2815.89 2612.81C2870.92 2619.65 2928.72 2619.87 2982.92 2606.69C2986.16 2605.91 2989.42 2605.1 2992.59 2604.07C2998.14 2602.27 2995.77 2593.47 2990.17 2595.29Z" fill="#65E0A8"/>
</g>
<path d="M662.944 2290.62C662.944 2290.62 182.274 1320.14 413.686 1212.93C645.098 1105.72 771.048 2277.88 771.048 2277.88L662.944 2290.62Z" fill="url(#paint6_linear_1_5018)"/>
<g opacity="0.61">
<path d="M441.967 1370.43C448.252 1386.72 454.238 1403.12 460.191 1419.52C475.949 1462.95 491.104 1506.58 505.657 1550.43C526.632 1613.41 546.476 1676.74 565.189 1740.44C586.955 1814.68 607.082 1889.43 624.951 1964.71C643.448 2042.64 659.589 2121.18 671.742 2200.36C673.218 2209.98 674.632 2219.61 675.984 2229.25C677.008 2236.55 688.081 2233.44 687.064 2226.2C675.917 2146.82 660.525 2068.07 642.632 1989.96C625.184 1913.78 605.311 1838.17 583.725 1763.07C564.888 1697.53 544.788 1632.37 523.426 1567.59C508.097 1520.98 492.148 1474.58 475.578 1428.39C468.342 1408.27 461.192 1388.08 453.356 1368.18C453.25 1367.91 453.15 1367.65 453.047 1367.38C450.411 1360.55 439.297 1363.52 441.967 1370.43Z" fill="#65E0A8"/>
<path d="M536.955 1367.46C539.789 1417.17 537.089 1467.77 531.413 1517.17C528.614 1541.53 524.729 1565.75 519.577 1589.73C518.027 1596.94 529.101 1600.02 530.657 1592.78C545.406 1524.15 550.658 1453.07 549 1382.94C548.878 1377.78 548.739 1372.61 548.445 1367.46C548.026 1360.1 536.533 1360.06 536.955 1367.46Z" fill="#65E0A8"/>
<path d="M416.185 1527.95C421.554 1541.71 428.603 1554.94 436.063 1567.66C452.217 1595.2 471.994 1621.06 495.691 1642.53C511.404 1656.96 529.088 1669.08 548.212 1678.53C554.835 1681.75 560.668 1671.84 554.011 1668.61C499.298 1642.03 458.883 1591.24 432.846 1537.29C431.286 1534.06 429.788 1530.8 428.352 1527.51C428.158 1527.07 427.273 1524.93 428.099 1526.93C427.949 1526.57 427.796 1526.21 427.647 1525.84C427.517 1525.53 427.389 1525.21 427.265 1524.89C424.607 1518.08 413.492 1521.04 416.185 1527.95Z" fill="#65E0A8"/>
<path d="M622.667 1642.91C623.158 1655.43 623.021 1667.96 622.256 1680.47C620.766 1711.11 616.76 1741.57 610.278 1771.56C605.712 1792.69 599.741 1813.49 592.405 1833.83C589.883 1840.79 600.983 1843.79 603.485 1836.88C624.288 1779.43 634.297 1717.32 634.393 1656.25C634.4 1651.8 634.384 1647.35 634.157 1642.91C633.782 1635.55 622.29 1635.5 622.667 1642.91Z" fill="#65E0A8"/>
<path d="M520.156 1838.25C524.997 1847.35 530.365 1856.16 536.233 1864.63C550.518 1885.88 566.707 1905.79 584.602 1924.11C597.433 1937.19 611.184 1949.33 625.748 1960.45C631.618 1964.94 637.347 1954.97 631.548 1950.53C592.697 1920.56 559.926 1883.46 534.996 1841.2C533.297 1838.32 531.607 1835.43 530.077 1832.45C526.693 1825.88 516.775 1831.68 520.156 1838.25Z" fill="#65E0A8"/>
</g>
<path d="M728.456 2346.84C728.456 2346.84 631.427 1216.48 931.849 1244.54C1232.27 1272.61 852.304 2393.5 852.304 2393.5L728.456 2346.84Z" fill="url(#paint7_linear_1_5018)"/>
<g opacity="0.61">
<path d="M893.6 1402.87C893.284 1420.79 892.588 1438.72 891.854 1456.63C889.917 1503.92 887.227 1551.16 883.784 1598.37C878.937 1665.92 872.689 1733.35 865.039 1800.66C856.109 1878.69 845.141 1956.49 831.409 2033.82C817.277 2113.39 800.28 2192.55 778.548 2270.41C775.917 2279.84 773.212 2289.24 770.434 2298.63C768.112 2306.47 780.357 2309.83 782.672 2302C805.67 2224.26 823.61 2145.07 838.506 2065.4C853.143 1987.12 864.795 1908.29 874.367 1829.23C882.737 1760.1 889.54 1690.79 894.776 1621.33C898.625 1570.94 901.692 1520.51 903.975 1470.02C904.948 1448.06 906.779 1425.75 906.275 1403.75C906.268 1403.46 906.287 1403.16 906.292 1402.87C906.436 1394.7 893.745 1394.7 893.6 1402.87Z" fill="#65E0A8"/>
<path d="M998.57 1451.05C998.479 1451.27 998.387 1451.49 998.295 1451.71C998.094 1452.2 997.532 1453.51 998.449 1451.36C998.252 1451.82 998.059 1452.28 997.86 1452.74C996.673 1455.48 995.468 1458.22 994.245 1460.95C989.779 1470.87 985.06 1480.67 980.161 1490.38C964.229 1522.08 946.251 1552.71 926.343 1582.08C912.73 1602.18 897.967 1621.48 882.127 1639.88C876.809 1646.03 885.748 1655.05 891.102 1648.86C937.363 1595.35 975.012 1533.75 1004.27 1469.42C1006.53 1464.46 1008.75 1459.47 1010.81 1454.42C1012.11 1451.23 1009.39 1447.48 1006.38 1446.62C1002.76 1445.58 999.858 1447.89 998.57 1451.05Z" fill="#65E0A8"/>
<path d="M795.837 1530.53C795.629 1545.86 797.687 1561.41 800.144 1576.48C805.683 1611.19 816.585 1644.83 832.46 1676.19C843.671 1698.13 857.704 1718.5 874.201 1736.79C879.684 1742.86 888.637 1733.87 883.175 1727.81C838.529 1678.34 813.929 1611.72 809.141 1545.66C808.778 1540.64 808.46 1535.57 808.529 1530.53C808.64 1522.36 795.949 1522.36 795.837 1530.53Z" fill="#65E0A8"/>
<path d="M970.646 1744.62C971.907 1741.59 970.5 1744.92 970.126 1745.76C969.078 1748.1 967.984 1750.42 966.866 1752.73C962.825 1761.08 958.45 1769.27 953.848 1777.33C938.736 1803.87 921.056 1828.86 901.062 1851.95C886.602 1868.63 870.854 1884.14 853.963 1898.35C847.701 1903.61 856.718 1912.55 862.937 1907.33C910.322 1867.54 949.62 1816.54 976.915 1761C979.02 1756.72 981.049 1752.4 982.885 1747.99C984.213 1744.8 981.449 1741.05 978.453 1740.19C974.813 1739.14 971.958 1741.47 970.646 1744.62Z" fill="#65E0A8"/>
<path d="M772.46 1863.69C776.405 1902.02 789.33 1940.28 804.632 1975.37C812.939 1994.4 822.581 2012.82 833.488 2030.49C837.767 2037.43 848.75 2031.06 844.446 2024.08C816.136 1978.18 795.64 1926.5 786.561 1873.22C786.3 1871.69 786.052 1870.16 785.817 1868.62C785.722 1868 785.632 1867.38 785.539 1866.75C785.487 1866.4 785.252 1864.68 785.409 1865.85C785.56 1866.97 785.291 1864.88 785.238 1864.45C785.206 1864.2 785.178 1863.94 785.152 1863.69C784.324 1855.64 771.623 1855.56 772.46 1863.69Z" fill="#65E0A8"/>
</g>
<path d="M790.88 2277.88C790.88 2277.88 608.496 2129.03 549.84 2039.8C491.184 1950.58 331.619 1805 283.511 1871.84C235.403 1938.68 313.082 2218.17 559.766 2295.54H789.968L790.88 2277.88Z" fill="url(#paint8_linear_1_5018)"/>
<g opacity="0.6">
<path d="M352.058 1957.96C373.122 1989.87 396.778 2020.28 420.901 2049.91C472.187 2112.9 528.576 2172.61 592.286 2223.21C630.044 2253.19 670.575 2280.17 714.754 2299.76C720.456 2302.29 725.437 2293.87 719.689 2291.32C641.373 2256.59 573.936 2199.86 514.113 2139.44C466.686 2091.34 422.907 2039.77 383.139 1985.17C375.407 1974.6 367.719 1963.96 360.502 1953.02C357.05 1947.79 348.578 1952.68 352.058 1957.96Z" fill="#65E0A8"/>
<path d="M329.024 2041.91C360.455 2066.67 395.119 2087.03 432.056 2102.42C447.509 2108.99 463.62 2113.88 480.114 2117.02C486.267 2118.13 488.907 2108.71 482.713 2107.59C454.559 2102.51 427.872 2091.16 402.735 2077.77C382.986 2067.21 363.96 2055.36 345.781 2042.28C343.177 2040.41 340.594 2038.52 338.032 2036.59C337.311 2036.05 336.593 2035.5 335.878 2034.95C336.062 2035.09 336.661 2035.56 335.939 2034.99C331.048 2031.14 324.082 2038.02 329.024 2041.91Z" fill="#65E0A8"/>
<path d="M503.407 2040.92C523.353 2069.37 537.172 2103.58 546.08 2136.93C550.746 2154.24 553.81 2171.94 555.236 2189.81C555.719 2196.05 565.503 2196.1 565.015 2189.81C561.078 2139.08 544.113 2088.94 517.853 2045.39C515.935 2042.21 513.985 2039.03 511.851 2035.98C508.266 2030.87 499.784 2035.75 503.407 2040.92Z" fill="#65E0A8"/>
<path d="M478.946 2210.38C487.856 2216.36 497.69 2221.19 507.37 2225.76C533.473 2237.94 560.662 2247.65 588.58 2254.75C610.852 2260.44 633.451 2264.77 656.251 2267.72C662.471 2268.54 662.41 2258.76 656.251 2257.94C599.992 2250.5 542.398 2235.29 492.659 2207.21C489.691 2205.54 486.712 2203.84 483.881 2201.93C478.644 2198.41 473.743 2206.88 478.946 2210.38Z" fill="#65E0A8"/>
</g>
<path d="M523.783 2246H898.802V2596.09H657.175C625.833 2596.09 595.408 2585.5 570.832 2566.05C546.255 2546.6 528.967 2519.42 521.768 2488.92L478.071 2303.76C476.444 2296.86 476.398 2289.69 477.936 2282.77C479.474 2275.85 482.558 2269.37 486.955 2263.82C491.352 2258.26 496.949 2253.77 503.327 2250.69C509.705 2247.6 516.698 2246 523.783 2246Z" fill="#BF2604"/>
<path opacity="0.6" d="M664.398 2246H938.509V2596.09H797.791C766.448 2596.09 736.023 2585.5 711.447 2566.05C686.871 2546.6 669.582 2519.42 662.383 2488.92L618.686 2303.76C617.059 2296.86 617.013 2289.69 618.551 2282.77C620.09 2275.85 623.173 2269.37 627.57 2263.82C631.967 2258.26 637.564 2253.77 643.942 2250.69C650.32 2247.6 657.313 2246 664.398 2246Z" fill="#802500"/>
<path d="M3303.24 249.917V1614.44C3303.25 1629.09 3300.37 1643.6 3294.76 1657.14C3289.16 1670.68 3280.94 1682.98 3270.58 1693.34C3260.22 1703.7 3247.92 1711.92 3234.38 1717.52C3220.84 1723.13 3206.33 1726.01 3191.67 1726H1377.28C1362.63 1726.01 1348.12 1723.13 1334.58 1717.52C1321.04 1711.92 1308.73 1703.7 1298.37 1693.34C1288.01 1682.98 1279.79 1670.68 1274.19 1657.14C1268.59 1643.6 1265.71 1629.09 1265.72 1614.44V249.917C1265.74 220.336 1277.5 191.974 1298.42 171.057C1319.33 150.141 1347.7 138.38 1377.28 138.359H3191.67C3206.33 138.339 3220.85 141.211 3234.39 146.811C3247.93 152.41 3260.24 160.627 3270.6 170.99C3280.97 181.353 3289.19 193.659 3294.79 207.202C3300.39 220.746 3303.26 235.261 3303.24 249.917Z" fill="#DFE9F4"/>
<path d="M1366.87 471.68H3202.22V1647.3H1366.87V471.68Z" fill="white"/>
<path d="M3303.24 249.917V352.55H1265.72V249.917C1265.74 220.336 1277.5 191.974 1298.42 171.057C1319.33 150.141 1347.7 138.38 1377.28 138.359H3191.67C3206.33 138.339 3220.85 141.211 3234.39 146.811C3247.93 152.41 3260.24 160.627 3270.6 170.99C3280.97 181.353 3289.19 193.659 3294.79 207.202C3300.39 220.746 3303.26 235.261 3303.24 249.917Z" fill="#CEDBEE"/>
<path d="M1426.23 275.068C1447.52 275.068 1464.78 257.814 1464.78 236.53C1464.78 215.246 1447.52 197.991 1426.23 197.991C1404.95 197.991 1387.69 215.246 1387.69 236.53C1387.69 257.814 1404.95 275.068 1426.23 275.068Z" fill="#92B1DD"/>
<path d="M1552.68 261.275C1566.34 261.275 1577.42 250.196 1577.42 236.53C1577.42 222.863 1566.34 211.784 1552.68 211.784C1539.01 211.784 1527.93 222.863 1527.93 236.53C1527.93 250.196 1539.01 261.275 1552.68 261.275Z" fill="#92B1DD"/>
<path d="M3202.09 751.319V740.23H2919.45V471.68H2908.36V740.23H2580.43V471.68H2569.34V740.23H2279.41V471.68H2268.32V740.23H1956.74V471.68H1945.66V740.23H1655.72V471.68H1644.63V740.23H1366.87V751.319H1644.78V1041.23H1366.88V1052.32H1644.78V1353.33H1366.88V1364.41H1644.78V1647.3H1655.87V1364.41H1945.67V1647.3H1956.76V1364.41H2268.33V1647.3H2279.42V1364.41H2569.35V1647.3H2580.44V1364.41H2908.38V1647.3H2919.47V1364.41H3202.1V1353.33H2919.47V1052.32H3202.1V1041.23H2919.47V751.319H3202.09ZM1945.66 1353.33H1655.72V1052.32H1945.66V1353.33ZM1945.66 1041.23H1655.72V751.319H1945.66V1041.23ZM2268.32 1353.33H1956.74V1052.32H2268.32V1353.33ZM2268.32 1041.23H1956.74V751.319H2268.32V1041.23ZM2569.34 1353.33H2279.41V1052.32H2569.34V1353.33ZM2569.34 1041.23H2279.41V751.319H2569.34V1041.23ZM2908.36 1353.33H2580.43V1052.32H2908.36V1353.33ZM2908.36 1041.23H2580.43V751.319H2908.36V1041.23Z" fill="#DFE9F4"/>
<path d="M2852.39 896.006C2851.31 898.71 2850.09 901.279 2848.88 903.848C2841.83 917.842 2832.2 930.369 2820.48 940.764C2790.86 967.403 2770.31 983.359 2757.73 992.554C2753.13 995.799 2749.62 998.233 2747.05 999.991C2744.48 998.233 2740.96 995.799 2736.36 992.554C2723.65 983.359 2703.23 967.267 2673.62 940.764C2662.51 930.906 2653.25 919.136 2646.3 906.012C2644.95 903.443 2643.73 900.738 2642.51 898.169C2624.12 855.033 2637.51 809.464 2674.7 796.888C2719.19 781.879 2742.45 832.722 2747.05 844.216C2751.65 832.722 2774.9 781.879 2819.4 796.888C2856.03 809.193 2869.55 853.546 2852.39 896.006Z" fill="#CEDBEE"/>
<path d="M2790.58 896.006L2777.19 852.329L2749.74 940.629L2733.24 889.65L2716.2 922.644L2697.67 824.473L2672.12 898.034H2642.5C2643.63 900.712 2644.89 903.33 2646.29 905.877H2677.8L2695.51 855.033L2712.82 946.714L2731.62 910.204L2749.87 966.727L2777.19 878.968L2784.9 903.849H2849C2850.35 901.279 2851.43 898.575 2852.51 896.006H2790.58Z" fill="white"/>
<path d="M1431.24 565.794C1445.8 565.794 1457.61 553.989 1457.61 539.426C1457.61 524.863 1445.8 513.058 1431.24 513.058C1416.67 513.058 1404.87 524.863 1404.87 539.426C1404.87 553.989 1416.67 565.794 1431.24 565.794Z" fill="#AEC6D3"/>
<path d="M2199.62 1425.53H2007.59C2006.41 1425.53 2005.24 1425.78 2004.17 1426.27C2003.1 1426.76 2002.14 1427.48 2001.37 1428.37C2000.11 1429.84 1999.44 1431.72 1999.48 1433.65V1566.71C1999.5 1568.29 1999.99 1569.84 2000.88 1571.15C2001.77 1572.47 2003.03 1573.49 2004.5 1574.09C2005.97 1574.7 2007.58 1574.86 2009.14 1574.55C2010.7 1574.25 2012.14 1573.5 2013.27 1572.38L2063.31 1522.35H2199.62C2201.77 1522.35 2203.83 1521.5 2205.36 1519.98C2206.88 1518.45 2207.73 1516.39 2207.73 1514.24V1433.38C2207.69 1431.26 2206.82 1429.25 2205.3 1427.78C2203.78 1426.31 2201.73 1425.5 2199.62 1425.53Z" fill="#AEC6D3"/>
<path d="M2098.47 1500.18V1446.9C2098.46 1446.1 2098.62 1445.31 2098.92 1444.57C2099.23 1443.83 2099.68 1443.15 2100.24 1442.59C2100.81 1442.02 2101.48 1441.57 2102.22 1441.27C2102.96 1440.97 2103.75 1440.81 2104.55 1440.81C2105.54 1440.82 2106.52 1441.08 2107.39 1441.55C2108.26 1442.02 2109 1442.69 2109.56 1443.52C2110.25 1444.51 2110.63 1445.69 2110.64 1446.9V1500.18C2110.64 1500.98 2110.49 1501.77 2110.18 1502.51C2109.88 1503.25 2109.43 1503.92 2108.86 1504.49C2108.3 1505.05 2107.62 1505.5 2106.89 1505.81C2106.15 1506.11 2105.35 1506.26 2104.55 1506.26C2103.75 1506.26 2102.96 1506.11 2102.22 1505.81C2101.48 1505.5 2100.81 1505.05 2100.24 1504.49C2099.68 1503.92 2099.23 1503.25 2098.92 1502.51C2098.62 1501.77 2098.46 1500.98 2098.47 1500.18Z" fill="white"/>
<path d="M2131.06 1479.62H2077.78C2076.98 1479.63 2076.18 1479.47 2075.44 1479.17C2074.7 1478.86 2074.03 1478.41 2073.47 1477.85C2072.9 1477.28 2072.45 1476.61 2072.15 1475.87C2071.84 1475.13 2071.69 1474.34 2071.69 1473.54C2071.71 1471.99 2072.29 1470.5 2073.31 1469.35C2073.87 1468.76 2074.54 1468.29 2075.29 1467.96C2076.03 1467.64 2076.83 1467.47 2077.64 1467.45H2130.92C2131.72 1467.45 2132.52 1467.6 2133.26 1467.91C2134 1468.21 2134.67 1468.66 2135.23 1469.23C2135.8 1469.79 2136.25 1470.46 2136.55 1471.2C2136.86 1471.94 2137.01 1472.74 2137.01 1473.54C2137.04 1474.33 2136.9 1475.13 2136.62 1475.87C2136.33 1476.61 2135.9 1477.29 2135.34 1477.86C2134.78 1478.43 2134.12 1478.88 2133.38 1479.18C2132.64 1479.48 2131.85 1479.63 2131.06 1479.62Z" fill="white"/>
<path d="M2702 1237.98H2166.35C2156.92 1237.97 2147.88 1234.22 2141.22 1227.55C2134.55 1220.89 2130.8 1211.85 2130.79 1202.42C2130.8 1192.99 2134.55 1183.95 2141.22 1177.28C2147.88 1170.62 2156.92 1166.87 2166.35 1166.85H2702C2711.43 1166.87 2720.47 1170.62 2727.14 1177.28C2733.81 1183.95 2737.56 1192.99 2737.57 1202.42C2737.56 1211.85 2733.81 1220.89 2727.14 1227.55C2720.47 1234.22 2711.43 1237.97 2702 1237.98Z" fill="#AEC6D3"/>
<path d="M2910.54 357.959H1484.52C1483.08 357.959 1481.71 357.389 1480.69 356.374C1479.68 355.36 1479.11 353.984 1479.11 352.55C1479.11 351.115 1479.68 349.739 1480.69 348.725C1481.71 347.711 1483.08 347.141 1484.52 347.141H2910.54C2911.98 347.141 2913.35 347.711 2914.37 348.725C2915.38 349.739 2915.95 351.115 2915.95 352.55C2915.95 353.984 2915.38 355.36 2914.37 356.374C2913.35 357.389 2911.98 357.959 2910.54 357.959ZM3186.53 357.959H2993.69C2992.26 357.959 2990.88 357.389 2989.87 356.374C2988.86 355.36 2988.29 353.984 2988.29 352.55C2988.29 351.115 2988.86 349.739 2989.87 348.725C2990.88 347.711 2992.26 347.141 2993.69 347.141H3186.53C3187.97 347.141 3189.34 347.711 3190.36 348.725C3191.37 349.739 3191.94 351.115 3191.94 352.55C3191.94 353.984 3191.37 355.36 3190.36 356.374C3189.34 357.389 3187.97 357.959 3186.53 357.959ZM1265.44 1595.51C1264.01 1595.51 1262.63 1594.94 1261.62 1593.92C1260.61 1592.91 1260.04 1591.53 1260.04 1590.1V352.82C1260.04 351.386 1260.61 350.01 1261.62 348.996C1262.63 347.981 1264.01 347.411 1265.44 347.411C1266.88 347.411 1268.26 347.981 1269.27 348.996C1270.28 350.01 1270.85 351.386 1270.85 352.82V1590.1C1270.85 1591.53 1270.28 1592.91 1269.27 1593.92C1268.26 1594.94 1266.88 1595.51 1265.44 1595.51ZM2247.09 1731.4H1552.68C1551.24 1731.4 1549.86 1730.83 1548.85 1729.82C1547.84 1728.81 1547.27 1727.43 1547.27 1726C1547.27 1724.56 1547.84 1723.19 1548.85 1722.17C1549.86 1721.16 1551.24 1720.59 1552.68 1720.59H2247.09C2248.52 1720.59 2249.9 1721.16 2250.91 1722.17C2251.92 1723.19 2252.49 1724.56 2252.49 1726C2252.49 1727.43 2251.92 1728.81 2250.91 1729.82C2249.9 1730.83 2248.52 1731.4 2247.09 1731.4ZM3215.47 1731.4H2305.37C2303.94 1731.4 2302.56 1730.83 2301.54 1729.82C2300.53 1728.81 2299.96 1727.43 2299.96 1726C2299.96 1724.56 2300.53 1723.19 2301.54 1722.17C2302.56 1721.16 2303.94 1720.59 2305.37 1720.59H3215.47C3237.34 1720.57 3258.31 1711.87 3273.78 1696.4C3289.24 1680.94 3297.94 1659.97 3297.96 1638.1V464.513C3297.96 463.079 3298.53 461.703 3299.55 460.689C3300.56 459.674 3301.94 459.104 3303.37 459.104C3304.81 459.104 3306.18 459.674 3307.2 460.689C3308.21 461.703 3308.78 463.079 3308.78 464.513V1638.1C3308.76 1662.84 3298.92 1686.56 3281.42 1704.05C3263.93 1721.54 3240.21 1731.38 3215.47 1731.4Z" fill="#92B1DD"/>
<path d="M3207.36 1652.3H1361.46V466.406H3207.36V1652.3ZM1372.28 1641.48H3196.54V477.224H1372.28V1641.48ZM2197.46 143.227H1380.39C1378.96 143.227 1377.58 142.657 1376.57 141.643C1375.55 140.628 1374.98 139.252 1374.98 137.818C1374.98 136.383 1375.55 135.008 1376.57 133.993C1377.58 132.979 1378.96 132.409 1380.39 132.409H2197.46C2198.89 132.409 2200.27 132.979 2201.28 133.993C2202.29 135.008 2202.86 136.383 2202.86 137.818C2202.86 139.252 2202.29 140.628 2201.28 141.643C2200.27 142.657 2198.89 143.227 2197.46 143.227Z" fill="#92B1DD"/>
<path d="M667.86 525.769C661.816 525.769 655.907 523.977 650.881 520.619C645.855 517.261 641.938 512.488 639.624 506.904C637.311 501.319 636.706 495.175 637.885 489.247C639.065 483.319 641.975 477.873 646.249 473.6C650.524 469.326 655.969 466.415 661.898 465.236C667.826 464.057 673.971 464.662 679.556 466.975C685.14 469.288 689.914 473.205 693.272 478.231C696.63 483.256 698.422 489.165 698.422 495.209C698.426 499.223 697.638 503.199 696.103 506.908C694.569 510.617 692.318 513.987 689.479 516.826C686.64 519.664 683.27 521.915 679.56 523.45C675.85 524.984 671.875 525.772 667.86 525.769ZM667.86 468.841C662.645 468.841 657.546 470.387 653.21 473.284C648.873 476.182 645.493 480.3 643.497 485.118C641.502 489.936 640.979 495.238 641.997 500.353C643.014 505.468 645.526 510.166 649.214 513.854C652.902 517.542 657.6 520.053 662.716 521.07C667.831 522.088 673.133 521.566 677.952 519.57C682.77 517.574 686.888 514.194 689.786 509.858C692.684 505.522 694.23 500.424 694.23 495.209C694.22 488.219 691.438 481.518 686.495 476.575C681.552 471.633 674.851 468.851 667.86 468.841Z" fill="black"/>
<path d="M667.86 728.736C796.843 728.736 901.404 624.182 901.404 495.209C901.404 366.235 796.843 261.681 667.86 261.681C538.878 261.681 434.317 366.235 434.317 495.209C434.317 624.182 538.878 728.736 667.86 728.736Z" fill="#CEDBEE"/>
<path d="M667.86 673.972C766.595 673.972 846.635 593.937 846.635 495.209C846.635 396.481 766.595 316.446 667.86 316.446C569.125 316.446 489.085 396.481 489.085 495.209C489.085 593.937 569.125 673.972 667.86 673.972Z" fill="#F5F5F7"/>
<path d="M763.198 581.074C761.13 581.06 759.127 580.345 757.518 579.046L662.181 501.564C661.172 500.719 660.359 499.664 659.798 498.473C659.238 497.282 658.943 495.984 658.935 494.668V366.072C658.935 363.705 659.875 361.435 661.549 359.761C663.223 358.088 665.493 357.147 667.86 357.147C670.227 357.147 672.497 358.088 674.171 359.761C675.845 361.435 676.785 363.705 676.785 366.072V490.476L768.878 565.254C770.332 566.406 771.389 567.986 771.898 569.771C772.408 571.556 772.344 573.456 771.717 575.203C771.09 576.95 769.931 578.456 768.402 579.509C766.874 580.563 765.054 581.11 763.198 581.074Z" fill="#AEC6D3"/>
<path d="M665.156 511.841C677.105 511.841 686.793 502.154 686.793 490.206C686.793 478.257 677.105 468.57 665.156 468.57C653.206 468.57 643.519 478.257 643.519 490.206C643.519 502.154 653.206 511.841 665.156 511.841Z" fill="#92B1DD"/>
<path d="M846.094 513.058C844.66 513.058 843.284 512.488 842.27 511.474C841.255 510.459 840.685 509.084 840.685 507.649C840.685 432.817 811.746 378.823 754.651 347.182C727.757 332.612 698.07 323.933 667.563 321.719C666.852 321.698 666.153 321.537 665.505 321.246C664.857 320.954 664.273 320.538 663.785 320.02C663.298 319.503 662.918 318.895 662.665 318.23C662.413 317.566 662.294 316.859 662.316 316.148C662.337 315.438 662.498 314.739 662.79 314.091C663.081 313.443 663.497 312.858 664.015 312.371C664.532 311.884 665.14 311.503 665.805 311.251C666.469 310.999 667.177 310.88 667.887 310.902C669.767 310.902 714.312 312.578 759.533 337.513C786.228 352.252 807.527 372.076 822.808 396.443C841.848 426.787 851.504 464.202 851.504 507.649C851.504 509.084 850.934 510.459 849.919 511.474C848.905 512.488 847.529 513.058 846.094 513.058ZM667.725 678.704C610.752 678.704 565.842 661.126 534.239 626.441C503.041 592.217 490.965 547.418 486.408 515.857C483.359 495.753 482.498 475.378 483.838 455.088C483.971 453.654 484.668 452.331 485.776 451.41C486.885 450.49 488.313 450.047 489.748 450.18C491.182 450.313 492.506 451.01 493.426 452.118C494.347 453.226 494.789 454.655 494.657 456.089C494.562 457.09 486.015 557.505 542.325 619.207C571.779 651.511 613.998 667.887 667.766 667.887C669.2 667.887 670.576 668.457 671.59 669.471C672.605 670.485 673.175 671.861 673.175 673.296C673.175 674.73 672.605 676.106 671.59 677.12C670.576 678.135 669.2 678.704 667.766 678.704H667.725Z" fill="#92B1DD"/>
<path d="M1777.43 1068.68C1777.43 1068.68 1776.21 1084.37 1773.37 1110.33L1758.5 1113.44C1756.51 1113.85 1754.46 1113.81 1752.49 1113.32C1750.53 1112.82 1748.7 1111.9 1747.14 1110.6C1744.79 1108.68 1743.16 1106 1742.54 1103.03L1733.48 1059.49L1777.43 1068.68Z" fill="#6CC58D"/>
<path d="M1777.43 1068.68C1777.43 1068.68 1776.21 1084.37 1773.37 1110.33L1758.5 1113.44C1756.51 1113.85 1754.46 1113.81 1752.49 1113.32C1750.53 1112.82 1748.7 1111.9 1747.14 1110.6C1744.79 1108.68 1743.16 1106 1742.54 1103.03L1738.62 1083.96L1733.48 1059.49L1768.37 1066.93L1777.43 1068.68Z" fill="#6CC58D"/>
<path d="M1777.43 1068.68C1777.43 1068.68 1737.54 1562.78 1610.55 1605.38C1609.47 1605.78 1608.26 1606.05 1607.17 1606.46C1523.19 1629.04 1442.06 1515.46 1395.27 1432.7C1369.84 1387.67 1354.56 1351.84 1354.56 1351.84C1354.56 1351.84 1268.69 1119.39 1376.74 1042.45C1376.74 1042.45 1442.06 1060.84 1466.4 1129.94C1490.74 1199.04 1570.8 1345.08 1570.8 1345.08V1344.94L1612.04 1194.3L1653.56 1042.45L1777.43 1068.68Z" fill="#6CC58D"/>
<path opacity="0.78" d="M1610.55 1605.38C1609.47 1605.78 1608.25 1606.05 1607.17 1606.46C1523.19 1629.04 1442.06 1515.46 1395.27 1432.7C1394.59 1361.57 1393.91 1288.96 1393.91 1288.96L1384.72 1224.86L1415.15 1153.87C1415.15 1153.87 1487.9 1468.53 1540.1 1546.02C1565.93 1584.28 1592.97 1598.89 1610.55 1605.38Z" fill="#3E9A83"/>
<path opacity="0.78" d="M1615.42 1419.04L1570.8 1344.81L1611.91 1194.3L1615.42 1419.04Z" fill="#3E9A83"/>
<path d="M1823.81 956.585C1828.14 962.535 1803.93 984.441 1786.08 1010.94C1779.05 1021.49 1772.83 1032.85 1767.42 1042.99C1762.96 1051.38 1758.77 1058.95 1754.98 1064.76C1751.73 1069.77 1748.62 1073.42 1745.51 1074.9C1741.15 1077.08 1736.33 1078.19 1731.45 1078.15L1727.53 1058.95L1703.46 1053.81L1697.64 1052.59L1692.23 955.774C1692.23 955.774 1696.43 949.283 1702.92 939.547C1706.16 934.679 1709.95 929.135 1714.14 923.185C1720.9 913.45 1728.61 902.632 1736.32 892.49C1753.49 869.908 1770.8 850.436 1777.97 852.329C1785.95 854.493 1782.3 866.663 1776.48 878.427C1774.03 883.346 1771.33 888.13 1768.37 892.761C1766.2 896.276 1764.18 899.251 1762.96 901.144C1763.77 899.927 1764.85 898.44 1766.34 896.547C1777.83 880.861 1807.04 844.081 1821.51 853.681C1833.28 861.389 1810.97 891.814 1793.52 912.638C1784.19 923.862 1776.21 932.245 1775.67 932.651C1776.08 932.381 1779.86 928.865 1785.27 924.402C1798.93 913.314 1822.6 895.736 1828.14 904.525C1835.98 916.83 1779.19 971.324 1778.1 972.406C1778.38 972.271 1781.62 969.837 1786.35 966.862C1797.59 959.29 1817.73 948.202 1823.81 956.585Z" fill="#FFB2A8"/>
<path d="M1736.45 952.123C1735.93 952.135 1735.41 951.994 1734.97 951.717C1734.25 951.29 1733.72 950.603 1733.49 949.797C1733.27 948.992 1733.36 948.13 1733.75 947.39L1776.35 872.207C1776.76 871.472 1777.45 870.93 1778.26 870.702C1779.07 870.474 1779.94 870.577 1780.67 870.99C1781.41 871.402 1781.95 872.09 1782.18 872.901C1782.41 873.713 1782.3 874.582 1781.89 875.317L1739.29 950.5C1739 950.992 1738.58 951.399 1738.09 951.683C1737.59 951.967 1737.03 952.119 1736.45 952.123ZM1752.97 973.758C1752.33 973.789 1751.71 973.598 1751.21 973.217C1750.51 972.731 1750.03 971.989 1749.88 971.153C1749.73 970.318 1749.91 969.455 1750.4 968.755L1801.38 895.465C1801.62 895.119 1801.92 894.823 1802.28 894.595C1802.63 894.367 1803.03 894.211 1803.44 894.135C1803.86 894.06 1804.28 894.067 1804.69 894.156C1805.1 894.245 1805.49 894.414 1805.84 894.654C1806.19 894.893 1806.48 895.199 1806.71 895.553C1806.94 895.907 1807.1 896.302 1807.17 896.717C1807.25 897.131 1807.24 897.556 1807.15 897.968C1807.06 898.38 1806.89 898.77 1806.65 899.116L1755.67 972.406C1754.98 973.189 1754.01 973.673 1752.97 973.758ZM1756.33 1005.94C1755.6 1005.92 1754.9 1005.69 1754.3 1005.27C1753.66 1004.72 1753.26 1003.95 1753.19 1003.12C1753.11 1002.28 1753.37 1001.45 1753.9 1000.8L1787.44 960.236C1787.97 959.591 1788.75 959.185 1789.58 959.109C1790.42 959.033 1791.25 959.293 1791.9 959.83C1792.54 960.368 1792.95 961.141 1793.03 961.978C1793.1 962.814 1792.84 963.647 1792.3 964.293L1758.77 1004.86C1758.12 1005.51 1757.25 1005.9 1756.33 1005.94Z" fill="#F27C85"/>
<path d="M1767.84 1097.08L1758.78 1098.97L1747.15 1101.41C1744.41 1101.99 1741.55 1101.46 1739.19 1099.94C1736.83 1098.42 1735.17 1096.03 1734.57 1093.29L1731.46 1078.28L1727.54 1059.08L1717.26 1009.32L1710.5 976.733L1709.56 972L1702.79 939.547L1700.9 930.352L1696.57 909.528L1684.54 851.788L1691.03 811.763C1691.23 810.451 1691.88 809.248 1692.86 808.361C1693.85 807.473 1695.11 806.955 1696.44 806.895C1697.43 806.836 1698.42 807.028 1699.32 807.453C1700.22 807.879 1701 808.524 1701.58 809.329L1725.92 843.269L1735.66 890.462L1736.06 892.49L1740.25 913.044L1744.58 934.138L1745.93 940.629L1750.8 964.158L1758.24 999.991L1767.16 1042.99L1775.82 1084.5C1776.14 1085.86 1776.19 1087.26 1775.97 1088.63C1775.74 1090 1775.24 1091.31 1774.49 1092.48C1773.75 1093.65 1772.78 1094.67 1771.63 1095.46C1770.49 1096.25 1769.2 1096.8 1767.84 1097.08Z" fill="#2C4FA0"/>
<path opacity="0.58" d="M1751.06 964.157L1717.25 1009.19L1696.56 909.528C1707.79 903.984 1724.55 895.871 1735.64 890.462L1751.06 964.157Z" fill="#273657"/>
<path d="M1746.2 940.629C1735.12 953.881 1717.81 966.456 1709.56 972C1706.72 973.893 1704.96 975.11 1704.96 975.11L1703.47 1053.94L1697.66 1052.73L1671.83 1047.18C1668.99 1021.49 1664.25 970.513 1670.34 956.72C1673.59 949.554 1686.3 939.277 1701.04 930.487C1705.23 927.918 1709.69 925.484 1714.15 923.321C1722.55 918.951 1731.39 915.505 1740.52 913.044C1748.23 911.286 1753.78 911.827 1755.4 915.613C1755.54 915.748 1755.53 915.883 1755.53 916.154C1757.82 923.321 1753.22 932.11 1746.2 940.629Z" fill="#FFB2A8"/>
<path d="M1709.14 1022.44C1708.77 1022.47 1708.4 1022.42 1708.06 1022.3C1707.28 1021.99 1706.66 1021.4 1706.31 1020.65C1705.95 1019.9 1705.9 1019.04 1706.16 1018.25C1711.98 1002.7 1706.84 972.812 1706.7 972.541C1706.63 972.133 1706.64 971.714 1706.73 971.31C1706.82 970.905 1706.99 970.523 1707.23 970.183C1707.47 969.844 1707.77 969.556 1708.12 969.334C1708.47 969.112 1708.86 968.961 1709.27 968.89C1709.68 968.819 1710.1 968.829 1710.5 968.92C1710.91 969.011 1711.29 969.18 1711.63 969.419C1711.97 969.657 1712.26 969.96 1712.48 970.31C1712.7 970.661 1712.85 971.051 1712.92 971.459C1713.19 972.812 1718.47 1003.37 1712.11 1020.54C1711.83 1021.1 1711.4 1021.56 1710.88 1021.89C1710.36 1022.23 1709.76 1022.42 1709.14 1022.44Z" fill="#F27C85"/>
<path d="M1240.02 680.598C1240.02 680.598 1278.56 625.022 1235.56 526.986C1192.56 428.95 1097.76 465.19 1097.76 465.19C1097.76 465.19 990.521 386.761 898.158 517.115C823.781 622.047 845.283 729.683 895.589 773.36C945.895 817.036 810.123 840.024 850.557 956.585C890.991 1073.15 1053.94 1027.31 1111.01 994.447C1168.08 961.588 1231.91 964.969 1231.91 964.969C1231.91 964.969 1349.02 946.714 1360.65 845.568C1372.28 744.422 1249.49 721.705 1240.02 680.598Z" fill="#343A28"/>
<path d="M1458.55 2607.78H1203.37C1201.62 2600.61 1199.72 2592.5 1197.56 2583.57C1187.28 2539.49 1173.22 2474.31 1160.91 2399.81C1153.07 2352.61 1145.9 2301.63 1140.76 2249.84C1133.46 2175.74 1130.35 2100.02 1135.62 2031.46C1137.25 2011.18 1139.41 1991.57 1142.52 1972.78C1142.52 1972.51 1142.66 1972.37 1142.66 1972.1C1143.33 1968.18 1144.01 1964.26 1144.82 1960.34V1960.2C1152.8 1918.42 1166.19 1889.61 1182.95 1870.82C1188.78 1864.3 1195.47 1858.62 1202.83 1853.92C1212.65 1847.77 1223.59 1843.63 1235.02 1841.75C1244.68 1840.21 1254.49 1839.89 1264.23 1840.8C1277.58 1842.16 1290.73 1845.02 1303.44 1849.32C1306.83 1850.4 1310.07 1851.62 1313.45 1852.83C1381.47 1878.8 1443.27 1935.72 1443.27 1935.72L1443.68 1954.25L1449.22 2199.54L1449.9 2227.53L1450.71 2260.8L1458.01 2583.17L1458.55 2607.78Z" fill="#2C4FA0"/>
<path opacity="0.58" d="M1450.71 2261.07L1329.81 2315.16C1299.4 2328.76 1274.09 2351.68 1257.54 2380.6C1240.99 2409.52 1234.05 2442.95 1237.74 2476.07L1249.64 2583.44L1252.34 2607.64H1203.39C1201.63 2600.47 1199.74 2592.36 1197.57 2583.44C1187.3 2539.35 1173.23 2474.18 1160.93 2399.67C1153.08 2352.48 1145.91 2301.5 1140.78 2249.71C1133.47 2175.61 1130.36 2099.88 1135.64 2031.33C1137.26 2011.04 1139.42 1991.44 1142.53 1972.64C1142.53 1972.37 1142.67 1972.23 1142.67 1971.96C1143.35 1968.04 1144.02 1964.12 1144.83 1960.2C1165.25 1959.52 1188.78 1958.85 1213.39 1958.17L1243.01 1957.36C1263.84 1956.82 1285.07 1956.28 1305.35 1955.87L1321.44 1955.47C1369.72 1954.39 1411.24 1953.44 1430.03 1953.17C1436.12 1953.03 1439.91 1953.03 1440.58 1953.03C1441.71 1953.31 1442.77 1953.81 1443.69 1954.52L1449.24 2199.81L1449.91 2227.8L1450.71 2261.07Z" fill="#273657"/>
<path d="M1218.25 1914.22C1218.25 1914.22 1216.49 1930.45 1213.52 1958.17C1212.71 1965.2 1211.89 1972.78 1210.95 1981.16C1210.81 1981.84 1210.81 1982.51 1210.68 1983.32C1209.05 1998.06 1207.16 2014.69 1205.13 2032.95C1199.05 2087.85 1191.07 2157.08 1182.28 2230.1C1175.52 2286.08 1168.21 2344.23 1160.78 2399.81C1151.72 2467.82 1142.39 2532.05 1133.73 2583.57C1132.24 2591.96 1130.89 2600.07 1129.54 2607.78H821.077C820.941 2600.74 820.671 2592.63 820.536 2583.57C819.589 2514.74 821.212 2391.69 839.062 2257.42C840.55 2246.73 842.037 2235.92 843.66 2224.96C857.859 2130.71 880.443 2032.68 916.009 1945.19C917.226 1942.08 918.578 1938.97 919.795 1935.86C920.336 1934.51 920.877 1933.29 921.418 1931.94C933.453 1903.95 945.895 1881.37 958.742 1863.25C962.941 1857.29 967.455 1851.55 972.265 1846.07C984.706 1831.74 997.418 1821.33 1010.13 1814.16C1028.06 1803.74 1048.9 1799.42 1069.5 1801.86C1082.92 1803.51 1095.98 1807.35 1108.17 1813.21C1122.57 1820.12 1136.14 1828.65 1148.61 1838.64C1160.92 1848.5 1172.49 1859.26 1183.22 1870.82C1196 1884.37 1207.7 1898.88 1218.25 1914.22Z" fill="#2C4FA0"/>
<path opacity="0.58" d="M1210.95 1981.29C1210.81 1981.97 1210.81 1982.65 1210.68 1983.46C1209.05 1998.2 1207.16 2014.83 1205.13 2033.08C1199.05 2087.98 1191.07 2157.22 1182.28 2230.24L1140.76 2249.98L1007.15 2313.26C976.779 2327.67 950.659 2349.71 931.344 2377.22C912.03 2404.74 900.181 2436.79 896.955 2470.26C893.574 2505.68 890.193 2545.57 888.165 2583.71C887.759 2591.96 887.353 2599.93 887.083 2607.91H821.225C821.09 2600.88 820.82 2592.77 820.685 2583.71C819.738 2514.88 821.361 2391.83 839.211 2257.55C840.699 2246.87 842.186 2236.05 843.809 2225.1C858.008 2130.85 880.592 2032.81 916.157 1945.33C920.214 1945.73 924.542 1946.27 929.14 1946.81C964.3 1950.87 1014.06 1956.82 1065.05 1963.17C1091.28 1966.42 1117.92 1969.67 1142.94 1972.91C1147.27 1973.45 1151.46 1973.99 1155.52 1974.53C1175.53 1976.83 1194.46 1979.13 1210.95 1981.29Z" fill="#273657"/>
<path d="M1443.41 1935.86C1443.41 1935.86 1391.75 2033.35 1182.95 2033.35C986.329 2033.35 919.93 1935.86 919.93 1935.86C925.204 1808.35 839.739 1111.95 844.066 1098.16C846.635 1089.78 924.799 1048.94 984.435 1018.92C992.414 1014.87 1000.12 1010.94 1007.29 1007.43C1007.42 1007.43 1007.42 1007.29 1007.56 1007.29C1033.25 994.447 1051.51 985.658 1051.51 985.658C1051.51 985.658 1055.97 983.629 1063.82 980.925C1088.97 1008.65 1134.95 1055.3 1157.26 1052.32C1176.33 1049.75 1184.44 1010.13 1187.96 979.032C1204.86 984.17 1224.61 990.931 1244.75 998.098C1306.15 1020 1371.33 1046.51 1371.33 1046.51C1401.22 1358.06 1443.41 1935.86 1443.41 1935.86Z" fill="white"/>
<path opacity="0.75" d="M1299.94 1352.11C1292.5 1373.74 1072.21 1373.74 1068.02 1373.74C1063.83 1373.74 1089.12 1429.73 1049.9 1365.36C1010.68 1300.99 1005.41 1201.34 1003.25 1161.85C1001.76 1133.05 990.534 1057.73 984.449 1019.06C992.428 1015 1000.14 1011.08 1007.3 1007.56L1020.56 1013.65C1020.56 1013.65 1055.85 1189.17 1082.22 1232.98C1108.59 1276.79 1243.01 1284.09 1243.01 1284.09L1279.39 1161.31C1279.37 1161.18 1307.23 1330.47 1299.94 1352.11Z" fill="#CEDBEE"/>
<path d="M1586.75 2168.85C1444.36 2266.34 1297.9 2229.97 1297.9 2229.97C1311.15 2083.93 1305.88 1848.37 1295.06 1622.15C1294.79 1616.47 1294.52 1610.92 1294.25 1605.24C1289.52 1509.24 1283.97 1415.53 1278.43 1331.42C1265.72 1139.27 1253.41 997.828 1253.41 997.828C1264.09 998.505 1274.65 1000.36 1284.92 1003.37C1291.41 1005.13 1298.17 1007.29 1304.8 1009.59C1346.31 1024.06 1387.56 1046.51 1387.56 1046.51C1387.56 1046.51 1440.3 1140.35 1470.86 1526.68C1498.85 1880.69 1572.96 2124.9 1585.13 2163.44C1585.58 2165.27 1586.12 2167.07 1586.75 2168.85Z" fill="#6CC58D"/>
<path opacity="0.78" d="M1586.75 2168.85C1444.36 2266.34 1297.9 2229.97 1297.9 2229.97C1311.15 2083.93 1305.88 1848.37 1295.06 1622.15L1295.47 1622.01L1339.96 2190.08C1339.96 2190.08 1413.39 2230.37 1585 2163.44C1586.08 2167.09 1586.75 2168.85 1586.75 2168.85Z" fill="#3E9A83"/>
<path d="M1532.93 1910.03C1532.93 1910.03 1502.37 1925.31 1457.61 1938.56C1457.61 1938.56 1471.27 2012.4 1506.7 2016.59C1542.13 2020.78 1581.07 1989.14 1581.07 1989.14C1581.07 1989.14 1538.21 1940.59 1532.93 1910.03Z" fill="#3E9A83"/>
<path opacity="0.78" d="M1314.13 1541.28C1314.13 1541.28 1297.77 1445.55 1278.43 1331.42C1265.72 1139.27 1253.41 997.828 1253.41 997.828C1264.09 998.505 1274.65 1000.36 1284.92 1003.37C1291.41 1005.13 1298.17 1007.29 1304.8 1009.59C1324.27 1042.32 1372.55 1124.67 1374.31 1138.59C1376.47 1156.04 1312.1 1220.81 1312.1 1220.81C1312.1 1220.81 1387.42 1270.3 1388.51 1289.91C1389.59 1309.51 1314.13 1541.28 1314.13 1541.28Z" fill="#3E9A83"/>
<path d="M1294.25 1605.38C1278.83 1290.18 1253.27 997.963 1253.27 997.963C1263.95 998.641 1274.52 1000.5 1284.78 1003.51C1304.26 1034.88 1356.59 1121.01 1355.64 1138.59C1354.56 1160.23 1291.27 1217.16 1291.27 1217.16C1291.27 1217.16 1357.13 1274.09 1359.84 1301.54C1362.41 1326.28 1305.07 1561.16 1294.25 1605.38Z" fill="#ABDDA8"/>
<path d="M1215.54 1076.12L1204.19 1082.21C1193.1 1078.83 1179.3 1071.66 1162.26 1059.76C1162.25 1059.86 1162.21 1059.96 1162.13 1060.03C1161.86 1060.57 1161.18 1061.92 1160.1 1063.95C1154.42 1074.36 1137.79 1101.27 1114.39 1110.6C1093.03 1106 1064.49 1097.22 1046.51 1080.85C1039.19 1074.53 1033.81 1066.29 1030.95 1057.05C1027.44 1045.02 1028.52 1030.42 1036.91 1012.97C1043.8 998.504 1047.86 982.277 1049.75 965.239C1059.76 875.587 1010.54 763.624 1010.54 763.624C1010.54 763.624 1116.42 756.457 1160.24 801.351C1172.27 813.656 1179.57 829.883 1178.76 851.112C1177.54 877.925 1179.77 904.783 1185.39 931.028C1186.88 937.654 1188.5 943.874 1190.12 949.418C1199.99 982.277 1212.57 998.639 1212.57 998.639L1215.54 1076.12Z" fill="#FFB2A8"/>
<path d="M1185.25 931.028C1077.74 935.761 1067.87 833.398 1067.87 833.398L1090.59 795.401L1160.24 801.215C1172.27 813.521 1179.57 829.747 1178.76 850.977C1177.55 882.889 1180.52 909.528 1185.25 931.028Z" fill="#F27C85"/>
<path d="M1151.19 860.172C1134.27 864.309 1116.71 865.072 1099.5 862.418C1082.29 859.763 1065.77 853.743 1050.89 844.701C1036 835.659 1023.05 823.773 1012.76 809.722C1002.48 795.671 995.061 779.731 990.94 762.812L968.627 671.673C964.489 654.759 963.726 637.195 966.381 619.985C969.036 602.776 975.057 586.258 984.099 571.377C993.142 556.495 1005.03 543.542 1019.08 533.257C1033.13 522.972 1049.07 515.556 1065.99 511.435C1082.91 507.298 1100.47 506.535 1117.68 509.19C1134.9 511.844 1151.41 517.865 1166.3 526.907C1181.18 535.948 1194.13 547.835 1204.42 561.885C1214.7 575.936 1222.12 591.877 1226.24 608.795L1248.55 699.934C1256.87 734.092 1251.29 770.154 1233.03 800.199C1214.77 830.243 1185.34 851.813 1151.19 860.172Z" fill="#FFB2A8"/>
<path d="M972.265 737.796C972.265 737.796 1103.98 699.123 1103.44 554.842C1103.44 554.842 1175.65 621.776 1228.53 589.323C1228.53 589.323 1173.76 440.444 1032.85 499.265C891.938 558.087 972.265 737.796 972.265 737.796Z" fill="#343A28"/>
<path d="M998.115 793.768C1011.28 781.172 1008.27 756.655 991.391 739.009C974.509 721.362 950.148 717.268 936.98 729.865C923.811 742.461 926.822 766.977 943.704 784.624C960.586 802.27 984.947 806.364 998.115 793.768Z" fill="#FFB2A8"/>
<path d="M990.927 773.63C990.325 772.521 989.549 771.517 988.628 770.655C984.3 766.058 977.944 764.976 974.564 768.221C971.183 771.467 971.994 777.822 976.322 782.42C977.374 783.561 978.607 784.521 979.973 785.259C971.724 787.828 960.77 784.313 952.656 775.794C942.243 764.841 940.35 749.696 948.464 741.853C956.578 734.01 971.724 736.579 982.137 747.532C989.845 755.646 992.969 765.787 990.927 773.63Z" fill="#F27C85"/>
<path d="M1104.66 674.107C1090.32 673.296 1068.41 690.739 1068.68 697.23C1068.95 703.72 1086.13 694.255 1101.68 688.576C1117.23 682.896 1121.83 675.054 1104.66 674.107Z" fill="#343A28"/>
<path d="M1102.9 722.057C1109.32 722.057 1114.53 716.85 1114.53 710.428C1114.53 704.005 1109.32 698.799 1102.9 698.799C1096.47 698.799 1091.27 704.005 1091.27 710.428C1091.27 716.85 1096.47 722.057 1102.9 722.057Z" fill="#343A28"/>
<path d="M1182.14 655.176C1194.45 647.739 1221.9 653.283 1224.74 659.097C1227.58 664.912 1207.84 664.506 1191.47 666.535C1175.11 668.563 1167.42 663.965 1182.14 655.176Z" fill="#343A28"/>
<path d="M1200.7 698.258C1207.12 698.258 1212.33 693.051 1212.33 686.629C1212.33 680.206 1207.12 675 1200.7 675C1194.27 675 1189.07 680.206 1189.07 686.629C1189.07 693.051 1194.27 698.258 1200.7 698.258Z" fill="#343A28"/>
<path d="M1170.24 767.004C1169.58 767.006 1168.93 766.778 1168.41 766.36C1167.9 765.941 1167.54 765.357 1167.4 764.705C1167.23 763.953 1167.36 763.163 1167.77 762.506C1168.17 761.848 1168.82 761.376 1169.57 761.19C1181.2 758.62 1200.4 751.859 1201.89 744.828C1202.29 742.8 1200.94 740.501 1197.83 737.932C1175.92 720.623 1164.7 688.981 1164.29 687.629C1164.15 687.271 1164.09 686.888 1164.1 686.505C1164.11 686.121 1164.2 685.743 1164.37 685.395C1164.53 685.046 1164.76 684.734 1165.04 684.475C1165.32 684.217 1165.66 684.019 1166.02 683.892C1166.38 683.765 1166.77 683.713 1167.15 683.737C1167.53 683.762 1167.91 683.863 1168.25 684.035C1168.59 684.207 1168.9 684.446 1169.15 684.738C1169.4 685.03 1169.59 685.37 1169.7 685.736C1169.84 686.006 1180.79 717.107 1201.35 733.469C1206.48 737.526 1208.51 741.718 1207.57 746.18C1206.21 751.995 1199.72 757.133 1187.55 761.731C1182.08 763.792 1176.48 765.509 1170.78 766.869C1170.62 766.977 1170.43 767.024 1170.24 767.004ZM1140.09 791.615C1137.96 791.734 1135.84 791.313 1133.93 790.391C1132.01 789.468 1130.36 788.075 1129.13 786.341C1121.42 775.118 1128.73 763.488 1129.13 763.083C1129.35 762.763 1129.62 762.489 1129.94 762.275C1130.26 762.061 1130.62 761.912 1130.99 761.837C1131.37 761.762 1131.76 761.761 1132.13 761.836C1132.51 761.91 1132.87 762.058 1133.19 762.271C1133.51 762.484 1133.78 762.758 1134 763.078C1134.21 763.397 1134.36 763.755 1134.44 764.132C1134.51 764.508 1134.51 764.896 1134.44 765.273C1134.36 765.65 1134.21 766.008 1134 766.328C1133.73 766.734 1128.46 775.253 1134 783.231C1139 790.533 1155.1 781.202 1155.37 781.067C1156.01 780.692 1156.78 780.585 1157.5 780.767C1158.22 780.95 1158.85 781.409 1159.24 782.046C1159.63 782.682 1159.75 783.446 1159.58 784.173C1159.42 784.9 1158.97 785.532 1158.34 785.935C1157.67 786.206 1148.48 791.615 1140.09 791.615Z" fill="#F27C85"/>
<path opacity="0.75" d="M1249.22 1103.17C1218.38 1116.96 1171.19 1069.5 1162.13 1060.03C1161.18 1058.95 1160.64 1058.41 1160.64 1058.41C1160.64 1058.41 1160.51 1060.44 1160.1 1063.95C1157.67 1085.05 1146.04 1158.2 1102.63 1146.44C1070.17 1137.65 1040.83 1082.48 1023.92 1044.07C1014.46 1022.71 1009.05 1006.48 1009.05 1006.48C1009.05 1006.48 1033.25 995.394 1065.71 983.224C1091.13 1011.08 1135.35 1055.3 1157.13 1052.32C1176.19 1049.75 1184.31 1010.13 1187.82 979.032C1188.9 969.026 1189.58 959.83 1189.99 953.069C1200.53 953.069 1209.87 954.422 1217.03 957.667C1219.53 958.791 1221.89 960.197 1224.06 961.859C1266.66 996.746 1270.58 1093.7 1249.22 1103.17Z" fill="#CEDBEE"/>
<path d="M1204.32 1082.21C1193.23 1078.83 1179.44 1071.66 1162.4 1059.76C1162.39 1059.86 1162.34 1059.96 1162.26 1060.03C1161.99 1060.57 1161.32 1061.92 1160.24 1063.95C1154.56 1074.36 1137.92 1101.27 1114.53 1110.6C1095.6 1118.31 1072.2 1114.39 1046.64 1080.85C1040.95 1073.26 1035.76 1065.31 1031.09 1057.05C1028.79 1053 1026.49 1048.67 1024.06 1044.07C1018.65 1033.39 1013.1 1021.22 1007.42 1007.43C1007.29 1007.02 1007.02 1006.48 1006.88 1006.08C1006.88 1006.08 1015.81 981.331 1046.37 961.318C1046.37 961.318 1047.59 962.805 1049.75 965.239C1052.73 968.755 1057.6 974.434 1063.68 981.06C1064.36 981.736 1065.03 982.548 1065.71 983.224C1091.13 1011.08 1135.35 1055.3 1157.13 1052.32C1176.19 1049.75 1184.31 1010.13 1187.82 979.032C1188.9 969.025 1189.58 959.83 1189.99 953.069C1190.09 951.855 1190.14 950.637 1190.12 949.418C1190.39 944.55 1190.39 941.711 1190.39 941.711C1199.97 945.817 1208.94 951.232 1217.03 957.802C1228.53 966.997 1240.29 980.249 1244.62 997.963V998.233C1245.85 1003.91 1266.8 1101.27 1204.32 1082.21Z" fill="white"/>
<path d="M1069.36 1814.43L1068.95 1848.51C1067.87 1911.93 1064.9 1975.34 1059.76 2037.28C1053.4 2114.08 1043.67 2188.72 1029.47 2258.36C1029.47 2258.36 885.041 2303.12 689.903 2203.6C689.903 2203.6 704.778 2178.31 725.198 2131.8C749.54 2076.63 781.86 1991.3 806.607 1882.72C812.963 1854.73 818.913 1824.98 824.052 1794.01C834.731 1729.69 841.191 1664.73 843.39 1599.56C843.931 1585.5 844.201 1571.17 844.201 1556.83C844.201 1546.96 844.336 1537.36 844.336 1527.9C845.148 1373.88 845.148 1273.14 844.877 1208.23C844.472 1120.34 843.66 1098.16 843.66 1098.16C843.66 1098.16 884.094 1056.24 960.364 1023.11C966.72 1020.41 973.347 1017.57 980.243 1015C984.3 1013.51 988.357 1012.03 992.685 1010.54C997.282 1008.92 1001.88 1007.43 1006.61 1005.94C1006.61 1005.94 1051.24 1276.11 1065.17 1600.24C1065.71 1612 1066.11 1623.9 1066.52 1635.8C1067.06 1651.62 1067.6 1667.58 1068.01 1683.67C1069.36 1726.81 1069.77 1770.62 1069.36 1814.43Z" fill="#6CC58D"/>
<path d="M782.806 1932.75C783.459 1933.11 784.137 1933.43 784.835 1933.7C794.707 1938.29 840.009 1958.17 893.02 1959.66C887.753 1977.96 881.293 1995.89 873.681 2013.34C866.274 2030.31 854.076 2044.75 838.582 2054.88C823.088 2065.02 804.973 2070.41 786.458 2070.41C776.959 2070.43 767.515 2068.97 758.465 2066.08C742.756 2061.29 727.851 2054.18 714.244 2044.98C714.244 2044.98 763.739 2000.23 782.806 1932.75Z" fill="#3E9A83"/>
<path opacity="0.78" d="M1068.95 1848.51L865.432 1843.37L806.742 1882.85C831.192 1775.88 843.844 1666.56 844.472 1556.83C845.418 1386.32 845.418 1277.06 845.148 1208.23C855.561 1189.3 862.863 1175.91 862.863 1175.91L892.884 1237.03L890.721 1501.53C890.523 1521.73 896.575 1541.5 908.05 1558.13C919.525 1574.76 935.861 1587.44 954.82 1594.43L1066.79 1635.8C1069.23 1705.44 1070.17 1776.97 1068.95 1848.51Z" fill="#3E9A83"/>
<path opacity="0.78" d="M1019.46 1297.21C1019.46 1297.21 947.247 1372.53 930.343 1329.39C913.439 1286.26 988.898 1232.98 988.898 1232.98C988.898 1232.98 926.692 1171.32 919.93 1143.06C914.386 1119.93 948.058 1048.67 960.635 1023.25C966.991 1020.54 973.617 1017.71 980.514 1015.14C984.571 1013.65 988.628 1012.16 992.955 1010.67L996.877 1018.38L1019.46 1297.21Z" fill="#3E9A83"/>
<path d="M940.891 1317.76C945.083 1295.04 1007.83 1231.9 1007.83 1231.9C1007.83 1231.9 936.699 1161.85 937.781 1131.7C938.592 1107.49 968.749 1040.56 980.514 1015.14C988.898 1011.89 997.688 1008.92 1006.88 1005.94C1006.88 1005.94 1051.51 1276.11 1065.44 1600.24C1047.72 1527.49 936.834 1339.67 940.891 1317.76Z" fill="#ABDDA8"/>
<path opacity="0.78" d="M1059.76 2037.41C1053.4 2114.22 1043.67 2188.86 1029.47 2258.5C1029.47 2258.5 885.041 2303.26 689.903 2203.73C689.903 2203.73 704.778 2178.45 725.198 2131.93L720.33 2188.72C720.33 2188.72 878.955 2255.12 987.681 2226.72C987.816 2226.59 1036.09 2135.45 1059.76 2037.41Z" fill="#3E9A83"/>
<path d="M1343.34 1404.3L1284.38 1730.73L1266.39 1829.98L1243.94 1954.25C1243.12 1958.84 1241.4 1963.22 1238.88 1967.14C1236.35 1971.05 1233.08 1974.44 1229.25 1977.09C1225.42 1979.74 1221.1 1981.61 1216.54 1982.58C1211.99 1983.56 1207.28 1983.63 1202.7 1982.78L876.251 1923.69L854.479 1919.77C849.892 1918.95 845.513 1917.22 841.593 1914.7C837.674 1912.18 834.291 1908.91 831.64 1905.08C828.988 1901.25 827.12 1896.93 826.143 1892.37C825.166 1887.81 825.098 1883.11 825.945 1878.53L912.898 1398.22L925.475 1328.58C927.162 1319.33 932.455 1311.13 940.19 1305.77C947.924 1300.42 957.467 1298.36 966.72 1300.05L1049.48 1315.06L1237.32 1349L1314.94 1363.06C1319.51 1363.9 1323.88 1365.64 1327.78 1368.17C1331.68 1370.69 1335.05 1373.97 1337.69 1377.8C1340.33 1381.63 1342.18 1385.94 1343.15 1390.49C1344.12 1395.04 1344.18 1399.73 1343.34 1404.3Z" fill="#FCCD89"/>
<path d="M1212.16 1371.17L1065.03 1344.54C1059.64 1343.54 1054.86 1340.45 1051.74 1335.94C1048.62 1331.43 1047.42 1325.86 1048.4 1320.47L1052.19 1299.24C1053.09 1293.95 1056.06 1289.23 1060.44 1286.12C1062.68 1284.51 1065.22 1283.36 1067.92 1282.76C1070.61 1282.15 1073.41 1282.1 1076.12 1282.6L1223.25 1309.24C1228.65 1310.24 1233.43 1313.33 1236.55 1317.84C1239.66 1322.35 1240.87 1327.92 1239.89 1333.31L1236.1 1354.54C1235.63 1357.21 1234.64 1359.76 1233.18 1362.05C1231.72 1364.33 1229.83 1366.3 1227.6 1367.85C1225.37 1369.39 1222.86 1370.49 1220.21 1371.06C1217.57 1371.63 1214.83 1371.67 1212.16 1371.17Z" fill="#F28C70"/>
<path opacity="0.56" d="M1284.38 1730.73L1266.39 1829.98L1096.41 1842.29C1096.41 1842.29 903.973 1845.4 876.251 1923.83L854.479 1919.9C849.892 1919.08 845.513 1917.36 841.593 1914.84C837.674 1912.32 834.291 1909.04 831.64 1905.21C828.988 1901.38 827.12 1897.06 826.143 1892.5C825.166 1887.95 825.098 1883.24 825.945 1878.66L912.898 1398.35L918.713 1502.2C920.317 1530.08 929.252 1557.04 944.615 1580.35C959.978 1603.67 981.225 1622.52 1006.21 1634.99C1058.68 1661.22 1125.62 1689.89 1174.16 1693.68C1230.15 1698.14 1265.45 1716.8 1284.38 1730.73Z" fill="#F28C70"/>
<path d="M1124.26 1717.88C1124.26 1717.88 1238.67 1697.87 1244.48 1712.61C1250.3 1727.35 1189.72 1737.35 1189.72 1737.35C1189.72 1737.35 1248.68 1745.06 1300.88 1732.22C1353.07 1719.37 1311.02 1779.95 1234.48 1769.4C1234.48 1769.4 1276.13 1776.84 1318.32 1764.13C1360.51 1751.42 1321.97 1813.21 1237.72 1797.93C1237.72 1797.93 1269.91 1809.56 1314.67 1804.29C1359.43 1799.02 1293.03 1852.83 1215.54 1825.92C1215.54 1825.92 1216.63 1835.39 1245.57 1845.94C1274.51 1856.49 1218.11 1886.5 1110.06 1800.1C1002.02 1713.69 1125.89 1716.8 1125.89 1716.8L1124.26 1717.88Z" fill="#FFB2A8"/>
<path d="M1266.8 1773.19C1254.63 1773.19 1236.64 1772.92 1217.84 1771.43C1217.11 1771.33 1216.44 1770.95 1215.97 1770.38C1215.51 1769.8 1215.27 1769.07 1215.33 1768.33C1215.38 1767.59 1215.71 1766.9 1216.25 1766.4C1216.79 1765.89 1217.51 1765.61 1218.25 1765.62C1251.38 1768.19 1281.94 1767.24 1282.21 1767.24C1282.98 1767.22 1283.73 1767.51 1284.29 1768.04C1284.85 1768.58 1285.17 1769.31 1285.19 1770.08C1285.21 1770.85 1284.92 1771.6 1284.39 1772.15C1283.85 1772.71 1283.12 1773.04 1282.35 1773.05C1282.48 1772.92 1276.4 1773.19 1266.8 1773.19ZM1275.32 1805.37C1274.78 1805.37 1233.4 1803.75 1203.92 1796.31C1203.53 1796.23 1203.17 1796.08 1202.84 1795.86C1202.52 1795.64 1202.24 1795.35 1202.03 1795.02C1201.82 1794.69 1201.68 1794.32 1201.61 1793.94C1201.55 1793.55 1201.56 1793.15 1201.65 1792.77C1201.74 1792.39 1201.91 1792.03 1202.14 1791.72C1202.37 1791.4 1202.67 1791.13 1203.01 1790.93C1203.34 1790.73 1203.72 1790.61 1204.11 1790.55C1204.49 1790.5 1204.89 1790.53 1205.27 1790.63C1234.21 1797.8 1274.91 1799.56 1275.32 1799.56C1275.7 1799.56 1276.08 1799.65 1276.43 1799.8C1276.78 1799.95 1277.09 1800.18 1277.36 1800.45C1277.62 1800.73 1277.83 1801.05 1277.97 1801.41C1278.1 1801.77 1278.17 1802.15 1278.16 1802.53C1278.17 1802.91 1278.1 1803.28 1277.96 1803.63C1277.82 1803.98 1277.61 1804.29 1277.35 1804.56C1277.08 1804.83 1276.76 1805.03 1276.41 1805.17C1276.07 1805.31 1275.69 1805.38 1275.32 1805.37ZM1232.45 1835.66C1232.21 1835.7 1231.98 1835.65 1231.77 1835.53C1218.37 1831.91 1205.33 1827.07 1192.83 1821.06C1192.47 1820.9 1192.15 1820.66 1191.88 1820.38C1191.61 1820.09 1191.41 1819.75 1191.27 1819.38C1191.14 1819.01 1191.08 1818.62 1191.1 1818.23C1191.13 1817.83 1191.22 1817.45 1191.4 1817.1C1191.57 1816.75 1191.81 1816.43 1192.11 1816.17C1192.4 1815.91 1192.75 1815.72 1193.12 1815.6C1193.49 1815.47 1193.88 1815.43 1194.28 1815.46C1194.67 1815.49 1195.05 1815.6 1195.4 1815.78C1207.64 1821.55 1220.35 1826.25 1233.4 1829.85C1234.12 1830.06 1234.74 1830.54 1235.12 1831.19C1235.5 1831.85 1235.61 1832.63 1235.42 1833.36C1235.23 1834.01 1234.84 1834.57 1234.3 1834.99C1233.77 1835.4 1233.12 1835.63 1232.45 1835.66ZM1213.79 1741.68H1213.52L1164.97 1736.41C1164.2 1736.32 1163.49 1735.93 1163.01 1735.32C1162.53 1734.71 1162.31 1733.93 1162.4 1733.16C1162.49 1732.39 1162.88 1731.69 1163.49 1731.21C1164.1 1730.72 1164.87 1730.5 1165.64 1730.59L1214.19 1735.87C1214.58 1735.91 1214.95 1736.03 1215.28 1736.21C1215.62 1736.4 1215.92 1736.65 1216.16 1736.95C1216.39 1737.25 1216.57 1737.6 1216.68 1737.97C1216.78 1738.34 1216.81 1738.73 1216.76 1739.11C1216.65 1739.82 1216.29 1740.47 1215.75 1740.94C1215.2 1741.41 1214.51 1741.67 1213.79 1741.68Z" fill="#F27C85"/>
<path d="M1137.52 1709.77L1120.34 1771.97L1116.15 1787.25L1108.98 1813.21C1108.98 1813.21 746.835 1835.93 657.177 1707.74C644.601 1689.76 637.569 1665.55 635.134 1637.16C619.989 1463.67 773.205 1133.73 843.796 1098.43C926.016 1057.33 950.222 1263.94 893.29 1388.35L854.073 1500.45L839.739 1541.42L822.159 1591.86L863.81 1607.41L1137.52 1709.77Z" fill="#6CC58D"/>
<path opacity="0.78" d="M863.945 1607.27L775.774 1623.77C774.589 1624.03 773.358 1624.01 772.182 1623.7C771.007 1623.4 769.921 1622.82 769.013 1622.01C768.107 1621.26 767.372 1620.32 766.854 1619.27C766.337 1618.21 766.049 1617.06 766.011 1615.88C765.973 1614.71 766.184 1613.54 766.632 1612.45C767.079 1611.36 767.753 1610.38 768.607 1609.57L840.009 1541.28L822.429 1591.72L863.945 1607.27Z" fill="#3E9A83"/>
<path opacity="0.78" d="M1116.29 1787.12L1109.12 1813.08C1109.12 1813.08 746.97 1835.8 657.312 1707.61C644.736 1689.62 637.704 1665.42 635.27 1637.02C646.629 1672.85 670.971 1712.88 722.088 1734.24C825.675 1777.52 1063.82 1804.83 1116.29 1787.12Z" fill="#3E9A83"/>
<path d="M1044.61 942.116C1046.78 941.035 1048.94 939.953 1050.97 939.006C1050.97 945.091 1050.83 951.041 1050.43 956.855C1005.4 980.79 940.756 1048.54 886.799 1234.6L871.653 1230.14C896.535 1144.27 926.151 1075.31 959.553 1025.14C985.788 985.658 1014.46 957.667 1044.61 942.116ZM1380.53 1257.45L1364.7 1257.86C1362.54 1172.26 1350.37 1102.35 1328.73 1049.89C1311.15 1007.29 1287.08 976.057 1257.33 956.991C1236.05 943.33 1211.47 935.668 1186.2 934.814C1185.93 933.597 1185.66 932.245 1185.39 931.028C1184.58 927.242 1183.77 923.185 1183.09 918.993C1212.48 919.439 1241.17 928.003 1265.99 943.739C1298.44 964.563 1324.54 998.369 1343.47 1043.94C1365.79 1098.16 1378.23 1169.96 1380.53 1257.45ZM916.009 1455.69L904.244 1445.14C904.92 1444.46 966.585 1375.5 966.855 1331.96C966.991 1311 943.731 1289.91 924.258 1275.98C909.879 1265.89 894.732 1256.93 878.955 1249.2L885.582 1234.87C902.277 1242.85 918.249 1252.26 933.318 1263C966.315 1286.66 982.948 1309.92 982.813 1332.1C982.272 1381.59 918.713 1452.71 916.009 1455.69Z" fill="#2C4FA0"/>
<path d="M910.234 1466.51C919.122 1466.51 926.327 1459.3 926.327 1450.41C926.327 1441.53 919.122 1434.32 910.234 1434.32C901.347 1434.32 894.142 1441.53 894.142 1450.41C894.142 1459.3 901.347 1466.51 910.234 1466.51Z" fill="#343468"/>
<path d="M832.842 1453.25C830.272 1450.14 771.041 1375.37 773.611 1325.88C774.692 1303.7 792.678 1281.39 827.027 1259.75C842.723 1249.96 859.237 1241.54 876.386 1234.6L882.201 1249.34C865.97 1256.01 850.32 1264.02 835.411 1273.27C814.991 1286.12 790.514 1305.86 789.433 1326.69C787.269 1370.23 844.607 1442.71 845.283 1443.38L832.842 1453.25Z" fill="#2C4FA0"/>
<path d="M839.062 1464.38C847.95 1464.38 855.155 1457.18 855.155 1448.29C855.155 1439.4 847.95 1432.2 839.062 1432.2C830.175 1432.2 822.97 1439.4 822.97 1448.29C822.97 1457.18 830.175 1464.38 839.062 1464.38Z" fill="#343468"/>
<path d="M879.226 1219.73L883.553 1219.86C889.715 1220.06 895.546 1222.69 899.777 1227.18C904.007 1231.66 906.294 1237.63 906.137 1243.8C906.056 1246.85 905.372 1249.86 904.124 1252.66C902.876 1255.45 901.089 1257.96 898.864 1260.06C896.64 1262.16 894.023 1263.8 891.163 1264.88C888.303 1265.97 885.258 1266.48 882.201 1266.38L877.874 1266.24C871.712 1266.04 865.88 1263.41 861.65 1258.93C857.419 1254.44 855.133 1248.47 855.29 1242.31C855.367 1239.25 856.048 1236.24 857.295 1233.44C858.542 1230.65 860.33 1228.13 862.555 1226.03C864.78 1223.93 867.399 1222.3 870.26 1221.21C873.121 1220.13 876.168 1219.63 879.226 1219.73Z" fill="#343468"/>
<path d="M1368.36 1325.2C1389.04 1325.2 1405.81 1308.43 1405.81 1287.74C1405.81 1267.06 1389.04 1250.29 1368.36 1250.29C1347.67 1250.29 1330.9 1267.06 1330.9 1287.74C1330.9 1308.43 1347.67 1325.2 1368.36 1325.2Z" fill="#343468"/>
<path d="M3339.34 1951.68H2849C2834.62 1951.68 2820.82 1945.97 2810.65 1935.8C2800.48 1925.63 2794.77 1911.84 2794.77 1897.46V1282.06C2794.76 1274.96 2796.15 1267.92 2798.87 1261.35C2801.58 1254.79 2805.57 1248.82 2810.59 1243.8C2815.62 1238.77 2821.59 1234.79 2828.15 1232.07C2834.72 1229.36 2841.76 1227.97 2848.86 1227.97H3339.22C3353.6 1227.97 3367.4 1233.69 3377.57 1243.86C3387.74 1254.03 3393.45 1267.82 3393.45 1282.2V1897.59C3393.48 1904.7 3392.09 1911.75 3389.38 1918.32C3386.67 1924.9 3382.69 1930.87 3377.66 1935.9C3372.63 1940.93 3366.65 1944.91 3360.08 1947.62C3353.5 1950.33 3346.46 1951.71 3339.34 1951.68Z" fill="#CEDBEE"/>
<path d="M2859.95 1297.48H3328.66V1872.04H2859.95V1297.48Z" fill="#F5F5F7"/>
<path d="M2974.76 1472.32C2971.6 1472.31 2968.55 1471.1 2966.24 1468.94L2914.6 1421.34C2912.14 1419.06 2910.69 1415.9 2910.56 1412.56C2910.44 1409.21 2911.64 1405.95 2913.92 1403.49C2916.2 1401.04 2919.36 1399.58 2922.71 1399.46C2926.05 1399.33 2929.32 1400.54 2931.77 1402.82L2972.21 1440L3031.17 1345.62C3032.02 1344.15 3033.16 1342.86 3034.51 1341.84C3035.87 1340.82 3037.42 1340.08 3039.07 1339.67C3040.71 1339.26 3042.43 1339.18 3044.1 1339.45C3045.78 1339.71 3047.39 1340.31 3048.83 1341.21C3050.27 1342.1 3051.52 1343.28 3052.5 1344.67C3053.48 1346.06 3054.16 1347.63 3054.52 1349.29C3054.88 1350.95 3054.9 1352.67 3054.58 1354.34C3054.26 1356.01 3053.61 1357.59 3052.67 1359L2985.73 1466.37C2984.74 1467.95 2983.42 1469.29 2981.85 1470.3C2980.29 1471.3 2978.52 1471.95 2976.67 1472.18C2975.98 1472.18 2975.45 1472.32 2974.76 1472.32ZM3257.39 1381.86H3115.81C3115.04 1381.86 3114.28 1381.72 3113.58 1381.43C3112.87 1381.14 3112.23 1380.71 3111.68 1380.17C3111.14 1379.62 3110.72 1378.98 3110.42 1378.27C3110.13 1377.57 3109.99 1376.81 3109.99 1376.04C3109.99 1375.28 3110.13 1374.52 3110.42 1373.81C3110.72 1373.1 3111.14 1372.46 3111.68 1371.92C3112.23 1371.38 3112.87 1370.95 3113.58 1370.66C3114.28 1370.37 3115.04 1370.22 3115.81 1370.23H3257.39C3258.16 1370.22 3258.92 1370.37 3259.63 1370.66C3260.33 1370.95 3260.98 1371.38 3261.52 1371.92C3262.06 1372.46 3262.49 1373.1 3262.78 1373.81C3263.07 1374.52 3263.22 1375.28 3263.21 1376.04C3263.22 1376.81 3263.07 1377.57 3262.78 1378.27C3262.49 1378.98 3262.06 1379.62 3261.52 1380.17C3260.98 1380.71 3260.33 1381.14 3259.63 1381.43C3258.92 1381.72 3258.16 1381.86 3257.39 1381.86ZM3194.92 1413.09H3115.67C3114.91 1413.1 3114.15 1412.95 3113.44 1412.66C3112.73 1412.37 3112.09 1411.94 3111.55 1411.4C3111.01 1410.86 3110.58 1410.22 3110.29 1409.51C3110 1408.8 3109.85 1408.04 3109.86 1407.28C3109.85 1406.51 3110 1405.75 3110.29 1405.05C3110.58 1404.34 3111.01 1403.7 3111.55 1403.16C3112.09 1402.61 3112.73 1402.19 3113.44 1401.9C3114.15 1401.61 3114.91 1401.46 3115.67 1401.46H3194.92C3195.68 1401.46 3196.44 1401.61 3197.15 1401.9C3197.86 1402.19 3198.5 1402.61 3199.04 1403.16C3199.58 1403.7 3200.01 1404.34 3200.3 1405.05C3200.59 1405.75 3200.74 1406.51 3200.73 1407.28C3200.74 1408.04 3200.59 1408.8 3200.3 1409.51C3200.01 1410.22 3199.58 1410.86 3199.04 1411.4C3198.5 1411.94 3197.86 1412.37 3197.15 1412.66C3196.44 1412.95 3195.68 1413.1 3194.92 1413.09ZM3194.92 1441.76H3115.67C3114.91 1441.77 3114.15 1441.62 3113.44 1441.33C3112.73 1441.04 3112.09 1440.61 3111.55 1440.07C3111.01 1439.53 3110.58 1438.88 3110.29 1438.18C3110 1437.47 3109.85 1436.71 3109.86 1435.95C3109.85 1435.18 3110 1434.42 3110.29 1433.71C3110.58 1433.01 3111.01 1432.36 3111.55 1431.82C3112.09 1431.28 3112.73 1430.85 3113.44 1430.56C3114.15 1430.27 3114.91 1430.13 3115.67 1430.13H3194.92C3195.68 1430.13 3196.44 1430.27 3197.15 1430.56C3197.86 1430.85 3198.5 1431.28 3199.04 1431.82C3199.58 1432.36 3200.01 1433.01 3200.3 1433.71C3200.59 1434.42 3200.74 1435.18 3200.73 1435.95C3200.74 1436.71 3200.59 1437.47 3200.3 1438.18C3200.01 1438.88 3199.58 1439.53 3199.04 1440.07C3198.5 1440.61 3197.86 1441.04 3197.15 1441.33C3196.44 1441.62 3195.68 1441.77 3194.92 1441.76ZM2974.76 1633.77C2971.6 1633.76 2968.55 1632.55 2966.24 1630.39L2914.58 1582.8C2913.37 1581.67 2912.39 1580.31 2911.69 1578.81C2911 1577.3 2910.61 1575.67 2910.55 1574.01C2910.49 1572.35 2910.75 1570.7 2911.33 1569.15C2911.9 1567.59 2912.78 1566.16 2913.91 1564.95C2915.04 1563.73 2916.39 1562.75 2917.9 1562.06C2919.41 1561.36 2921.04 1560.98 2922.69 1560.91C2924.35 1560.85 2926 1561.11 2927.56 1561.69C2929.12 1562.27 2930.54 1563.14 2931.76 1564.27L2972.19 1601.46L3031.15 1507.07C3032 1505.6 3033.14 1504.32 3034.5 1503.3C3035.86 1502.27 3037.4 1501.54 3039.05 1501.12C3040.7 1500.71 3042.41 1500.64 3044.09 1500.9C3045.77 1501.17 3047.38 1501.76 3048.82 1502.66C3050.26 1503.56 3051.51 1504.74 3052.48 1506.13C3053.46 1507.52 3054.15 1509.09 3054.51 1510.75C3054.87 1512.41 3054.89 1514.12 3054.57 1515.79C3054.25 1517.46 3053.6 1519.05 3052.66 1520.46L2985.72 1627.82C2984.73 1629.4 2983.41 1630.75 2981.84 1631.75C2980.27 1632.76 2978.5 1633.4 2976.66 1633.64C2976.03 1633.75 2975.4 1633.8 2974.76 1633.77ZM3257.39 1543.45H3115.81C3115.04 1543.45 3114.28 1543.31 3113.58 1543.02C3112.87 1542.72 3112.23 1542.3 3111.68 1541.76C3111.14 1541.21 3110.72 1540.57 3110.42 1539.86C3110.13 1539.16 3109.99 1538.4 3109.99 1537.63C3109.99 1536.87 3110.13 1536.11 3110.42 1535.4C3110.72 1534.69 3111.14 1534.05 3111.68 1533.51C3112.23 1532.97 3112.87 1532.54 3113.58 1532.25C3114.28 1531.96 3115.04 1531.81 3115.81 1531.82H3257.39C3258.16 1531.81 3258.92 1531.96 3259.63 1532.25C3260.33 1532.54 3260.98 1532.97 3261.52 1533.51C3262.06 1534.05 3262.49 1534.69 3262.78 1535.4C3263.07 1536.11 3263.22 1536.87 3263.21 1537.63C3263.22 1538.4 3263.07 1539.16 3262.78 1539.86C3262.49 1540.57 3262.06 1541.21 3261.52 1541.76C3260.98 1542.3 3260.33 1542.72 3259.63 1543.02C3258.92 1543.31 3258.16 1543.45 3257.39 1543.45ZM3194.92 1574.68H3115.67C3114.91 1574.69 3114.15 1574.54 3113.44 1574.25C3112.73 1573.96 3112.09 1573.53 3111.55 1572.99C3111.01 1572.45 3110.58 1571.81 3110.29 1571.1C3110 1570.39 3109.85 1569.63 3109.86 1568.87C3109.85 1568.1 3110 1567.34 3110.29 1566.64C3110.58 1565.93 3111.01 1565.29 3111.55 1564.74C3112.09 1564.2 3112.73 1563.78 3113.44 1563.49C3114.15 1563.2 3114.91 1563.05 3115.67 1563.05H3194.92C3195.68 1563.05 3196.44 1563.2 3197.15 1563.49C3197.86 1563.78 3198.5 1564.2 3199.04 1564.74C3199.58 1565.29 3200.01 1565.93 3200.3 1566.64C3200.59 1567.34 3200.74 1568.1 3200.73 1568.87C3200.74 1569.63 3200.59 1570.39 3200.3 1571.1C3200.01 1571.81 3199.58 1572.45 3199.04 1572.99C3198.5 1573.53 3197.86 1573.96 3197.15 1574.25C3196.44 1574.54 3195.68 1574.69 3194.92 1574.68ZM3194.92 1603.35H3115.67C3114.91 1603.36 3114.15 1603.21 3113.44 1602.92C3112.73 1602.63 3112.09 1602.2 3111.55 1601.66C3111.01 1601.12 3110.58 1600.47 3110.29 1599.77C3110 1599.06 3109.85 1598.3 3109.86 1597.54C3109.85 1596.77 3110 1596.01 3110.29 1595.3C3110.58 1594.6 3111.01 1593.95 3111.55 1593.41C3112.09 1592.87 3112.73 1592.44 3113.44 1592.15C3114.15 1591.86 3114.91 1591.72 3115.67 1591.72H3194.92C3195.68 1591.72 3196.44 1591.86 3197.15 1592.15C3197.86 1592.44 3198.5 1592.87 3199.04 1593.41C3199.58 1593.95 3200.01 1594.6 3200.3 1595.3C3200.59 1596.01 3200.74 1596.77 3200.73 1597.54C3200.74 1598.3 3200.59 1599.06 3200.3 1599.77C3200.01 1600.47 3199.58 1601.12 3199.04 1601.66C3198.5 1602.2 3197.86 1602.63 3197.15 1602.92C3196.44 1603.21 3195.68 1603.36 3194.92 1603.35ZM2974.76 1802.53C2971.6 1802.52 2968.55 1801.31 2966.24 1799.15L2914.58 1751.55C2913.37 1750.43 2912.39 1749.07 2911.69 1747.56C2911 1746.05 2910.61 1744.43 2910.55 1742.77C2910.49 1741.11 2910.75 1739.46 2911.33 1737.9C2911.9 1736.35 2912.78 1734.92 2913.91 1733.7C2915.04 1732.49 2916.39 1731.5 2917.9 1730.81C2919.41 1730.12 2921.04 1729.73 2922.69 1729.67C2924.35 1729.61 2926 1729.87 2927.56 1730.45C2929.12 1731.02 2930.54 1731.9 2931.76 1733.03L2972.19 1770.21L3031.15 1675.83C3032 1674.36 3033.14 1673.07 3034.5 1672.05C3035.86 1671.03 3037.4 1670.29 3039.05 1669.88C3040.7 1669.47 3042.41 1669.39 3044.09 1669.66C3045.77 1669.92 3047.38 1670.52 3048.82 1671.42C3050.26 1672.32 3051.51 1673.49 3052.48 1674.88C3053.46 1676.27 3054.15 1677.84 3054.51 1679.5C3054.87 1681.16 3054.89 1682.88 3054.57 1684.55C3054.25 1686.22 3053.6 1687.8 3052.66 1689.22L2985.72 1796.58C2984.73 1798.16 2983.41 1799.5 2981.84 1800.51C2980.27 1801.51 2978.5 1802.16 2976.66 1802.4C2976.03 1802.51 2975.4 1802.55 2974.76 1802.53ZM3257.39 1712.2H3115.81C3115.04 1712.21 3114.28 1712.06 3113.58 1711.77C3112.87 1711.48 3112.23 1711.05 3111.68 1710.51C3111.14 1709.97 3110.72 1709.33 3110.42 1708.62C3110.13 1707.91 3109.99 1707.15 3109.99 1706.39C3109.99 1705.62 3110.13 1704.87 3110.42 1704.16C3110.72 1703.45 3111.14 1702.81 3111.68 1702.27C3112.23 1701.72 3112.87 1701.3 3113.58 1701.01C3114.28 1700.72 3115.04 1700.57 3115.81 1700.57H3257.39C3258.16 1700.57 3258.92 1700.72 3259.63 1701.01C3260.33 1701.3 3260.98 1701.72 3261.52 1702.27C3262.06 1702.81 3262.49 1703.45 3262.78 1704.16C3263.07 1704.87 3263.22 1705.62 3263.21 1706.39C3263.2 1707.93 3262.58 1709.4 3261.49 1710.49C3260.41 1711.58 3258.93 1712.19 3257.39 1712.2ZM3194.92 1743.44H3115.67C3114.91 1743.44 3114.15 1743.3 3113.44 1743.01C3112.73 1742.72 3112.09 1742.29 3111.55 1741.75C3111.01 1741.21 3110.58 1740.56 3110.29 1739.86C3110 1739.15 3109.85 1738.39 3109.86 1737.63C3109.85 1736.86 3110 1736.1 3110.29 1735.39C3110.58 1734.69 3111.01 1734.04 3111.55 1733.5C3112.09 1732.96 3112.73 1732.53 3113.44 1732.24C3114.15 1731.95 3114.91 1731.81 3115.67 1731.81H3194.92C3195.68 1731.81 3196.44 1731.95 3197.15 1732.24C3197.86 1732.53 3198.5 1732.96 3199.04 1733.5C3199.58 1734.04 3200.01 1734.69 3200.3 1735.39C3200.59 1736.1 3200.74 1736.86 3200.73 1737.63C3200.74 1738.39 3200.59 1739.15 3200.3 1739.86C3200.01 1740.56 3199.58 1741.21 3199.04 1741.75C3198.5 1742.29 3197.86 1742.72 3197.15 1743.01C3196.44 1743.3 3195.68 1743.44 3194.92 1743.44ZM3194.92 1771.97H3115.67C3114.91 1771.98 3114.15 1771.83 3113.44 1771.54C3112.73 1771.25 3112.09 1770.82 3111.55 1770.28C3111.01 1769.74 3110.58 1769.1 3110.29 1768.39C3110 1767.68 3109.85 1766.92 3109.86 1766.16C3109.85 1765.39 3110 1764.63 3110.29 1763.93C3110.58 1763.22 3111.01 1762.57 3111.55 1762.03C3112.09 1761.49 3112.73 1761.06 3113.44 1760.77C3114.15 1760.48 3114.91 1760.34 3115.67 1760.34H3194.92C3195.68 1760.34 3196.44 1760.48 3197.15 1760.77C3197.86 1761.06 3198.5 1761.49 3199.04 1762.03C3199.58 1762.57 3200.01 1763.22 3200.3 1763.93C3200.59 1764.63 3200.74 1765.39 3200.73 1766.16C3200.75 1766.92 3200.61 1767.69 3200.32 1768.4C3200.04 1769.11 3199.61 1769.76 3199.07 1770.31C3198.52 1770.85 3197.88 1771.28 3197.16 1771.56C3196.45 1771.85 3195.69 1771.99 3194.92 1771.97Z" fill="#AEC6D3"/>
<path d="M3393.57 1853.78C3392.14 1853.78 3390.76 1853.21 3389.75 1852.2C3388.73 1851.18 3388.16 1849.81 3388.16 1848.37V1353.33C3388.16 1351.89 3388.73 1350.51 3389.75 1349.5C3390.76 1348.49 3392.14 1347.92 3393.57 1347.92C3395.01 1347.92 3396.38 1348.49 3397.4 1349.5C3398.41 1350.51 3398.98 1351.89 3398.98 1353.33V1848.37C3398.98 1849.81 3398.41 1851.18 3397.4 1852.2C3396.38 1853.21 3395.01 1853.78 3393.57 1853.78ZM2794.91 1807.81C2793.47 1807.81 2792.09 1807.24 2791.08 1806.22C2790.07 1805.21 2789.5 1803.83 2789.5 1802.4V1298.15C2789.52 1278.08 2797.5 1258.83 2811.7 1244.63C2825.9 1230.44 2845.15 1222.45 2865.23 1222.43H3035.48C3036.92 1222.43 3038.29 1223 3039.31 1224.01C3040.32 1225.03 3040.89 1226.41 3040.89 1227.84C3040.89 1229.27 3040.32 1230.65 3039.31 1231.66C3038.29 1232.68 3036.92 1233.25 3035.48 1233.25H2865.23C2848.02 1233.27 2831.52 1240.12 2819.35 1252.28C2807.18 1264.45 2800.34 1280.95 2800.31 1298.15V1802.4C2800.31 1803.83 2799.74 1805.21 2798.73 1806.22C2797.72 1807.24 2796.34 1807.81 2794.91 1807.81Z" fill="#92B1DD"/>
<path d="M3155.31 1878.12H2854.42V1298.02C2854.42 1296.59 2854.99 1295.21 2856 1294.19C2857.02 1293.18 2858.4 1292.61 2859.83 1292.61C2861.26 1292.61 2862.64 1293.18 2863.65 1294.19C2864.67 1295.21 2865.24 1296.59 2865.24 1298.02V1867.3H3155.31C3156.74 1867.3 3158.12 1867.87 3159.13 1868.89C3160.15 1869.9 3160.72 1871.28 3160.72 1872.71C3160.72 1874.15 3160.15 1875.52 3159.13 1876.54C3158.12 1877.55 3156.74 1878.12 3155.31 1878.12Z" fill="#92B1DD"/>
<path d="M720.465 2780.59H501.121C493.701 2780.57 486.589 2777.62 481.343 2772.38C476.096 2767.13 473.142 2760.02 473.128 2752.6H748.323C748.339 2756.27 747.617 2759.91 746.2 2763.31C744.783 2766.7 742.7 2769.77 740.073 2772.34C737.537 2774.98 734.49 2777.07 731.118 2778.48C727.747 2779.9 724.122 2780.62 720.465 2780.59ZM2344.72 2773.29H942.379C937.922 2773.31 933.525 2772.26 929.567 2770.21C925.61 2768.16 922.21 2765.18 919.66 2761.52C916.299 2756.78 914.503 2751.11 914.521 2745.3H2372.71C2372.7 2752.72 2369.75 2759.83 2364.5 2765.07C2359.25 2770.32 2352.14 2773.27 2344.72 2773.29ZM2898.9 2773.29H2634.25C2626.83 2773.27 2619.72 2770.32 2614.47 2765.07C2609.23 2759.83 2606.27 2752.72 2606.26 2745.3H2926.76C2926.77 2748.97 2926.06 2752.6 2924.67 2756C2923.28 2759.39 2921.23 2762.48 2918.64 2765.08C2916.05 2767.68 2912.98 2769.74 2909.59 2771.15C2906.2 2772.56 2902.57 2773.29 2898.9 2773.29ZM3155.57 2702.03H2205.57C2200 2702.03 2194.49 2700.92 2189.36 2698.76C2184.22 2696.6 2179.57 2693.43 2175.68 2689.45C2168.09 2681.68 2163.87 2671.24 2163.92 2660.38H3197.23C3197.21 2671.42 3192.81 2681.99 3185 2689.8C3177.2 2697.6 3166.62 2702 3155.58 2702.03H3155.57ZM1482.5 2664.43C1482.5 2668.92 1481.54 2673.36 1479.67 2677.44C1477.8 2681.53 1475.08 2685.16 1471.69 2688.1C1466.05 2692.95 1458.84 2695.6 1451.4 2695.53H438.644C434.203 2695.56 429.811 2694.61 425.771 2692.77C421.731 2690.92 418.141 2688.22 415.249 2684.85C410.29 2679.21 407.551 2671.95 407.541 2664.43H1482.5ZM3574.24 2595.61C3574.22 2610.7 3568.21 2625.16 3557.54 2635.83C3546.87 2646.5 3532.4 2652.51 3517.31 2652.53H369.406C354.309 2652.53 339.832 2646.53 329.157 2635.85C318.481 2625.18 312.481 2610.7 312.474 2595.61H3574.24Z" fill="#CEDBEE"/>
<path d="M3594.81 2595.61C3594.82 2597.19 3594.51 2598.76 3593.91 2600.22C3593.3 2601.68 3592.41 2603.01 3591.29 2604.13C3589.02 2606.37 3585.96 2607.63 3582.77 2607.64H296.111C292.883 2607.64 289.787 2606.36 287.505 2604.08C285.222 2601.79 283.94 2598.7 283.94 2595.47C283.925 2593.64 284.342 2591.83 285.157 2590.2C285.929 2588.62 287.037 2587.24 288.403 2586.14C290.561 2584.34 293.299 2583.38 296.111 2583.44H3582.64C3585.87 2583.44 3588.96 2584.72 3591.24 2587C3593.53 2589.28 3594.81 2592.38 3594.81 2595.61ZM1498.04 2668.63H385.782C383.057 2668.63 380.442 2667.54 378.515 2665.62C376.588 2663.69 375.505 2661.07 375.505 2658.35C375.505 2655.62 376.588 2653.01 378.515 2651.08C380.442 2649.16 383.057 2648.07 385.782 2648.07H1498.06C1500.78 2648.07 1503.4 2649.16 1505.32 2651.08C1507.25 2653.01 1508.33 2655.62 1508.33 2658.35C1508.33 2661.07 1507.25 2663.69 1505.32 2665.62C1503.4 2667.54 1500.78 2668.63 1498.06 2668.63H1498.04ZM3202.76 2666.73H2153.51C2150.78 2666.73 2148.17 2665.65 2146.24 2663.72C2144.31 2661.8 2143.23 2659.18 2143.23 2656.46C2143.23 2653.73 2144.31 2651.12 2146.24 2649.19C2148.17 2647.26 2150.78 2646.18 2153.51 2646.18H3202.76C3204.11 2646.18 3205.45 2646.44 3206.69 2646.96C3207.94 2647.48 3209.07 2648.23 3210.03 2649.19C3210.98 2650.14 3211.74 2651.28 3212.26 2652.52C3212.77 2653.77 3213.04 2655.11 3213.04 2656.46C3213.04 2657.81 3212.77 2659.14 3212.26 2660.39C3211.74 2661.64 3210.98 2662.77 3210.03 2663.72C3209.07 2664.68 3207.94 2665.43 3206.69 2665.95C3205.45 2666.47 3204.11 2666.73 3202.76 2666.73ZM2372.99 2748H914.251C911.525 2748 908.911 2746.92 906.983 2744.99C905.056 2743.06 903.973 2740.45 903.973 2737.72C903.973 2735 905.056 2732.38 906.983 2730.46C908.911 2728.53 911.525 2727.45 914.251 2727.45H2372.99C2375.71 2727.45 2378.33 2728.53 2380.25 2730.46C2382.18 2732.38 2383.26 2735 2383.26 2737.72C2383.26 2740.45 2382.18 2743.06 2380.25 2744.99C2378.33 2746.92 2375.71 2748 2372.99 2748ZM2937.03 2749.49H2592.75C2590.02 2749.49 2587.41 2748.41 2585.48 2746.48C2583.55 2744.55 2582.47 2741.94 2582.47 2739.21C2582.47 2736.49 2583.55 2733.87 2585.48 2731.94C2587.41 2730.02 2590.02 2728.93 2592.75 2728.93H2937.05C2938.4 2728.93 2939.73 2729.2 2940.98 2729.72C2942.23 2730.23 2943.36 2730.99 2944.31 2731.94C2945.27 2732.9 2946.03 2734.03 2946.54 2735.28C2947.06 2736.53 2947.32 2737.86 2947.32 2739.21C2947.32 2740.56 2947.06 2741.9 2946.54 2743.14C2946.03 2744.39 2945.27 2745.52 2944.31 2746.48C2943.36 2747.43 2942.23 2748.19 2940.98 2748.71C2939.73 2749.22 2938.4 2749.49 2937.05 2749.49H2937.03ZM751.839 2760.58H472.452C471.102 2760.58 469.766 2760.31 468.519 2759.79C467.272 2759.28 466.139 2758.52 465.184 2757.57C464.23 2756.61 463.473 2755.48 462.957 2754.23C462.44 2752.99 462.174 2751.65 462.174 2750.3C462.174 2748.95 462.44 2747.61 462.957 2746.37C463.473 2745.12 464.23 2743.99 465.184 2743.03C466.139 2742.08 467.272 2741.32 468.519 2740.81C469.766 2740.29 471.102 2740.02 472.452 2740.02H751.839C754.564 2740.02 757.178 2741.11 759.106 2743.03C761.033 2744.96 762.116 2747.57 762.116 2750.3C762.116 2753.03 761.033 2755.64 759.106 2757.57C757.178 2759.49 754.564 2760.58 751.839 2760.58Z" fill="#92B1DD"/>
<path d="M825.404 2732.18C861.477 2732.18 890.721 2727.58 890.721 2721.9C890.721 2716.23 861.477 2711.63 825.404 2711.63C789.331 2711.63 760.088 2716.23 760.088 2721.9C760.088 2727.58 789.331 2732.18 825.404 2732.18Z" fill="#CEDBEE"/>
<path d="M837.305 2763.82C855.229 2763.82 869.76 2761.46 869.76 2758.55C869.76 2755.64 855.229 2753.27 837.305 2753.27C819.38 2753.27 804.849 2755.64 804.849 2758.55C804.849 2761.46 819.38 2763.82 837.305 2763.82Z" fill="#CEDBEE"/>
<path d="M551.291 2727.31C597.298 2727.31 634.593 2723.07 634.593 2717.85C634.593 2712.62 597.298 2708.38 551.291 2708.38C505.285 2708.38 467.989 2712.62 467.989 2717.85C467.989 2723.07 505.285 2727.31 551.291 2727.31Z" fill="#CEDBEE"/>
<path d="M1051.1 2716.9C1084.56 2716.9 1111.69 2713.93 1111.69 2710.27C1111.69 2706.61 1084.56 2703.65 1051.1 2703.65C1017.64 2703.65 990.521 2706.61 990.521 2710.27C990.521 2713.93 1017.64 2716.9 1051.1 2716.9Z" fill="#CEDBEE"/>
<path d="M1223.66 2714.74C1253.23 2714.74 1277.21 2712.74 1277.21 2710.27C1277.21 2707.81 1253.23 2705.81 1223.66 2705.81C1194.08 2705.81 1170.11 2707.81 1170.11 2710.27C1170.11 2712.74 1194.08 2714.74 1223.66 2714.74Z" fill="#CEDBEE"/>
<path d="M1637.33 2700C1695.58 2700 1742.81 2693.76 1742.81 2686.07C1742.81 2678.38 1695.58 2672.14 1637.33 2672.14C1579.07 2672.14 1531.85 2678.38 1531.85 2686.07C1531.85 2693.76 1579.07 2700 1637.33 2700Z" fill="#CEDBEE"/>
<path d="M1892.92 2707.3C1929.29 2707.3 1958.77 2703.18 1958.77 2698.1C1958.77 2693.03 1929.29 2688.91 1892.92 2688.91C1856.54 2688.91 1827.06 2693.03 1827.06 2698.1C1827.06 2703.18 1856.54 2707.3 1892.92 2707.3Z" fill="#CEDBEE"/>
<path d="M2076.42 2697.83C2103.76 2697.83 2125.92 2694.2 2125.92 2689.72C2125.92 2685.24 2103.76 2681.61 2076.42 2681.61C2049.09 2681.61 2026.93 2685.24 2026.93 2689.72C2026.93 2694.2 2049.09 2697.83 2076.42 2697.83Z" fill="#CEDBEE"/>
<path d="M2486.58 2754.9C2524.15 2754.9 2554.6 2749.81 2554.6 2743.54C2554.6 2737.27 2524.15 2732.18 2486.58 2732.18C2449.01 2732.18 2418.56 2737.27 2418.56 2743.54C2418.56 2749.81 2449.01 2754.9 2486.58 2754.9Z" fill="#CEDBEE"/>
<path d="M3094.71 2748.54C3138.85 2748.54 3174.63 2743.09 3174.63 2736.37C3174.63 2729.65 3138.85 2724.2 3094.71 2724.2C3050.57 2724.2 3014.79 2729.65 3014.79 2736.37C3014.79 2743.09 3050.57 2748.54 3094.71 2748.54Z" fill="#CEDBEE"/>
<path d="M3304.73 2691.07C3341.69 2691.07 3371.66 2686.35 3371.66 2680.53C3371.66 2674.7 3341.69 2669.98 3304.73 2669.98C3267.76 2669.98 3237.79 2674.7 3237.79 2680.53C3237.79 2686.35 3267.76 2691.07 3304.73 2691.07Z" fill="#CEDBEE"/>
<path d="M3443.2 2677.28C3454.7 2677.28 3464.03 2676.13 3464.03 2674.71C3464.03 2673.29 3454.7 2672.14 3443.2 2672.14C3431.7 2672.14 3422.38 2673.29 3422.38 2674.71C3422.38 2676.13 3431.7 2677.28 3443.2 2677.28Z" fill="#CEDBEE"/>
<path d="M3259.96 2744.76C3275.13 2744.76 3287.42 2740.28 3287.42 2734.75C3287.42 2729.22 3275.13 2724.74 3259.96 2724.74C3244.8 2724.74 3232.51 2729.22 3232.51 2734.75C3232.51 2740.28 3244.8 2744.76 3259.96 2744.76Z" fill="#CEDBEE"/>
<path d="M1087.64 789.204C1105.49 785.712 1117.42 769.924 1114.29 753.941C1111.17 737.957 1094.16 727.831 1076.32 731.322C1058.47 734.814 1046.53 750.602 1049.66 766.585C1052.79 782.569 1069.79 792.696 1087.64 789.204Z" fill="#FC9E8B"/>
<path d="M1236 743.5C1251.85 740.399 1254.28 729.698 1251.5 715.5C1248.72 701.303 1239.85 692.899 1224 696C1208.15 699.102 1204.72 712.803 1207.5 727C1210.28 741.197 1220.15 746.601 1236 743.5Z" fill="#FC9E8B"/>
<defs>
<linearGradient id="paint0_linear_1_5018" x1="2683.62" y1="2257.5" x2="2513.09" y2="2649.76" gradientUnits="userSpaceOnUse">
<stop stop-color="#00B488"/>
<stop offset="0.92" stop-color="#007BC0"/>
</linearGradient>
<linearGradient id="paint1_linear_1_5018" x1="2495.41" y1="2476.27" x2="2417.09" y2="2623.45" gradientUnits="userSpaceOnUse">
<stop stop-color="#00B488"/>
<stop offset="0.92" stop-color="#007BC0"/>
</linearGradient>
<linearGradient id="paint2_linear_1_5018" x1="2761.95" y1="2043.31" x2="2910.63" y2="2642.58" gradientUnits="userSpaceOnUse">
<stop stop-color="#00B488"/>
<stop offset="0.92" stop-color="#007BC0"/>
</linearGradient>
<linearGradient id="paint3_linear_1_5018" x1="2761.95" y1="2043.31" x2="2910.63" y2="2642.58" gradientUnits="userSpaceOnUse">
<stop stop-color="#00B488"/>
<stop offset="0.92" stop-color="#007BC0"/>
</linearGradient>
<linearGradient id="paint4_linear_1_5018" x1="2432.04" y1="1924.74" x2="2918.15" y2="2506.29" gradientUnits="userSpaceOnUse">
<stop stop-color="#009698"/>
<stop offset="0.92" stop-color="#0062C0"/>
</linearGradient>
<linearGradient id="paint5_linear_1_5018" x1="2946.25" y1="2407.58" x2="3022.95" y2="2634.26" gradientUnits="userSpaceOnUse">
<stop stop-color="#00B488"/>
<stop offset="0.92" stop-color="#007BC0"/>
</linearGradient>
<linearGradient id="paint6_linear_1_5018" x1="130.051" y1="486.557" x2="295.606" y2="1153.83" gradientUnits="userSpaceOnUse">
<stop stop-color="#00B488"/>
<stop offset="0.92" stop-color="#007BC0"/>
</linearGradient>
<linearGradient id="paint7_linear_1_5018" x1="1255.65" y1="1643.34" x2="571.794" y2="2123.9" gradientUnits="userSpaceOnUse">
<stop stop-color="#009698"/>
<stop offset="0.92" stop-color="#0062C0"/>
</linearGradient>
<linearGradient id="paint8_linear_1_5018" x1="208.746" y1="1006.53" x2="264.427" y2="1230.95" gradientUnits="userSpaceOnUse">
<stop stop-color="#00B488"/>
<stop offset="0.92" stop-color="#007BC0"/>
</linearGradient>
</defs>
</svg>
