<svg width="4680" height="3120" viewBox="0 0 4680 3120" fill="none" xmlns="http://www.w3.org/2000/svg">
<path d="M3132.43 1760.57H2269.3C2260.91 1760.57 2254.11 1767.37 2254.11 1775.76V2621.34C2254.11 2629.73 2260.91 2636.53 2269.3 2636.53H3132.43C3140.82 2636.53 3147.63 2629.73 3147.63 2621.34V1775.76C3147.63 1767.37 3140.82 1760.57 3132.43 1760.57Z" fill="url(#paint0_linear_1_2)"/>
<path d="M2936.43 1760.57H2073.31C2064.91 1760.57 2058.11 1767.37 2058.11 1775.76V2621.34C2058.11 2629.73 2064.91 2636.53 2073.31 2636.53H2936.43C2944.83 2636.53 2951.63 2629.73 2951.63 2621.34V1775.76C2951.63 1767.37 2944.83 1760.57 2936.43 1760.57Z" fill="#5775D3"/>
<path d="M2865.14 1875.1V2042.61C2865.14 2049 2857.27 2054.24 2847.64 2054.24H2181.43C2171.8 2054.24 2163.93 2049 2163.93 2042.61V1875.1C2163.93 1868.7 2171.8 1863.47 2181.43 1863.47H2847.64C2857.27 1863.47 2865.14 1868.7 2865.14 1875.1Z" fill="url(#paint1_linear_1_2)"/>
<path d="M2865.14 2121.02V2288.53C2865.14 2294.93 2857.27 2300.16 2847.64 2300.16H2181.43C2171.8 2300.16 2163.93 2294.93 2163.93 2288.53V2121.02C2163.93 2114.62 2171.8 2109.39 2181.43 2109.39H2847.64C2857.27 2109.39 2865.14 2114.62 2865.14 2121.02Z" fill="url(#paint2_linear_1_2)"/>
<path d="M2865.14 2365.55V2533.06C2865.14 2539.46 2857.27 2544.69 2847.64 2544.69H2181.43C2171.8 2544.69 2163.93 2539.46 2163.93 2533.06V2365.55C2163.93 2359.15 2171.8 2353.92 2181.43 2353.92H2847.64C2857.27 2353.92 2865.14 2359.15 2865.14 2365.55Z" fill="url(#paint3_linear_1_2)"/>
<path d="M2807.92 1875.1V2042.61C2807.92 2049 2800.05 2054.24 2790.42 2054.24H2181.43C2171.8 2054.24 2163.93 2049 2163.93 2042.61V1875.1C2163.93 1868.7 2171.8 1863.47 2181.43 1863.47H2790.42C2800.05 1863.47 2807.92 1868.7 2807.92 1875.1Z" fill="url(#paint4_linear_1_2)"/>
<path d="M2807.92 2121.02V2288.53C2807.92 2294.93 2800.05 2300.16 2790.42 2300.16H2181.43C2171.8 2300.16 2163.93 2294.93 2163.93 2288.53V2121.02C2163.93 2114.62 2171.8 2109.39 2181.43 2109.39H2790.42C2800.05 2109.39 2807.92 2114.62 2807.92 2121.02Z" fill="url(#paint5_linear_1_2)"/>
<path d="M2807.92 2365.55V2533.06C2807.92 2539.46 2800.05 2544.69 2790.42 2544.69H2181.43C2171.8 2544.69 2163.93 2539.46 2163.93 2533.06V2365.55C2163.93 2359.15 2171.8 2353.92 2181.43 2353.92H2790.42C2800.05 2353.92 2807.92 2359.15 2807.92 2365.55Z" fill="url(#paint6_linear_1_2)"/>
<path opacity="0.62" d="M3548.31 2550.34L3593.2 2552.7L3663.88 2590.44C3663.88 2590.44 3692.03 2571.36 3737.18 2538.88L3813.66 2601.2C4229 2631.07 4433.94 2361.62 4412.26 2270.6C4390.57 2179.58 4148.56 2257.27 4043.06 2322.73C4024.23 2334.42 4000.22 2346.26 3973.46 2357.84C4209.51 2164.58 4474.54 1903.04 4349.55 1786.14C4267.86 1709.73 4129.38 1804.63 3990.47 1949.4" fill="#83CDFF"/>
<path d="M3649.87 2456.04C3649.87 2456.04 3918.37 2385.38 4023.87 2319.91C4129.37 2254.45 4371.38 2176.76 4393.06 2267.78C4414.74 2358.8 4209.81 2628.25 3794.47 2598.38L3642.69 2474.71L3649.87 2456.04Z" fill="url(#paint7_linear_1_2)"/>
<g opacity="0.6">
<path d="M4272.03 2316.49C4261.67 2322.89 4251.07 2328.91 4240.45 2334.88C4212.77 2350.45 4184.65 2365.19 4156.08 2379.12C4116.05 2398.72 4075.28 2416.84 4033.75 2433.04C3986.88 2451.33 3939.02 2467.28 3890.2 2479.53C3841.26 2491.81 3791.19 2500.48 3740.69 2502.27C3734.56 2502.48 3728.42 2502.6 3722.29 2502.6C3715.49 2502.61 3715.47 2513.18 3722.29 2513.17C3772.95 2513.09 3823.46 2505.79 3872.8 2494.56C3922.66 2483.22 3971.54 2467.77 4019.39 2449.81C4062.27 2433.71 4104.39 2415.56 4145.73 2395.84C4176.65 2381.08 4207.11 2365.42 4237.12 2348.84C4250.33 2341.53 4264.44 2334.61 4276.84 2325.94C4277.01 2325.82 4277.19 2325.72 4277.37 2325.61C4283.15 2322.04 4277.84 2312.9 4272.03 2316.49Z" fill="#65E0A8"/>
<path d="M4260.91 2412.55C4216.25 2423.48 4170.36 2428.54 4124.39 2427.6C4104.95 2427.16 4085.54 2425.31 4066.56 2420.95C4059.94 2419.43 4057.12 2429.62 4063.75 2431.15C4097.8 2438.97 4133.27 2439.46 4167.97 2437.02C4195.04 2435.08 4221.96 2431.41 4248.57 2426.04C4253.63 2425.02 4258.7 2423.97 4263.72 2422.74C4270.33 2421.12 4267.53 2410.92 4260.91 2412.55Z" fill="#65E0A8"/>
<path d="M4068.01 2333.21C4057.1 2339.54 4046.84 2347.18 4036.89 2354.9C4013.55 2372.9 3992.3 2393.47 3973.53 2416.2C3960.32 2432.21 3948.61 2449.42 3938.58 2467.59C3935.3 2473.56 3944.43 2478.9 3947.7 2472.93C3974.97 2423.2 4016.06 2380.47 4063.05 2348.89C4066.43 2346.63 4069.83 2344.37 4073.35 2342.33C4079.23 2338.92 4073.91 2329.78 4068.01 2333.21Z" fill="#65E0A8"/>
<path d="M4020.29 2517.95C4019.46 2518.09 4018.62 2518.2 4017.78 2518.32C4017.32 2518.39 4019.13 2518.16 4017.63 2518.34C4017.12 2518.4 4016.61 2518.47 4016.1 2518.53C4014.68 2518.7 4013.26 2518.86 4011.84 2519C4002.62 2519.94 3993.36 2520.44 3984.1 2520.68C3950.47 2521.4 3916.83 2519.08 3883.61 2513.76C3857.29 2509.6 3831.22 2503.94 3805.55 2496.79C3798.98 2494.97 3796.18 2505.17 3802.74 2506.98C3869.28 2525.39 3940.65 2536.31 4009.81 2529.77C4014.24 2529.35 4018.7 2528.89 4023.1 2528.14C4029.79 2527.01 4026.95 2516.82 4020.29 2517.95Z" fill="#65E0A8"/>
</g>
<path d="M3644.69 2587.62C3644.69 2587.62 4540.91 1980.25 4330.36 1783.32C4119.8 1586.39 3531.96 2527.44 3531.96 2527.44L3644.69 2587.62Z" fill="url(#paint8_linear_1_2)"/>
<g opacity="0.61">
<path d="M4229.59 1896.77C4216.45 1907.81 4203.54 1919.13 4190.66 1930.47C4156.88 1960.22 4123.58 1990.51 4090.76 2021.33C4043.88 2065.27 3997.93 2110.17 3952.92 2156.05C3900.74 2209.31 3849.94 2263.96 3801.19 2320.39C3751.28 2378.16 3703.42 2437.82 3659.4 2500.22C3654.14 2507.68 3648.94 2515.18 3643.8 2522.72C3639.71 2528.72 3649.46 2534.36 3653.52 2528.4C3696.29 2465.7 3743.2 2405.9 3792.29 2348.04C3840.78 2290.9 3891.46 2235.63 3943.57 2181.79C3989.39 2134.44 4036.28 2088.15 4084.24 2042.93C4118.88 2010.18 4154.04 1977.98 4189.69 1946.32C4200.42 1936.81 4211.21 1927.37 4222.06 1917.99C4226.96 1913.75 4232.23 1909.75 4236.92 1905.27C4237.12 1905.08 4237.34 1904.91 4237.55 1904.73C4243.11 1900.07 4235.11 1892.14 4229.59 1896.77Z" fill="#65E0A8"/>
<path d="M4125.69 1853.24C4119.02 1865.59 4113.17 1878.44 4107.54 1891.28C4094 1921.96 4082.55 1953.53 4073.26 1985.75C4066.89 2007.93 4061.85 2030.47 4058.19 2053.26C4057.06 2060.34 4067.91 2063.39 4069.04 2056.25C4079.19 1992.27 4100.64 1929.58 4129.06 1871.43C4131.12 1867.23 4133.19 1863.03 4135.41 1858.92C4138.86 1852.55 4129.15 1846.86 4125.69 1853.24Z" fill="#65E0A8"/>
<path d="M4197.07 2042.72C4196.3 2043.36 4195.5 2043.98 4194.71 2044.59C4195.31 2044.13 4195.13 2044.28 4194.36 2044.86C4193.81 2045.27 4193.25 2045.69 4192.7 2046.1C4191.4 2047.07 4190.08 2048.03 4188.76 2048.96C4180.47 2054.87 4171.85 2060.31 4163.02 2065.38C4134.87 2081.65 4104.44 2093.61 4072.74 2100.85C4050.09 2105.95 4026.88 2108.14 4003.68 2107.38C3996.43 2107.14 3996.44 2118.4 4003.68 2118.64C4070.42 2120.85 4137.66 2098.25 4192.23 2060.24C4196.59 2057.2 4200.94 2054.08 4205.03 2050.68C4210.6 2046.04 4202.6 2038.11 4197.07 2042.72Z" fill="#65E0A8"/>
<path d="M3926.5 2048.77C3920.77 2059.56 3916.18 2071.06 3911.87 2082.47C3901.5 2109.88 3894 2138.3 3889.5 2167.26C3886.27 2187.83 3884.72 2208.63 3884.87 2229.45C3884.94 2236.69 3896.19 2236.71 3896.13 2229.45C3895.6 2173.4 3908 2116.33 3931.06 2065.21C3932.69 2061.59 3934.36 2057.96 3936.22 2054.45C3939.62 2048.06 3929.9 2042.37 3926.5 2048.77Z" fill="#65E0A8"/>
<path d="M3966.9 2257.83C3958.23 2263.3 3949.24 2268.24 3939.97 2272.61C3916.44 2284.07 3891.92 2293.36 3866.7 2300.36C3847.88 2305.62 3828.74 2309.63 3809.39 2312.35C3802.25 2313.36 3805.29 2324.21 3812.39 2323.21C3864.84 2315.79 3917.05 2299.16 3963.3 2273.08C3966.43 2271.31 3969.57 2269.52 3972.58 2267.55C3978.62 2263.6 3972.99 2253.85 3966.9 2257.83Z" fill="#65E0A8"/>
</g>
<path opacity="0.62" d="M1148.81 2244.32L1108.98 2266.85C1135.99 2198.39 1136.68 2135.77 1116.37 2111.95C1088.21 2078.92 1024.69 2120.01 970.278 2174.16C1016.46 2029.65 1031.17 1900.45 948.832 1876.79C870.674 1854.33 812.387 1961.56 770.316 2101.23C745.677 1882.06 689.869 1676.31 566.285 1697.02C464.401 1714.1 461.621 1865.33 495.369 2041.66C433.615 1965.94 371.423 1923.9 319.214 1956.93C170.206 2051.19 541.152 2459.28 662.7 2586.49C675.073 2618.13 682.736 2636.53 682.736 2636.53L712.58 2623.22L770.823 2624.28C770.823 2624.28 776.053 2614.77 784.959 2597.9L788.385 2596.83C788.385 2596.83 787.968 2595.76 787.163 2593.72C800.313 2568.71 820.289 2529.87 842.955 2482.89L896.741 2478.73C1004.78 2437.3 1071.64 2354.35 1104.89 2276.79C1120.18 2266.87 1134.85 2256.03 1148.81 2244.32Z" fill="#83CDFF"/>
<g opacity="0.6">
<path d="M1103.3 2175.74C1086.69 2203.14 1067.9 2229.36 1048.69 2254.97C1007.55 2309.8 962.018 2361.99 910.36 2407.19C879.248 2434.41 845.626 2459.09 808.778 2478C804.376 2480.26 808.26 2486.89 812.656 2484.63C878.273 2450.96 934.248 2399.84 983.651 2345.74C1022.88 2302.59 1058.89 2256.62 1091.4 2208.2C1097.74 2198.79 1104.05 2189.33 1109.93 2179.62C1112.5 2175.38 1105.86 2171.52 1103.3 2175.74Z" fill="#65E0A8"/>
<path d="M1127.82 2241.6C1115.46 2252.09 1102.46 2261.8 1088.91 2270.68C1063.02 2287.96 1035 2303.57 1004.64 2311.25C999.848 2312.46 1001.88 2319.88 1006.68 2318.66C1049.95 2307.72 1089.49 2281.89 1124.15 2254.48C1127.23 2252.05 1130.29 2249.6 1133.25 2247.04C1137 2243.8 1131.55 2238.38 1127.82 2241.6Z" fill="#65E0A8"/>
<path d="M976.726 2254.03C969.024 2265.98 963.026 2279.21 957.661 2292.33C945.763 2321.42 938.399 2352.45 937.431 2383.93C937.279 2388.87 944.964 2388.87 945.116 2383.93C946.063 2353.13 953.431 2322.84 965.072 2294.37C970.183 2281.88 976.026 2269.29 983.362 2257.91C986.049 2253.74 979.399 2249.88 976.726 2254.03Z" fill="#65E0A8"/>
<path d="M1007.65 2388.81C1000.35 2394.03 992.684 2398.74 984.723 2402.89C963.116 2414.53 940.497 2424.19 917.144 2431.74C898.636 2437.79 879.795 2442.77 860.714 2446.66C855.873 2447.65 857.922 2455.06 862.757 2454.07C911.744 2444 961.269 2427.52 1003.8 2400.63C1006.41 2398.98 1009.04 2397.3 1011.53 2395.45C1015.45 2392.53 1011.62 2385.85 1007.65 2388.81Z" fill="#65E0A8"/>
</g>
<path d="M752.549 2624.28C752.549 2624.28 1132.01 1934.67 930.559 1876.79C729.111 1818.9 659.663 2622.58 659.663 2622.58L752.549 2624.28Z" fill="#565EF5"/>
<g opacity="0.61">
<path d="M903.19 1982.76C898.279 1994.38 893.597 2006.09 888.956 2017.82C876.933 2048.19 865.399 2078.76 854.355 2109.52C838.473 2153.58 823.522 2197.96 809.502 2242.67C793.344 2294.34 778.527 2346.45 765.623 2399.04C752.337 2453.19 741.009 2507.88 733.159 2563.1C732.227 2569.65 731.344 2576.21 730.51 2582.78C729.847 2587.99 738.037 2587.95 738.694 2582.78C745.664 2528.05 756.312 2473.81 768.968 2420.12C781.44 2367.21 795.944 2314.78 811.84 2262.8C825.783 2217.21 840.757 2171.95 856.764 2127.02C868.383 2094.29 880.509 2061.75 893.145 2029.4C898.753 2015.07 904.45 2000.78 910.386 1986.59C910.751 1985.72 910.556 1986.18 910.257 1986.89C912.284 1982.1 905.237 1977.92 903.19 1982.76Z" fill="white"/>
<path d="M821.158 1989.96C820.782 2006.08 821.853 2022.31 823.317 2038.35C826.516 2073.4 832.773 2108.31 843.655 2141.82C845.274 2146.81 853.179 2144.68 851.546 2139.65C840.744 2106.38 834.462 2071.74 831.374 2036.94C829.824 2021.33 829.145 2005.65 829.342 1989.96C829.464 1984.7 821.28 1984.7 821.158 1989.96Z" fill="white"/>
<path d="M930.389 2088.01C926.439 2097.24 921.141 2106.02 915.694 2114.41C902.864 2134.31 887.121 2152.17 868.99 2167.39C855.88 2178.3 841.429 2187.49 825.988 2194.74C821.226 2196.98 825.376 2204.04 830.119 2201.81C873.919 2181.2 909.789 2144.48 932.574 2102C934.304 2098.78 936.014 2095.51 937.455 2092.14C939.505 2087.35 932.457 2083.18 930.389 2088.01Z" fill="white"/>
<path d="M756.838 2182.43C756.623 2196.29 758.409 2210.35 760.609 2223.99C765.493 2255.08 775.329 2285.18 789.744 2313.16C792.178 2317.83 799.243 2313.7 796.811 2309.03C782.609 2281.77 773.388 2252.13 768.501 2221.82C766.416 2208.89 764.818 2195.56 765.022 2182.43C765.104 2177.17 756.92 2177.16 756.838 2182.43Z" fill="white"/>
<path d="M852.04 2304.34C846.293 2314.38 839.092 2323.73 831.77 2332.64C813.523 2354.85 792.367 2374.51 768.873 2391.07C764.6 2394.08 768.684 2401.18 773.004 2398.14C797.107 2381.23 818.82 2361.14 837.557 2338.43C845.316 2328.99 853.016 2319.11 859.107 2308.47C861.729 2303.9 854.66 2299.77 852.04 2304.34Z" fill="#65E0A8"/>
</g>
<path d="M768.924 2589.92C768.924 2589.92 804.97 1653.96 548.011 1697.02C291.052 1740.08 664.463 2636.53 664.463 2636.53L768.924 2589.92Z" fill="#FABF44"/>
<g opacity="0.61">
<path d="M577.065 1825.09C578.094 1839.91 579.453 1854.71 580.845 1869.5C584.513 1908.46 588.834 1947.36 593.809 1986.19C600.817 2041.42 609.014 2096.5 618.399 2151.4C629.368 2215.16 642.069 2278.64 657.14 2341.57C672.633 2406.25 690.583 2470.43 712.579 2533.22C715.269 2540.9 718.023 2548.55 720.84 2556.19C723.042 2562.16 732.686 2559.58 730.458 2553.54C707.526 2491.35 688.84 2427.65 672.747 2363.37C656.941 2300.24 643.658 2236.49 632.178 2172.44C622.092 2116.18 613.35 2059.69 605.95 2002.98C600.575 1962.04 595.865 1921.03 591.819 1879.93C590.062 1861.91 588.755 1843.86 587.092 1825.84C587.069 1825.59 587.056 1825.34 587.039 1825.09C586.596 1818.72 576.619 1818.67 577.065 1825.09Z" fill="#FDFFFE"/>
<path d="M489.834 1875.58C508.298 1912.97 532.587 1948.24 558.678 1980.62C571.558 1996.67 585.387 2011.93 600.091 2026.32C604.69 2030.81 611.749 2023.76 607.144 2019.27C566.072 1979.21 531.722 1931.78 504.217 1881.49C502.239 1877.88 500.272 1874.25 498.446 1870.55C495.604 1864.79 486.999 1869.84 489.834 1875.58Z" fill="#FDFFFE"/>
<path d="M666.412 1923.57C667.177 1935.35 666.222 1947.4 664.891 1959.1C661.79 1987.12 654.245 2014.48 642.54 2040.13C634.141 2058.42 623.399 2075.53 610.584 2091.05C606.512 2095.95 613.53 2103.05 617.636 2098.1C654.991 2053.11 674.907 1994.83 676.478 1936.57C676.595 1932.25 676.666 1927.89 676.385 1923.57C675.971 1917.2 665.995 1917.15 666.412 1923.57Z" fill="#FDFFFE"/>
<path d="M526.118 2115.13C531.059 2124.58 536.612 2133.7 542.743 2142.42C557.387 2163.98 574.19 2184 592.891 2202.15C606.33 2215.16 620.786 2227.07 636.122 2237.77C641.396 2241.45 646.386 2232.81 641.156 2229.16C599.889 2200.12 565.31 2162.6 539.738 2119.1C538 2116.14 536.273 2113.16 534.73 2110.1C531.843 2104.36 523.236 2109.41 526.118 2115.13Z" fill="#FDFFFE"/>
<path d="M700.446 2195.97C699.674 2209.67 696.814 2223.41 693.66 2236.72C685.738 2270.07 673.155 2302.14 656.284 2331.98C653.123 2337.58 661.736 2342.61 664.896 2337.02C682.206 2306.43 695.126 2273.56 703.278 2239.37C706.633 2225.21 709.598 2210.55 710.42 2195.97C710.782 2189.56 700.807 2189.58 700.446 2195.97Z" fill="#FDFFFE"/>
</g>
<path d="M679.146 2479.58C679.146 2479.58 829.625 2345.05 876.289 2267.78C922.953 2190.5 1053.96 2060.18 1098.1 2111.95C1142.23 2163.71 1087.19 2398.7 878.467 2478.73L680.668 2494.04L679.146 2479.58Z" fill="#565EF5"/>
<path d="M681.428 2624.51C681.428 2624.51 123.809 2068.99 300.941 1956.93C478.072 1844.87 770.111 2596.83 770.111 2596.83L681.428 2624.51Z" fill="#565EF5"/>
<g opacity="0.61">
<path d="M351.223 2056.84C358.971 2066.34 366.522 2076 374.047 2085.68C394.135 2111.5 413.796 2137.65 433.032 2164.12C460.388 2201.65 486.953 2239.74 512.729 2278.4C542.73 2323.47 571.566 2369.33 598.699 2416.19C626.374 2463.99 652.353 2512.84 675.217 2563.13C678.023 2569.3 680.779 2575.49 683.485 2581.71C685.583 2586.53 692.636 2582.36 690.551 2577.58C668.471 2526.9 643.065 2477.72 615.829 2429.63C588.905 2382.1 560.145 2335.61 530.162 2289.94C503.768 2249.75 476.461 2210.17 448.242 2171.21C427.892 2143.05 407.106 2115.21 385.883 2087.7C379.413 2079.32 372.893 2070.98 366.323 2062.68C363.437 2059.04 360.714 2054.83 357.408 2051.55C357.267 2051.39 357.135 2051.23 357.01 2051.06C353.68 2046.97 347.92 2052.79 351.223 2056.84Z" fill="white"/>
<path d="M429.817 2037.12C434.404 2052.12 438.151 2067.37 441.04 2082.79C447.837 2117.07 451.538 2152.05 450.498 2187.02C450.341 2192.29 458.525 2192.28 458.682 2187.02C459.729 2151.81 455.961 2116.53 449.203 2081.99C446.112 2066.19 442.588 2050.31 437.709 2034.95C436.12 2029.94 428.217 2032.08 429.817 2037.12Z" fill="white"/>
<path d="M354.632 2165.5C361.315 2173.62 369.259 2180.87 377.242 2187.66C395.749 2203.58 416.546 2216.62 438.933 2226.34C454.761 2233.17 471.378 2238 488.4 2240.72C493.552 2241.53 495.771 2233.64 490.575 2232.82C443.817 2225.49 400.338 2201.07 367.41 2167.34C365.005 2164.87 362.609 2162.37 360.419 2159.71C357.069 2155.64 351.309 2161.46 354.632 2165.5Z" fill="white"/>
<path d="M545.53 2203.83C549.406 2216.37 551.625 2229.62 553.253 2242.6C557.068 2273.05 556.542 2304.1 550.561 2334.22C549.54 2339.37 557.426 2341.57 558.452 2336.4C564.455 2305.49 565.463 2273.83 561.437 2242.6C559.722 2228.88 557.517 2214.9 553.421 2201.65C551.871 2196.64 543.968 2198.78 545.53 2203.83Z" fill="white"/>
<path d="M490.503 2351.18C499.328 2359.67 509.479 2367.03 519.57 2373.91C543.925 2390.47 570.4 2403.67 598.281 2413.16C603.276 2414.86 605.421 2406.96 600.457 2405.26C573.261 2395.96 547.443 2383.04 523.7 2366.84C514.17 2360.34 504.623 2353.41 496.29 2345.39C492.495 2341.74 486.7 2347.52 490.503 2351.18Z" fill="white"/>
</g>
<path d="M635.291 2548.92H3988.8C4003.53 2548.92 4017.65 2554.77 4028.07 2565.18C4038.48 2575.6 4044.33 2589.73 4044.33 2604.45V2604.46C4044.33 2619.19 4038.48 2633.32 4028.07 2643.73C4017.65 2654.15 4003.53 2660 3988.8 2660H635.29C620.561 2660 606.435 2654.15 596.02 2643.73C585.605 2633.32 579.754 2619.19 579.754 2604.46V2604.45C579.754 2597.16 581.19 2589.94 583.981 2583.2C586.772 2576.46 590.863 2570.34 596.02 2565.18C601.177 2560.03 607.3 2555.94 614.038 2553.15C620.776 2550.35 627.997 2548.92 635.291 2548.92Z" fill="#0F59B2"/>
<path d="M3362.63 2604.45V2604.46C3362.63 2611.76 3361.19 2618.98 3358.4 2625.72C3355.61 2632.46 3351.52 2638.58 3346.36 2643.74C3341.2 2648.89 3335.08 2652.98 3328.34 2655.77C3321.6 2658.57 3314.38 2660 3307.08 2660H635.29C620.561 2660 606.435 2654.15 596.02 2643.73C585.605 2633.32 579.754 2619.19 579.754 2604.46V2604.45C579.754 2589.72 585.605 2575.6 596.02 2565.18C606.435 2554.77 620.561 2548.92 635.29 2548.92H3307.08C3314.38 2548.92 3321.6 2550.35 3328.34 2553.14C3335.08 2555.93 3341.2 2560.02 3346.36 2565.18C3351.52 2570.34 3355.61 2576.46 3358.4 2583.2C3361.19 2589.94 3362.63 2597.16 3362.63 2604.45Z" fill="#2167CE"/>
<path d="M4247.7 1475.11C4299.71 1475.11 4330.17 1533.7 4300.29 1576.27L3616.67 2550.23H3118.98L3844.2 1495.75L4247.7 1475.11Z" fill="#4C3888"/>
<path d="M4104.99 1475.11H4228.58L3473.96 2550.23H2976.27L3701.49 1495.75L4104.99 1475.11Z" fill="#8B72D6"/>
<path d="M3175.13 460H2397.42V1126.67H3175.13V460Z" fill="url(#paint9_linear_1_2)"/>
<path d="M3149.4 1100.94V485.733L2423.15 485.733V1100.94H3149.4Z" fill="#002F69"/>
<path d="M3205.64 468.723L3175.13 460V1126.67L3190.38 1115.22L3205.64 468.723Z" fill="#002F69"/>
<path d="M2957.83 513.527H2473.67V1046.6H2957.83V513.527Z" fill="#06378E"/>
<path d="M3123.72 521.452H3008.39V732.087H3123.72V521.452Z" fill="white"/>
<path d="M3123.72 751.147H3008.39V960.827H3123.72V751.147Z" fill="white"/>
<path d="M2712.99 1006.32C2823.26 1006.32 2912.66 903.61 2912.66 776.912C2912.66 650.214 2823.26 547.505 2712.99 547.505C2602.71 547.505 2513.32 650.214 2513.32 776.912C2513.32 903.61 2602.71 1006.32 2712.99 1006.32Z" fill="#2162C1"/>
<g style="mix-blend-mode:screen">
<path d="M2794.42 618.235C2794.42 618.235 2748.41 600.342 2704.96 671.913C2704.96 671.913 2698.57 708.977 2680.67 728.148C2662.78 747.318 2646.17 762.655 2662.78 803.553C2679.4 844.45 2771.42 827.836 2817.43 758.821C2863.44 689.806 2837.04 612.698 2794.42 618.235Z" fill="#667287"/>
</g>
<g style="mix-blend-mode:screen" opacity="0.77">
<path d="M2793.6 689.195C2793.6 689.195 2745.37 647.366 2661.28 715.591C2661.28 715.591 2637.35 757.941 2607.21 773.491C2577.08 789.042 2550.16 800.481 2552.58 857.519C2555 914.558 2674.29 934.408 2760.38 870.409C2846.47 806.409 2847.92 701.018 2793.6 689.195Z" fill="#667287"/>
</g>
<path d="M2542.2 1523.7L2476.61 1761.73H2765.5L2761.79 1522.77L2542.2 1523.7Z" fill="#002F69"/>
<path d="M2508.84 1523.7L2443.24 1761.73H2732.14L2728.42 1522.77L2508.84 1523.7Z" fill="#003F8C"/>
<path d="M2373.83 1045.98H3162.32C3167.4 1045.98 3172.41 1047.14 3176.96 1049.37C3181.52 1051.6 3185.5 1054.85 3188.61 1058.86C3191.72 1062.87 3193.88 1067.53 3194.9 1072.5C3195.93 1077.47 3195.81 1082.61 3194.55 1087.52L3067.65 1581.82C3065.81 1588.97 3061.65 1595.31 3055.81 1599.84C3049.98 1604.36 3042.8 1606.82 3035.42 1606.82H2206.17L2373.83 1045.98Z" fill="#002F69"/>
<path d="M3039.92 1539.97H3078.39L3062.93 1598.57C3060.98 1605.99 3056.62 1612.55 3050.55 1617.23C3044.47 1621.91 3037.02 1624.45 3029.35 1624.45H2236.54C2226.97 1624.45 2217.51 1622.45 2208.76 1618.58C2200.01 1614.71 2192.17 1609.05 2185.74 1601.97L2179.46 1595.06L3039.92 1539.97Z" fill="#002F69"/>
<path d="M2352.85 1045.98H3160.96L3016.97 1606.82H2203.87C2199 1606.82 2194.2 1605.68 2189.84 1603.49C2185.49 1601.31 2181.71 1598.14 2178.8 1594.23C2175.89 1590.33 2173.94 1585.8 2173.09 1581C2172.24 1576.21 2172.53 1571.28 2173.92 1566.61L2322.91 1068.28C2324.83 1061.83 2328.79 1056.18 2334.18 1052.16C2339.57 1048.15 2346.12 1045.98 2352.85 1045.98Z" fill="#003F8C"/>
<path d="M2203.87 1582.85C2202.73 1582.85 2201.61 1582.58 2200.6 1582.07C2199.58 1581.57 2198.7 1580.83 2198.02 1579.92C2197.35 1579.01 2196.89 1577.95 2196.69 1576.83C2196.5 1575.71 2196.56 1574.57 2196.89 1573.48L2345.87 1075.14C2346.32 1073.64 2347.25 1072.33 2348.5 1071.4C2349.76 1070.46 2351.28 1069.95 2352.85 1069.94H3114.38C3116.23 1069.94 3118.06 1070.37 3119.73 1071.18C3121.4 1072 3122.85 1073.19 3123.99 1074.65C3125.13 1076.12 3125.91 1077.82 3126.29 1079.64C3126.67 1081.46 3126.62 1083.34 3126.16 1085.13L3000.72 1573.71C3000.05 1576.33 2998.53 1578.64 2996.4 1580.3C2994.26 1581.95 2991.64 1582.85 2988.94 1582.85H2203.87Z" fill="#D9F0FF"/>
<path d="M2852.04 1762.41H2675.62C2672.4 1762.4 2669.33 1761.12 2667.05 1758.85C2664.78 1756.58 2663.5 1753.5 2663.49 1750.28V1722.93C2663.5 1719.72 2664.78 1716.64 2667.05 1714.37C2669.32 1712.1 2672.4 1710.82 2675.62 1710.81H2852.04C2858.88 1710.83 2865.43 1713.55 2870.27 1718.39C2875.1 1723.22 2877.82 1729.77 2877.84 1736.61C2877.82 1743.45 2875.1 1750 2870.27 1754.83C2865.43 1759.66 2858.88 1762.39 2852.04 1762.41Z" fill="#003F8C"/>
<path opacity="0.6" d="M2803.84 1110.9H3063.51C3081.29 1110.9 3093.62 1127.74 3088.5 1145.04L2979.74 1528.09C2977.99 1534.26 2974.29 1539.7 2969.19 1543.59C2964.1 1547.48 2957.88 1549.62 2951.46 1549.68H2681.7C2666.58 1549.68 2656.11 1535.36 2660.5 1520.67L2776.83 1130.82C2778.66 1125.08 2782.26 1120.07 2787.11 1116.49C2791.96 1112.92 2797.81 1110.96 2803.84 1110.9Z" fill="url(#paint10_linear_1_2)"/>
<g opacity="0.6">
<path d="M2692.23 1163.56H2367.14C2365.18 1163.58 2363.24 1163.2 2361.44 1162.43C2359.63 1161.67 2358.01 1160.53 2356.67 1159.11C2355.33 1157.68 2354.3 1155.99 2353.65 1154.14C2353 1152.3 2352.74 1150.33 2352.89 1148.38C2353.19 1144.29 2355.01 1140.47 2357.99 1137.66C2360.97 1134.85 2364.9 1133.26 2369 1133.21H2694.09C2696.05 1133.18 2697.99 1133.56 2699.79 1134.33C2701.59 1135.1 2703.21 1136.23 2704.55 1137.66C2705.89 1139.08 2706.92 1140.78 2707.57 1142.62C2708.22 1144.47 2708.48 1146.43 2708.33 1148.38C2708.04 1152.47 2706.22 1156.3 2703.24 1159.11C2700.25 1161.92 2696.33 1163.5 2692.23 1163.56Z" fill="#B0D0FF"/>
<path d="M2668.37 1235.02H2343.28C2341.32 1235.05 2339.38 1234.67 2337.58 1233.9C2335.78 1233.13 2334.16 1232 2332.82 1230.57C2331.48 1229.15 2330.45 1227.45 2329.8 1225.61C2329.15 1223.76 2328.89 1221.8 2329.04 1219.85C2329.33 1215.76 2331.15 1211.93 2334.13 1209.12C2337.12 1206.31 2341.04 1204.73 2345.14 1204.67H2670.23C2672.19 1204.65 2674.13 1205.03 2675.93 1205.8C2677.74 1206.56 2679.36 1207.7 2680.7 1209.12C2682.04 1210.55 2683.07 1212.24 2683.72 1214.09C2684.37 1215.94 2684.63 1217.9 2684.48 1219.85C2684.18 1223.94 2682.36 1227.76 2679.38 1230.57C2676.4 1233.38 2672.47 1234.97 2668.37 1235.02Z" fill="#B0D0FF"/>
<path d="M2646.64 1306.66H2321.55C2319.59 1306.68 2317.65 1306.3 2315.85 1305.53C2314.04 1304.77 2312.42 1303.63 2311.08 1302.21C2309.74 1300.78 2308.71 1299.09 2308.06 1297.24C2307.41 1295.4 2307.15 1293.44 2307.3 1291.48C2307.6 1287.4 2309.42 1283.57 2312.4 1280.76C2315.38 1277.95 2319.31 1276.36 2323.41 1276.31H2648.5C2650.46 1276.28 2652.4 1276.67 2654.2 1277.43C2656 1278.2 2657.63 1279.33 2658.97 1280.76C2660.3 1282.19 2661.33 1283.88 2661.98 1285.72C2662.63 1287.57 2662.89 1289.53 2662.74 1291.48C2662.45 1295.57 2660.63 1299.4 2657.65 1302.21C2654.66 1305.02 2650.74 1306.61 2646.64 1306.66Z" fill="#B0D0FF"/>
<path d="M2618.19 1381.3H2293.09C2291.14 1381.32 2289.19 1380.94 2287.39 1380.17C2285.59 1379.4 2283.97 1378.27 2282.63 1376.84C2281.29 1375.42 2280.26 1373.73 2279.61 1371.88C2278.96 1370.03 2278.7 1368.07 2278.85 1366.12C2279.15 1362.03 2280.96 1358.21 2283.95 1355.4C2286.93 1352.59 2290.86 1351 2294.96 1350.95H2620.05C2622.01 1350.92 2623.95 1351.3 2625.75 1352.07C2627.55 1352.84 2629.17 1353.97 2630.51 1355.4C2631.85 1356.82 2632.88 1358.51 2633.53 1360.36C2634.18 1362.21 2634.44 1364.17 2634.29 1366.12C2634 1370.21 2632.18 1374.04 2629.19 1376.85C2626.21 1379.66 2622.28 1381.24 2618.19 1381.3Z" fill="#B0D0FF"/>
</g>
<path d="M2791.68 1187.61H2847.27C2847.71 1187.61 2848.16 1187.63 2848.6 1187.61C2850.15 1187.52 2850.81 1186.72 2851.7 1185.74L2868.17 1167.52C2871.37 1163.98 2874.57 1160.45 2877.77 1156.92C2879.57 1154.92 2881.47 1152.99 2883.19 1150.92C2883.27 1150.82 2883.36 1150.73 2883.45 1150.63C2881.64 1149.88 2879.82 1149.13 2878.01 1148.38C2878.25 1155.72 2878.49 1163.07 2878.73 1170.41C2879.12 1182.16 2879.51 1193.91 2879.89 1205.67C2879.98 1208.35 2880.07 1211.04 2880.16 1213.73C2880.18 1214.42 2880.42 1215.08 2880.84 1215.62C2881.27 1216.16 2881.86 1216.55 2882.53 1216.73C2883.19 1216.91 2883.9 1216.87 2884.54 1216.62C2885.18 1216.37 2885.72 1215.92 2886.09 1215.33C2887.73 1212.77 2889.36 1210.21 2891 1207.64C2894.93 1201.48 2898.87 1195.33 2902.8 1189.17C2907.53 1181.76 2912.27 1174.35 2917 1166.94C2921.11 1160.5 2925.23 1154.06 2929.34 1147.62C2931.32 1144.51 2933.59 1141.46 2935.34 1138.22C2935.37 1138.18 2935.4 1138.13 2935.43 1138.09L2929.49 1136.48C2930.39 1143.51 2931.29 1150.55 2932.18 1157.58C2933.61 1168.77 2935.04 1179.97 2936.47 1191.16C2936.79 1193.71 2937.12 1196.27 2937.44 1198.82C2937.47 1199.5 2937.71 1200.16 2938.14 1200.7C2938.57 1201.24 2939.15 1201.63 2939.82 1201.81C2940.48 1201.99 2941.18 1201.95 2941.82 1201.7C2942.46 1201.45 2943.01 1201 2943.38 1200.42C2946.66 1196.15 2949.94 1191.88 2953.22 1187.61C2958.46 1180.79 2963.69 1173.98 2968.92 1167.17C2970.13 1165.61 2971.33 1164.04 2972.53 1162.47L2966.71 1161.71C2968.16 1169.15 2969.61 1176.58 2971.06 1184.01C2971.27 1185.08 2971.48 1186.16 2971.69 1187.23C2971.88 1187.9 2972.28 1188.49 2972.83 1188.91C2973.39 1189.33 2974.06 1189.56 2974.76 1189.57H3046.73C3050.83 1189.57 3050.84 1183.2 3046.73 1183.2H2974.76L2977.83 1185.54C2976.38 1178.11 2974.93 1170.67 2973.48 1163.24C2973.27 1162.17 2973.06 1161.1 2972.85 1160.02C2972.69 1159.42 2972.35 1158.89 2971.88 1158.48C2971.4 1158.07 2970.82 1157.82 2970.21 1157.74C2969.59 1157.67 2968.96 1157.78 2968.4 1158.05C2967.84 1158.31 2967.37 1158.74 2967.03 1159.26C2963.75 1163.53 2960.47 1167.81 2957.19 1172.08C2951.95 1178.89 2946.72 1185.7 2941.49 1192.51C2940.28 1194.08 2939.08 1195.64 2937.88 1197.21L2943.81 1198.82C2942.91 1191.79 2942.02 1184.75 2941.12 1177.72C2939.69 1166.53 2938.26 1155.33 2936.84 1144.14C2936.51 1141.58 2936.19 1139.03 2935.86 1136.48C2935.84 1135.79 2935.6 1135.12 2935.18 1134.57C2934.76 1134.02 2934.18 1133.62 2933.52 1133.41C2932.85 1133.24 2932.13 1133.29 2931.49 1133.55C2930.84 1133.82 2930.29 1134.28 2929.93 1134.88C2928.29 1137.44 2926.65 1140 2925.01 1142.57C2921.08 1148.73 2917.15 1154.88 2913.22 1161.04C2908.48 1168.45 2903.75 1175.86 2899.02 1183.27C2894.9 1189.71 2890.79 1196.15 2886.68 1202.59C2884.69 1205.7 2882.43 1208.75 2880.67 1211.99C2880.65 1212.03 2880.62 1212.08 2880.59 1212.12C2882.57 1212.66 2884.54 1213.19 2886.52 1213.73L2885.8 1191.7C2885.41 1179.95 2885.03 1168.2 2884.64 1156.44C2884.56 1153.76 2884.47 1151.07 2884.38 1148.38C2884.29 1145.77 2880.87 1144 2878.94 1146.13C2875.28 1150.18 2871.61 1154.24 2867.95 1158.29C2862.1 1164.76 2856.25 1171.23 2850.4 1177.7C2849.05 1179.19 2847.7 1180.68 2846.35 1182.17C2847.1 1181.86 2847.85 1181.55 2848.6 1181.24H2791.68C2787.58 1181.24 2787.57 1187.61 2791.68 1187.61Z" fill="#FCF7F7"/>
<path opacity="0.66" d="M2769.44 1252.47H3013.32C3014.42 1252.46 3015.51 1252.72 3016.49 1253.21C3017.48 1253.71 3018.33 1254.44 3018.97 1255.33C3019.62 1256.22 3020.04 1257.26 3020.2 1258.35C3020.37 1259.44 3020.27 1260.55 3019.91 1261.6L2995.29 1350.45C2994.8 1352.06 2993.8 1353.47 2992.46 1354.48C2991.11 1355.48 2989.48 1356.04 2987.8 1356.06H2741.99C2740.89 1356.07 2739.81 1355.82 2738.83 1355.32C2737.85 1354.83 2737 1354.11 2736.35 1353.22C2735.71 1352.34 2735.28 1351.31 2735.11 1350.23C2734.94 1349.14 2735.03 1348.03 2735.38 1346.99L2761.92 1258.13C2762.41 1256.51 2763.4 1255.09 2764.75 1254.07C2766.11 1253.05 2767.75 1252.49 2769.44 1252.47Z" fill="#D9F0FF"/>
<mask id="mask0_1_2" style="mask-type:luminance" maskUnits="userSpaceOnUse" x="1276" y="621" width="1837" height="1783">
<path style="mix-blend-mode:multiply" d="M3102.37 1066.96L1583.05 622.205C1581.08 621.649 1578.99 621.615 1577 622.107C1575.01 622.599 1573.18 623.601 1571.69 625.013C1531.72 661.06 1204.29 1071.74 1291.58 1549.68C1438.45 2353.92 2006.65 2414.47 2031.34 2401.49C2036.81 2398.62 2042.34 2405.87 2047.14 2401.96L3001.52 1581.17C3004.31 1578.8 3006.22 1575.55 3006.94 1571.96L3106.53 1111.02L3112.15 1086.73C3114.16 1078.04 3109.73 1069.1 3102.37 1066.96Z" fill="url(#paint11_linear_1_2)"/>
</mask>
<g mask="url(#mask0_1_2)">
<path style="mix-blend-mode:screen" d="M3102.37 1066.96L1583.05 622.205C1581.08 621.649 1578.99 621.615 1577 622.107C1575.01 622.599 1573.18 623.601 1571.69 625.013C1531.72 661.06 1204.29 1071.74 1291.58 1549.68C1438.45 2353.92 2006.65 2414.47 2031.34 2401.49C2036.81 2398.62 2042.34 2405.87 2047.14 2401.96L3001.52 1581.17C3004.31 1578.8 3006.22 1575.55 3006.94 1571.96L3106.53 1111.02L3112.15 1086.73C3114.16 1078.04 3109.73 1069.1 3102.37 1066.96Z" fill="url(#paint12_linear_1_2)"/>
</g>
<path d="M3315.53 2252.05L3124.55 2329.22C3105.34 2336.98 3088.97 2350.43 3077.62 2367.76L2977.01 2521.52L2949.8 2505.45C2902.93 2477.74 2805.23 2396.56 2769.41 2355.54L2752.85 2334.85L2602.87 2147.38L2798.14 2073.7C2809.95 2069.25 2820.86 2062.73 2830.38 2054.46L2947.48 1952.69L2949.25 1951.14L2959.19 1942.5C3036.52 1946.38 3097.08 1963.34 3144.49 1987.48C3314.17 2073.84 3315.53 2252.05 3315.53 2252.05Z" fill="#FFBA94"/>
<path d="M3376.76 1745.39C3376.76 1745.39 3318.64 1720.9 3274.33 1740C3230.03 1759.11 3167.44 1793.4 3167.44 1793.4H3350.05L3376.76 1745.39Z" fill="#E0A60D"/>
<path d="M3315.53 2252.05L3124.55 2329.22C3105.34 2336.98 3088.97 2350.43 3077.62 2367.76L2977.01 2521.52L2949.8 2505.45C2902.93 2477.74 2805.23 2396.56 2769.41 2355.54L2752.85 2334.85L3029.27 2280.73C3034.54 2279.7 3039.44 2277.28 3043.48 2273.74C3047.51 2270.19 3050.53 2265.64 3052.23 2260.54C3105.65 2101.24 2968.77 1971.62 2947.48 1952.69C2945.71 1951.12 2944.74 1950.3 2944.74 1950.3L2949.25 1951.14L3144.49 1987.48C3314.17 2073.84 3315.53 2252.05 3315.53 2252.05Z" fill="#F7AA84"/>
<path d="M3684.1 1993.73C3684.1 1993.73 3630.65 2157.41 3291.04 2268.77L3277.25 2234.3C3256.11 2181.47 3240.61 2159.01 3187.7 2102.4C3170.29 2083.77 3150.19 2067.86 3128.06 2055.2L2944.73 1950.3L2970.34 1925.81C2970.34 1925.81 2978.15 1871.61 2993.73 1819.27C2993.73 1819.27 3102.85 1740.01 3340.73 1762.73L3565.86 1804.36C3565.86 1804.36 3665.18 1926.92 3684.1 1993.73Z" fill="#FCB500"/>
<path d="M3540.9 1716.89C3540.9 1716.89 3614.82 1789.74 3768.89 1769.03C3922.97 1748.33 3690.84 1622.65 3690.84 1622.65L3540.9 1716.89Z" fill="#12223A"/>
<path d="M3482.28 1660.73C3482.28 1660.73 3438.57 1721.1 3340.73 1762.73C3340.73 1762.73 3353.86 1854.32 3565.86 1804.36L3621.75 1723.18L3482.28 1660.73Z" fill="#F7AA84"/>
<path d="M3347.18 1582.33C3347.18 1582.33 3337.48 1207.4 3661.79 1257.38C3973.71 1305.46 3347.18 1582.33 3347.18 1582.33Z" fill="#1D3151"/>
<mask id="mask1_1_2" style="mask-type:luminance" maskUnits="userSpaceOnUse" x="3347" y="1252" width="402" height="331">
<path style="mix-blend-mode:multiply" d="M3347.18 1582.33C3347.18 1582.33 3337.48 1207.4 3661.79 1257.38C3973.71 1305.46 3347.18 1582.33 3347.18 1582.33Z" fill="url(#paint13_linear_1_2)"/>
</mask>
<g mask="url(#mask1_1_2)">
<path style="mix-blend-mode:multiply" opacity="0.6" d="M3347.18 1582.33C3347.18 1582.33 3337.48 1207.4 3661.79 1257.38C3973.71 1305.46 3347.18 1582.33 3347.18 1582.33Z" fill="url(#paint14_linear_1_2)"/>
</g>
<path d="M3560.82 1319.22C3523.65 1332.34 3490.28 1354.38 3463.63 1383.41C3400.57 1451.84 3300.28 1581.97 3340.73 1689.12C3375.35 1780.82 3633 1721.73 3633 1721.73L3734.47 1614.18C3734.47 1614.18 3868.62 1211.23 3560.82 1319.22Z" fill="#FFBA94"/>
<path d="M3595.13 1659.53C3630.86 1639.04 3644.6 1595.88 3625.82 1563.13C3607.04 1530.39 3562.85 1520.46 3527.12 1540.95C3491.38 1561.45 3477.64 1604.61 3496.42 1637.35C3515.21 1670.1 3559.4 1680.03 3595.13 1659.53Z" fill="#FCA286"/>
<path d="M4142.85 1475.11C4142.85 1475.11 4044.77 1458.42 4003.68 1582.85C3956.59 1725.43 3931.22 1741.83 3809.19 1767.91C3687.15 1793.99 3682.46 1643.26 3682.46 1643.26C3468.55 1520.48 3566.03 1291.41 3566.03 1291.41C3585.96 1281.6 3606.58 1273.25 3627.72 1266.42C3821.35 1204.99 3872.48 1361.89 3872.48 1361.89C3892.32 1346.2 3949.67 1433.15 4016.89 1424.38C4025.02 1423.3 4033.21 1422.67 4041.42 1422.51H4041.44C4058.46 1422.22 4072.75 1424.23 4084.72 1427.63C4085.59 1427.88 4086.44 1428.13 4087.28 1428.39C4131.86 1442.13 4142.85 1475.11 4142.85 1475.11Z" fill="#1D3151"/>
<path d="M3641.59 1586.03C3641.59 1586.03 3582.63 1684.63 3607.04 1678.62C3631.45 1672.62 3690.84 1622.65 3690.84 1622.65L3641.59 1586.03Z" fill="#1D3151"/>
<path d="M2900.56 2120.49L2867.16 2150.55L2785.32 2178.94L2900.56 2120.49Z" fill="#F7AA84"/>
<path d="M3372.52 1591.76L3429.55 1628.22C3429.55 1628.22 3414.76 1653.66 3385.88 1654.54C3356.99 1655.42 3372.52 1591.76 3372.52 1591.76Z" fill="#FF806D"/>
<path d="M3569.06 1504.08C3565.03 1500.26 3561.22 1494.4 3557.37 1488.8C3553.55 1483.13 3549.64 1477.47 3546.16 1472.6C3542.68 1467.71 3538.58 1462.17 3534.45 1456.7C3530.4 1451.23 3526.06 1445.67 3523.85 1440.75C3521.69 1436.02 3522.86 1432.76 3529.32 1435.8C3535.5 1438.6 3547.3 1448.75 3558.85 1464.9C3570.35 1481.04 3575.81 1495.05 3576.15 1501.39C3576.63 1508.07 3572.92 1507.77 3569.06 1504.08Z" fill="#1D3151"/>
<path d="M3473.51 1410.73C3469.45 1410.53 3464.62 1408.92 3459.88 1407.5C3455.13 1406.02 3450.33 1404.59 3446.13 1403.42C3441.93 1402.26 3437.07 1401 3432.22 1399.82C3427.42 1398.59 3422.41 1397.47 3418.94 1395.57C3415.59 1393.76 3414.85 1391.05 3420.02 1389.41C3424.9 1387.76 3436.35 1387.68 3450.27 1391.53C3464.17 1395.41 3473.55 1401.28 3476.54 1405.11C3479.75 1409.08 3477.42 1410.94 3473.51 1410.73Z" fill="#1D3151"/>
<path d="M3396.12 1553.23C3396.35 1553.39 3396.59 1553.55 3396.84 1553.69L3406.49 1559.36C3407.07 1559.62 3407.73 1559.66 3408.33 1559.45C3408.94 1559.25 3409.44 1558.82 3409.75 1558.26C3410.52 1557.05 3410.33 1555.47 3409.3 1554.98L3399.65 1549.31C3396.82 1547.66 3395.24 1544.49 3395.1 1540.36C3395.1 1535.55 3396.53 1530.85 3399.23 1526.87L3400.06 1525.57C3402.25 1522.15 3405.81 1520.39 3407.98 1521.66C3411.21 1523.56 3415.36 1523.53 3419.68 1521.6C3424.12 1519.48 3427.85 1516.13 3430.44 1511.95L3442.2 1493.41C3442.57 1492.91 3442.72 1492.28 3442.63 1491.67C3442.55 1491.06 3442.22 1490.51 3441.73 1490.13C3441.15 1489.87 3440.49 1489.84 3439.88 1490.05C3439.28 1490.26 3438.78 1490.68 3438.47 1491.25L3426.72 1509.78C3424.76 1512.96 3421.94 1515.51 3418.57 1517.14C3415.64 1518.45 3412.87 1518.5 3410.79 1517.28C3406.57 1514.8 3400.09 1517.54 3396.35 1523.39L3395.52 1524.68C3392.19 1529.63 3390.42 1535.47 3390.44 1541.43C3390.62 1546.68 3392.63 1550.83 3396.12 1553.23Z" fill="#FF806D"/>
<path d="M3504.19 1498.45C3498.14 1507.02 3498.88 1517.87 3505.84 1522.68C3512.81 1527.5 3523.37 1524.45 3529.42 1515.88C3535.48 1507.31 3534.74 1496.46 3527.77 1491.65C3520.8 1486.83 3510.25 1489.88 3504.19 1498.45Z" fill="#352D29"/>
<path d="M3528.88 1505.72C3528.88 1505.72 3536.74 1507.93 3544.31 1505.08C3544.31 1505.08 3536.45 1510.8 3531.59 1512.11C3526.73 1513.42 3528.88 1505.72 3528.88 1505.72Z" fill="#352D29"/>
<path d="M3440.74 1460.51C3436.67 1470.54 3428.37 1476.97 3422.2 1474.89C3416.02 1472.81 3414.31 1462.99 3418.37 1452.96C3422.43 1442.94 3430.73 1436.5 3436.91 1438.58C3443.09 1440.66 3444.8 1450.48 3440.74 1460.51Z" fill="#352D29"/>
<path d="M3426.09 1446.82C3423.06 1443.55 3421.19 1439.37 3420.76 1434.93C3420.76 1434.93 3419.49 1444.46 3420.34 1448.92C3421.2 1453.38 3426.09 1446.82 3426.09 1446.82Z" fill="#352D29"/>
<mask id="mask2_1_2" style="mask-type:luminance" maskUnits="userSpaceOnUse" x="3543" y="1291" width="600" height="480">
<path style="mix-blend-mode:multiply" d="M4142.85 1475.11C4142.85 1475.11 4044.77 1458.42 4003.68 1582.85C3956.59 1725.43 3931.22 1741.83 3809.19 1767.91C3687.15 1793.99 3682.46 1643.26 3682.46 1643.26C3468.55 1520.48 3566.03 1291.41 3566.03 1291.41C3566.03 1291.41 3529.97 1562.63 3690.83 1559.62C3851.7 1556.6 3860.42 1671.11 3941.12 1582.2C4021.81 1493.3 4052.89 1445.05 4142.85 1475.11Z" fill="url(#paint15_linear_1_2)"/>
</mask>
<g mask="url(#mask2_1_2)">
<path style="mix-blend-mode:multiply" opacity="0.6" d="M4142.85 1475.11C4142.85 1475.11 4044.77 1458.42 4003.68 1582.85C3956.59 1725.43 3931.22 1741.83 3809.19 1767.91C3687.15 1793.99 3682.46 1643.26 3682.46 1643.26C3468.55 1520.48 3566.03 1291.41 3566.03 1291.41C3566.03 1291.41 3529.97 1562.63 3690.83 1559.62C3851.7 1556.6 3860.42 1671.11 3941.12 1582.2C4021.81 1493.3 4052.89 1445.05 4142.85 1475.11Z" fill="url(#paint16_linear_1_2)"/>
</g>
<path d="M3665.37 1626.47C3665.37 1626.47 3706.74 1609.01 3723.1 1646.99C3739.46 1684.98 3690.27 1727.13 3647.12 1725.38C3603.97 1723.63 3607.04 1678.62 3607.04 1678.62L3665.37 1626.47Z" fill="#FFBA94"/>
<path d="M3649.77 1695.36C3648.9 1694.43 3648.42 1693.2 3648.45 1691.93L3648.92 1662.99L3693.1 1660.86C3693.78 1660.81 3694.46 1660.9 3695.1 1661.13C3695.75 1661.35 3696.34 1661.71 3696.83 1662.18C3697.33 1662.65 3697.72 1663.21 3697.99 1663.84C3698.25 1664.47 3698.38 1665.15 3698.37 1665.83C3698.32 1667.25 3697.74 1668.61 3696.74 1669.62C3695.74 1670.64 3694.39 1671.24 3692.97 1671.31L3659.44 1672.93L3659.13 1691.45C3659.08 1692.87 3658.49 1694.22 3657.49 1695.24C3656.49 1696.25 3655.14 1696.85 3653.71 1696.91C3652.98 1696.96 3652.25 1696.84 3651.57 1696.57C3650.89 1696.3 3650.27 1695.89 3649.77 1695.36Z" fill="#FF806D"/>
<mask id="mask3_1_2" style="mask-type:luminance" maskUnits="userSpaceOnUse" x="3606" y="1252" width="436" height="204">
<path style="mix-blend-mode:multiply" d="M4016.89 1424.38C4025.02 1423.3 4033.21 1422.67 4041.42 1422.51C4016.6 1426.7 3981.97 1439.09 3917.64 1452.42C3809.51 1474.84 3752.8 1350.89 3726.31 1300.83C3699.82 1250.78 3614.35 1276.3 3614.35 1276.3H3606.99L3627.72 1266.42C3821.35 1204.99 3872.48 1361.89 3872.48 1361.89C3892.32 1346.2 3949.68 1433.15 4016.89 1424.38Z" fill="url(#paint17_linear_1_2)"/>
</mask>
<g mask="url(#mask3_1_2)">
<path style="mix-blend-mode:multiply" opacity="0.6" d="M4016.89 1424.38C4025.02 1423.3 4033.21 1422.67 4041.42 1422.51C4016.6 1426.7 3981.97 1439.09 3917.64 1452.42C3809.51 1474.84 3752.8 1350.89 3726.31 1300.83C3699.82 1250.78 3614.35 1276.3 3614.35 1276.3H3606.99L3627.72 1266.42C3821.35 1204.99 3872.48 1361.89 3872.48 1361.89C3892.32 1346.2 3949.68 1433.15 4016.89 1424.38Z" fill="url(#paint18_linear_1_2)"/>
</g>
<mask id="mask4_1_2" style="mask-type:luminance" maskUnits="userSpaceOnUse" x="4084" y="1427" width="4" height="2">
<path style="mix-blend-mode:multiply" d="M4087.28 1428.39C4086.39 1428.38 4085.51 1428.12 4084.76 1427.64C4084.75 1427.64 4084.73 1427.64 4084.72 1427.63C4085.59 1427.88 4086.44 1428.13 4087.28 1428.39Z" fill="url(#paint19_linear_1_2)"/>
</mask>
<g mask="url(#mask4_1_2)">
<path d="M4087.28 1428.39C4086.39 1428.38 4085.51 1428.12 4084.76 1427.64C4084.75 1427.64 4084.73 1427.64 4084.72 1427.63C4085.59 1427.88 4086.44 1428.13 4087.28 1428.39Z" fill="url(#paint20_linear_1_2)"/>
</g>
<path opacity="0.7" d="M3344.71 2140.53L3300.94 2178.95C3300.94 2178.95 3222.92 1995.28 2970.34 1925.81C2970.34 1925.81 2978.15 1871.61 2993.73 1819.27C2993.73 1819.27 2989.12 1854.32 3081.58 1870.4C3174.04 1886.48 3266.6 1870.4 3318.9 1950.3C3391.9 2061.82 3344.71 2140.53 3344.71 2140.53Z" fill="#D49E12"/>
<path d="M2468.02 1754.48C2466.64 1731.8 2451.29 1712.39 2431.91 1701.58C2409.12 1688.86 2381.16 1685.93 2355.57 1688.53C2332.19 1690.91 2308.77 1697.23 2288.49 1709.34C2268.97 1721 2253.52 1738.04 2245.13 1759.27C2236.89 1780.14 2235.77 1803.3 2238.23 1825.4C2240.82 1848.57 2247.19 1871.02 2255.39 1892.79C2265.03 1918.39 2276.13 1943.49 2283.96 1969.75C2291.37 1994.6 2295.82 2021.05 2291.47 2046.9C2284.34 2089.37 2254.3 2126.97 2214.78 2143.91C2209.93 2145.97 2204.96 2147.7 2199.89 2149.11C2196.17 2150.14 2197.75 2155.94 2201.48 2154.89C2242.9 2143.31 2276.9 2110.46 2291.52 2070.21C2309.42 2020.92 2291.95 1969.59 2273.69 1923.2C2264.66 1900.24 2255.1 1877.43 2249.28 1853.38C2244.04 1831.72 2241.28 1808.96 2244.27 1786.75C2247.17 1765.15 2256.15 1744.84 2271.86 1729.51C2288.33 1713.44 2310.04 1703.73 2332.22 1698.47C2356.63 1692.67 2382.76 1691.54 2407.12 1698.18C2428.85 1704.11 2449.84 1717.25 2458.5 1738.99C2460.49 1743.93 2461.68 1749.16 2462.02 1754.48C2462.25 1758.32 2468.25 1758.34 2468.02 1754.48Z" fill="#003244"/>
<mask id="mask5_1_2" style="mask-type:luminance" maskUnits="userSpaceOnUse" x="2656" y="2054" width="264" height="209">
<path style="mix-blend-mode:multiply" d="M2827.48 2056.72L2919.2 2054.75C2919.2 2054.75 2914.55 2237.38 2752.85 2258.91C2591.15 2280.43 2681.95 2184.68 2681.95 2184.68C2681.95 2184.68 2816.58 2092.29 2827.48 2056.72Z" fill="url(#paint21_linear_1_2)"/>
</mask>
<g mask="url(#mask5_1_2)">
<path style="mix-blend-mode:screen" d="M2827.48 2056.72L2919.2 2054.75C2919.2 2054.75 2914.55 2237.38 2752.85 2258.91C2591.15 2280.43 2681.95 2184.68 2681.95 2184.68C2681.95 2184.68 2816.58 2092.29 2827.48 2056.72Z" fill="url(#paint22_linear_1_2)"/>
</g>
<path d="M2827.48 2056.72C2790.83 2153.97 2689.93 2184.68 2689.93 2184.68L2623.31 2034.88L2445.31 1793.1C2441.79 1788.32 2440.08 1782.46 2440.48 1776.54C2440.88 1770.63 2443.36 1765.05 2447.48 1760.79L2464.7 1742.99L2494.7 1730.82C2499.03 1729.06 2503.82 1728.82 2508.31 1730.12C2512.8 1731.42 2516.71 1734.2 2519.43 1738.01L2698 1988.51L2805.53 2045.16L2827.48 2056.72Z" fill="#E0A60D"/>
<path opacity="0.7" d="M2805.53 2045.16C2764.26 2102.92 2711.3 2127.44 2711.3 2127.44L2669.16 2020.69L2464.7 1742.99L2494.7 1730.82C2499.03 1729.06 2503.82 1728.82 2508.31 1730.12C2512.8 1731.42 2516.71 1734.2 2519.43 1738.01L2698 1988.51L2805.53 2045.16Z" fill="#FCB500"/>
<mask id="mask6_1_2" style="mask-type:luminance" maskUnits="userSpaceOnUse" x="673" y="1314" width="491" height="491">
<path style="mix-blend-mode:multiply" d="M1091.61 1732.86C1187.3 1637.18 1187.3 1482.05 1091.61 1386.37C995.933 1290.69 840.802 1290.69 745.12 1386.37C649.438 1482.05 649.438 1637.18 745.12 1732.86C840.801 1828.55 995.933 1828.55 1091.61 1732.86Z" fill="url(#paint23_radial_1_2)"/>
</mask>
<g mask="url(#mask6_1_2)">
<path style="mix-blend-mode:screen" d="M1091.61 1732.86C1187.3 1637.18 1187.3 1482.05 1091.61 1386.37C995.933 1290.69 840.802 1290.69 745.12 1386.37C649.438 1482.05 649.438 1637.18 745.12 1732.86C840.801 1828.55 995.933 1828.55 1091.61 1732.86Z" fill="url(#paint24_radial_1_2)"/>
</g>
<mask id="mask7_1_2" style="mask-type:luminance" maskUnits="userSpaceOnUse" x="720" y="1362" width="396" height="396">
<path style="mix-blend-mode:multiply" d="M1058.02 1699.27C1135.14 1622.14 1135.14 1497.09 1058.02 1419.97C980.89 1342.84 855.844 1342.84 778.718 1419.97C701.593 1497.09 701.593 1622.14 778.718 1699.27C855.844 1776.39 980.89 1776.39 1058.02 1699.27Z" fill="url(#paint25_radial_1_2)"/>
</mask>
<g mask="url(#mask7_1_2)">
<path style="mix-blend-mode:screen" d="M1058.02 1699.27C1135.14 1622.14 1135.14 1497.09 1058.02 1419.97C980.89 1342.84 855.844 1342.84 778.718 1419.97C701.593 1497.09 701.593 1622.14 778.718 1699.27C855.844 1776.39 980.89 1776.39 1058.02 1699.27Z" fill="url(#paint26_radial_1_2)"/>
</g>
<path d="M807.096 1449.25C807.096 1449.25 937.798 1428.1 1031.79 1453.26C1031.79 1453.26 1053.74 1665.02 915.126 1721.13C915.126 1721.13 780.748 1668.91 807.096 1449.25Z" fill="white"/>
<g style="mix-blend-mode:multiply" opacity="0.62">
<path d="M2715.07 1863.09L2543.24 1836.76C2534.85 1835.48 2526.28 1836.32 2518.3 1839.2C2510.33 1842.09 2503.2 1846.93 2497.58 1853.28L2425.58 1944.31L2405 1940.66C2405.39 1933.39 2405.39 1928.9 2405.39 1928.9L2392.5 1927.45C2392.4 1923.42 2392.06 1919.39 2391.47 1915.4L2075.74 1802.8C2254.92 1697.02 2274.87 1520.49 2274.87 1520.49C2274.16 1517.89 2273.36 1515.34 2272.5 1512.84L2289.81 1478.21C2288.55 1474.77 2287.05 1471.43 2285.32 1468.21L2311.82 1415.42L2347.31 1399.59C2356.64 1395.42 2364.9 1389.2 2371.48 1381.39C2378.07 1373.58 2382.8 1364.39 2385.32 1354.49L2401.66 1290.36L2429.92 1249.72C2431.97 1246.77 2433.21 1243.32 2433.5 1239.74C2433.79 1236.15 2433.13 1232.56 2431.58 1229.31L2424.88 1215.29L2434.33 1203.93C2436.22 1201.66 2437.48 1198.93 2437.99 1196.02C2438.49 1193.11 2438.22 1190.12 2437.21 1187.34L2454.86 1149.78C2456.48 1146.34 2457.23 1142.56 2457.07 1138.76C2456.9 1134.97 2455.81 1131.26 2453.9 1127.98L2445.45 1113.48L2452.23 1096.64C2453.42 1093.66 2453.88 1090.44 2453.57 1087.24C2453.25 1084.05 2452.17 1080.98 2450.41 1078.3L2442.31 1065.91L2447.51 1049.85C2448.67 1046.3 2448.59 1042.47 2447.3 1038.96C2446.02 1035.46 2443.59 1032.49 2440.41 1030.53C2437.24 1028.56 2433.49 1027.73 2429.79 1028.14C2426.08 1028.56 2422.61 1030.21 2419.95 1032.83L2278.02 1172.65C2278.02 1172.65 2245.31 1292.08 2240.6 1357.65L2197.57 1393.49C2190.4 1390.69 2183.09 1388.27 2175.67 1386.24L2145.83 1404.87C2140.6 1403.18 2137.53 1402.41 2137.53 1402.41L1915.96 1498.84C1915.96 1498.84 1813.26 1512.99 1729.78 1508.23C1710.09 1507.03 1690.47 1504.74 1671.03 1501.37C1668.19 1498.66 1665.34 1495.99 1662.47 1493.36C1670.85 1454.14 1678.69 1413.62 1678.69 1413.62V1405.8C1678.69 1403.36 1677.79 1401 1676.17 1399.17C1674.55 1397.34 1672.31 1396.18 1669.89 1395.89C1668.68 1395.75 1667.48 1395.59 1666.29 1395.43C1673.9 1366.62 1682.54 1347.6 1682.54 1347.6C1682.54 1347.6 1684.86 1342.5 1687.32 1337.51C1718.81 1343.38 1751.35 1339.75 1780.77 1327.06C1790.42 1323.02 1799.5 1317.71 1807.75 1311.28C1849.31 1277.81 1811.54 1160.02 1811.54 1160.02L1831.39 1133.29C1815.99 1117.51 1793.22 1088.43 1777.25 1067.4C1786.03 1043.85 1791.52 1006.82 1768.76 962.938C1747.17 921.295 1718.38 899.6 1696.66 888.48C1678.22 863.717 1654.98 853.33 1635.07 849.388C1620.78 846.506 1606.07 846.462 1591.77 849.258C1591.77 849.258 1512.6 808.209 1406.62 866.074C1300.64 923.934 1308.95 1027.16 1308.95 1027.16C1303.76 1035.29 1298.25 1055.41 1295.49 1078.21C1277.24 1086.08 1262.1 1099.78 1252.46 1117.16C1242.81 1134.55 1239.2 1154.64 1242.19 1174.29C1245.18 1193.95 1254.6 1212.06 1268.97 1225.79C1283.35 1239.52 1301.87 1248.1 1321.64 1250.18C1322.18 1279.05 1327.28 1303.4 1335.98 1323.43C1348.78 1352.89 1369.37 1373.05 1394.74 1384.66C990.704 1730.72 981.644 2333.2 981.644 2333.2L1768.79 2278.66V1992.23L2320.17 2098.58C2325.29 2093.13 2330.06 2087.7 2334.47 2082.28L2359.33 2085.69C2359.33 2085.69 2368.38 2064.09 2378.74 2041.72L2420.64 2042.73L2420.66 2042.35C2421.61 2042.67 2422.59 2042.87 2423.58 2042.94L2496.12 2048.19C2497.8 2048.31 2499.48 2048.07 2501.06 2047.5C2502.64 2046.92 2504.08 2046.01 2505.28 2044.83L2560.94 1990.44L2594.47 1956.17C2595.52 1955.1 2596.77 1954.23 2598.15 1953.62L2604.15 1952.67C2604.51 1952.71 2604.88 1952.74 2605.24 1952.82L2667.29 1964.93C2669.8 1965.42 2672.4 1965.08 2674.71 1963.98C2677.01 1962.87 2678.9 1961.05 2680.09 1958.79C2681.28 1956.52 2681.7 1953.93 2681.31 1951.41C2680.91 1948.88 2679.7 1946.55 2677.87 1944.76L2676.74 1943.65C2675.31 1942.25 2673.54 1941.24 2671.61 1940.7L2667.25 1939.49C2673.9 1935.14 2678.89 1928.69 2681.44 1921.17L2689.66 1918.54C2691.27 1918.02 2692.77 1917.19 2694.05 1916.09C2695.34 1914.99 2696.4 1913.64 2697.16 1912.13L2701.37 1903.8C2702.63 1901.29 2703.03 1898.44 2702.51 1895.68C2701.99 1892.92 2700.57 1890.4 2698.48 1888.53L2716.75 1882.38C2718.86 1881.66 2720.68 1880.26 2721.9 1878.39C2723.12 1876.53 2723.68 1874.3 2723.49 1872.08C2723.3 1869.85 2722.36 1867.76 2720.84 1866.13C2719.31 1864.5 2717.28 1863.43 2715.07 1863.09Z" fill="#98BDF9"/>
</g>
<path d="M2160.41 1382.54L2122.27 1406.36L2250.98 1521.67L2274.56 1474.51C2274.56 1474.51 2252.21 1407.69 2160.41 1382.54Z" fill="#A6E0E2"/>
<path d="M2259.62 1516.79C2259.62 1516.79 2223.33 1837.91 1809.05 1873.45C1394.76 1909 1365.55 1647.24 1365.55 1647.24L1550.7 1471.25C1573.84 1479.06 1597.38 1485.61 1621.23 1490.85C1648.58 1496.97 1681.3 1502.63 1714.53 1504.53C1798 1509.3 1900.7 1495.14 1900.7 1495.14L2122.27 1398.71C2122.27 1398.71 2207.35 1420.1 2245.84 1484.67C2251.87 1494.7 2256.5 1505.51 2259.62 1516.79Z" fill="#CFF6F9"/>
<path d="M2259.62 1516.79C2259.62 1516.79 2223.33 1837.91 1809.05 1873.45C1394.76 1909 1365.55 1647.24 1365.55 1647.24L1550.7 1471.25C1573.84 1479.06 1597.38 1485.61 1621.23 1490.85C1641.93 1517.7 1669.36 1554.83 1702.22 1602.76C1779.75 1715.85 1980.92 1811.99 2245.84 1484.67C2251.87 1494.7 2256.5 1505.51 2259.62 1516.79Z" fill="#BFEEEF"/>
<path d="M2179.48 1392.15L2225.35 1353.95L2296.57 1411.72L2270.07 1464.51L2179.48 1392.15Z" fill="#FBBD9D"/>
<path d="M2404.7 1029.14L2262.77 1168.95C2262.77 1168.95 2230.06 1288.38 2225.35 1353.95H2250.11L2418.41 1191.19L2439.6 1146.08C2441.22 1142.64 2441.98 1138.86 2441.81 1135.06C2441.64 1131.27 2440.56 1127.57 2438.64 1124.28L2430.2 1109.78L2436.97 1092.94C2438.17 1089.96 2438.63 1086.74 2438.31 1083.54C2438 1080.35 2436.91 1077.28 2435.16 1074.6L2427.05 1062.22L2432.26 1046.15C2433.6 1042.02 2433.27 1037.52 2431.34 1033.62C2429.42 1029.72 2426.04 1026.73 2421.94 1025.29C2418.99 1024.25 2415.82 1024.06 2412.77 1024.74C2409.72 1025.42 2406.92 1026.94 2404.7 1029.14Z" fill="#F2AF91"/>
<path d="M2409.62 1211.59L2416.32 1225.61C2417.87 1228.86 2418.53 1232.46 2418.24 1236.04C2417.95 1239.62 2416.71 1243.07 2414.66 1246.02L2386.4 1286.66L2370.06 1350.79C2367.54 1360.69 2362.81 1369.88 2356.23 1377.7C2349.64 1385.51 2341.38 1391.72 2332.05 1395.89L2296.57 1411.72L2256.89 1392.37C2256.89 1392.37 2344.24 1222.21 2409.62 1211.59Z" fill="#F2AF91"/>
<path d="M2274.56 1410.29L2326.44 1370.32L2344.52 1289.77L2419.08 1200.23C2420.52 1198.5 2421.61 1196.49 2422.26 1194.33C2422.92 1192.16 2423.13 1189.89 2422.9 1187.65C2422.66 1185.4 2421.98 1183.23 2420.88 1181.25C2419.79 1179.27 2418.31 1177.53 2416.54 1176.14C2413.85 1174.02 2410.58 1172.78 2407.17 1172.56C2403.76 1172.34 2400.36 1173.16 2397.42 1174.92L2301.28 1232.4L2265.43 1250.07C2259.65 1252.91 2254.55 1256.96 2250.47 1261.94C2246.39 1266.91 2243.41 1272.7 2241.75 1278.92L2225.35 1353.95L2274.56 1410.29Z" fill="#FBBD9D"/>
<path d="M1650.14 873.593C1650.14 873.593 1713.93 882.91 1753.51 959.238C1793.08 1035.57 1747.22 1091.15 1747.22 1091.15L1656.39 1030.28L1650.14 873.593Z" fill="#152F35"/>
<path d="M1677.16 1324.61C1674.97 1327.02 1667.28 1343.9 1667.28 1343.9C1667.28 1343.9 1634.6 1415.79 1640.43 1491.83L1497.64 1339.27L1544.82 1251.65L1677.16 1324.61Z" fill="#F9B393"/>
<path d="M1816.13 1129.59C1790.2 1103 1743.32 1038.67 1743.32 1038.67C1743.32 1038.67 1717.52 975.226 1701.49 955.139C1685.47 935.052 1630.45 994.35 1630.45 994.35L1656.08 1031.83C1582.47 1060.35 1538.18 1167.57 1538.18 1167.57L1565.43 1281.63L1615.18 1312.04C1660.55 1339.79 1716.72 1344.53 1765.51 1323.36C1775.17 1319.32 1784.24 1314.01 1792.5 1307.58C1834.06 1274.11 1796.29 1156.33 1796.29 1156.33L1816.13 1129.59Z" fill="#FBBD9D"/>
<path d="M1731.89 1069.55C1737 1079.7 1735.14 1091.08 1727.76 1094.98C1720.38 1098.87 1710.26 1093.84 1705.14 1083.68C1700.03 1073.54 1701.88 1062.15 1709.25 1058.25C1716.64 1054.34 1726.78 1059.4 1731.89 1069.55Z" fill="#263238"/>
<path d="M1704.6 1070.05C1702.38 1070.73 1700.03 1070.87 1697.74 1070.46C1695.46 1070.05 1693.31 1069.09 1691.47 1067.67C1691.47 1067.67 1694.64 1079.23 1704.67 1078.63C1714.7 1078.03 1704.6 1070.05 1704.6 1070.05Z" fill="#263238"/>
<path d="M1726.6 1022.62C1725.6 1026.28 1715.29 1028.45 1704.44 1034C1693.42 1039.23 1685.38 1046.11 1681.93 1044.65C1680.35 1043.89 1680.5 1040.67 1683.27 1036.25C1685.99 1031.87 1691.57 1026.52 1699.08 1022.81C1706.6 1019.11 1714.19 1017.96 1719.27 1018.5C1724.4 1019.02 1726.99 1020.89 1726.6 1022.62Z" fill="#263238"/>
<path d="M1549.73 1344.33C1549.73 1344.33 1588.27 1384.4 1654.63 1392.19C1657.06 1392.48 1659.29 1393.64 1660.91 1395.47C1662.54 1397.3 1663.43 1399.66 1663.43 1402.1V1409.92C1663.43 1409.92 1654.48 1456.18 1645.48 1497.69L1405.75 1383.46L1549.73 1344.33Z" fill="#1F00BD"/>
<path d="M1446.1 1360.29C1446.1 1360.29 1575.99 1414.09 1671.86 1513.65C1767.74 1613.22 1390.03 1407.11 1390.03 1407.11L1446.1 1360.29Z" fill="#D0E8F7"/>
<path d="M1594.55 1271.31C1594.55 1271.31 1609.42 1336.32 1532.07 1371.18C1444.33 1410.74 1354.83 1398.24 1320.72 1319.73C1305.27 1284.16 1301.19 1235.01 1313.8 1171.02L1521.65 1124.01L1582.29 1110.29C1582.29 1110.29 1609.86 1182.03 1594.55 1271.31Z" fill="#2A454E"/>
<path d="M1594.55 1271.31C1594.55 1271.31 1609.42 1336.32 1532.07 1371.18C1444.33 1410.74 1354.83 1398.24 1320.72 1319.73L1320.61 1319.43C1320.61 1319.43 1376.37 1379.47 1464.77 1353.66C1553.16 1327.86 1538.18 1251.65 1538.18 1251.65C1569.11 1210.82 1533.89 1144.46 1521.65 1124.01L1582.29 1110.29C1582.29 1110.29 1609.86 1182.03 1594.55 1271.31Z" fill="#213B42"/>
<path d="M1707.54 1032.82C1685.82 1084.32 1602.12 1144.28 1503.29 1174.27C1460.21 1187.35 1414.26 1194.73 1369.3 1193.23L1355.76 1203.66C1355.76 1203.66 1349.12 1180.77 1306.09 1168.6C1263.06 1156.42 1279.58 1045.57 1293.7 1023.46C1293.7 1023.46 1285.39 920.234 1391.36 862.375C1497.34 804.51 1576.52 845.558 1576.52 845.558C1590.82 842.763 1605.53 842.807 1619.81 845.688C1639.79 849.644 1663.12 860.083 1681.59 885.026C1681.59 885.026 1738.72 958.867 1707.54 1032.82Z" fill="#2A454E"/>
<path d="M1707.54 1032.82C1687.57 1080.17 1615.19 1134.68 1526.83 1166.47C1507.35 1173.48 1485.95 1178.43 1465.25 1178.73C1460.84 1178.79 1459.32 1177.43 1459.32 1177.43C1459.32 1177.43 1589.98 1161.71 1644.81 1060.14C1701.49 955.139 1619.81 845.688 1619.81 845.688C1639.79 849.644 1663.12 860.083 1681.59 885.026C1681.59 885.026 1738.72 958.867 1707.54 1032.82Z" fill="#213B42"/>
<path d="M1544.82 960.989L1542.15 969.946L1540.82 974.427C1540.37 975.921 1539.95 977.422 1539.4 978.884L1536.31 987.711L1534.76 992.127C1534.22 993.589 1533.62 995.027 1533.05 996.478L1529.57 1005.17L1528.7 1007.34L1527.73 1009.48L1525.81 1013.74C1524.5 1016.58 1523.29 1019.46 1521.9 1022.26L1517.67 1030.62C1516.94 1032 1516.27 1033.41 1515.51 1034.78L1513.2 1038.86C1511.65 1041.57 1510.14 1044.31 1508.56 1047.01L1503.6 1054.96C1502.76 1056.28 1501.97 1057.63 1501.09 1058.93L1498.44 1062.8C1491.44 1073.18 1483.81 1083.12 1475.57 1092.56C1467.37 1102.03 1458.55 1110.96 1449.16 1119.26C1430.45 1136.01 1409.64 1150.27 1387.27 1161.68C1376.06 1167.47 1364.36 1172.22 1352.3 1175.9L1351.12 1172.08C1355.87 1170.19 1360.49 1167.99 1364.95 1165.49C1369.48 1163.02 1373.87 1160.29 1378.17 1157.43C1386.77 1151.68 1394.95 1145.31 1402.63 1138.38C1410.33 1131.45 1417.55 1123.99 1424.23 1116.08C1430.94 1108.17 1437.19 1099.87 1442.94 1091.24C1448.62 1082.54 1453.84 1073.55 1458.57 1064.3C1463.18 1054.99 1467.5 1045.51 1471.19 1035.78C1478.67 1016.31 1484.47 996.236 1488.54 975.777C1485.18 996.425 1479.94 1016.72 1472.91 1036.42C1469.38 1046.29 1465.32 1055.96 1460.74 1065.38C1456.11 1074.79 1450.99 1083.96 1445.4 1092.83C1439.72 1101.67 1433.53 1110.17 1426.86 1118.29C1420.14 1126.38 1412.88 1134.01 1405.12 1141.12C1397.36 1148.25 1389.09 1154.79 1380.35 1160.68C1375.97 1163.61 1371.49 1166.41 1366.86 1168.95C1362.22 1171.57 1357.41 1173.87 1352.47 1175.85L1351.28 1172.03C1357.17 1170.28 1362.95 1168.2 1368.61 1165.82C1374.31 1163.43 1379.92 1160.84 1385.45 1158.09C1396.49 1152.49 1407.16 1146.19 1417.38 1139.23C1427.62 1132.26 1437.41 1124.67 1446.73 1116.51C1451.42 1112.47 1455.87 1108.16 1460.32 1103.86L1466.81 1097.21C1468.97 1094.98 1470.99 1092.64 1473.09 1090.37C1481.4 1081.15 1489.12 1071.43 1496.21 1061.26L1498.9 1057.46C1499.8 1056.2 1500.6 1054.87 1501.46 1053.58L1506.51 1045.76C1508.12 1043.11 1509.66 1040.41 1511.25 1037.74L1513.6 1033.73C1514.38 1032.39 1515.07 1030.99 1515.81 1029.63L1520.21 1021.41C1521.66 1018.67 1522.94 1015.83 1524.32 1013.05L1526.34 1008.85L1527.36 1006.75L1528.29 1004.61L1531.98 996.047C1532.59 994.616 1533.23 993.198 1533.81 991.755L1535.47 987.394L1538.78 978.669C1539.36 977.223 1539.85 975.746 1540.34 974.27L1541.84 969.845L1544.82 960.989Z" fill="#3B6672"/>
<path d="M1369.52 1178.05L1369.51 1205.56C1369.51 1208.17 1368.55 1210.69 1366.81 1212.63C1365.08 1214.58 1362.68 1215.82 1360.09 1216.11L1339.14 1218.48C1336.9 1218.74 1334.64 1218.27 1332.69 1217.14C1331.03 1216.2 1329.65 1214.83 1328.71 1213.17C1327.77 1211.51 1327.29 1209.63 1327.33 1207.72L1327.85 1179.64C1327.9 1177.02 1328.92 1174.52 1330.71 1172.6C1332.5 1170.69 1334.93 1169.5 1337.54 1169.27L1350.37 1168.13L1357.97 1167.46C1359.44 1167.34 1360.92 1167.51 1362.31 1167.99C1363.71 1168.46 1364.99 1169.22 1366.08 1170.21C1367.16 1171.21 1368.03 1172.42 1368.62 1173.77C1369.22 1175.12 1369.52 1176.58 1369.52 1178.05Z" fill="url(#paint27_linear_1_2)"/>
<path d="M1356.01 1177.52L1356.01 1205.03C1356.01 1207.63 1355.05 1210.15 1353.31 1212.1C1351.57 1214.04 1349.17 1215.28 1346.58 1215.57L1332.69 1217.14C1331.03 1216.2 1329.65 1214.83 1328.71 1213.17C1327.77 1211.51 1327.29 1209.63 1327.33 1207.72L1327.85 1179.64C1327.9 1177.02 1328.92 1174.52 1330.71 1172.6C1332.5 1170.69 1334.93 1169.5 1337.54 1169.27L1350.37 1168.13C1352.08 1169.03 1353.51 1170.38 1354.5 1172.03C1355.5 1173.69 1356.02 1175.58 1356.01 1177.52Z" fill="url(#paint28_linear_1_2)"/>
<path d="M1744.36 1185.18C1753.84 1152.69 1736.72 1119.12 1706.12 1110.2C1675.53 1101.27 1643.04 1120.37 1633.57 1152.86C1624.09 1185.35 1641.21 1218.92 1671.81 1227.84C1702.4 1236.76 1734.88 1217.66 1744.36 1185.18Z" fill="#FC9E8B"/>
<path d="M1792.12 1205.79C1792.12 1205.79 1770.68 1218.98 1745.86 1221.99C1745.86 1221.99 1758.53 1251.12 1782.89 1247.81C1797.11 1245.87 1792.12 1205.79 1792.12 1205.79Z" fill="#F48978"/>
<path d="M1405.75 1157.08C1405.73 1176.24 1399.59 1194.89 1388.22 1210.31C1376.85 1225.73 1360.84 1237.1 1342.54 1242.78C1324.25 1248.46 1304.61 1248.13 1286.51 1241.86C1268.41 1235.58 1252.79 1223.68 1241.94 1207.9C1231.08 1192.11 1225.55 1173.27 1226.17 1154.12C1226.78 1134.97 1233.5 1116.52 1245.35 1101.47C1257.19 1086.41 1273.54 1075.53 1292 1070.43C1310.47 1065.32 1330.08 1066.26 1347.98 1073.09C1364.98 1079.6 1379.6 1091.11 1389.92 1106.11C1400.24 1121.11 1405.76 1138.88 1405.75 1157.08Z" fill="#213B42"/>
<path d="M1356.01 1110.29C1356 1124.87 1352.45 1139.22 1345.67 1152.13C1338.88 1165.03 1329.06 1176.08 1317.05 1184.35C1305.04 1192.61 1291.21 1197.83 1276.73 1199.56C1262.26 1201.29 1247.58 1199.47 1233.96 1194.27C1226.61 1178.03 1224.24 1159.97 1227.17 1142.38C1230.09 1124.8 1238.17 1108.48 1250.39 1095.5C1262.61 1082.51 1278.41 1073.45 1295.78 1069.46C1313.16 1065.47 1331.32 1066.74 1347.98 1073.09C1353.29 1084.78 1356.03 1097.46 1356.01 1110.29Z" fill="#2A454E"/>
<path d="M2396.3 1948.86L2410.33 1940.61L2482.32 1849.58C2487.94 1843.23 2495.07 1838.39 2503.05 1835.5C2511.02 1832.62 2519.6 1831.78 2527.98 1833.06L2699.82 1859.39C2702.39 1859.79 2704.71 1861.17 2706.27 1863.26C2707.84 1865.34 2708.52 1867.95 2708.19 1870.54C2707.94 1872.38 2707.19 1874.13 2706 1875.56C2704.82 1877 2703.26 1878.08 2701.49 1878.68L2683.22 1884.83C2685.32 1886.71 2686.73 1889.22 2687.26 1891.98C2687.78 1894.74 2687.38 1897.59 2686.11 1900.1L2681.91 1908.43C2681.14 1909.94 2680.09 1911.29 2678.8 1912.39C2677.51 1913.49 2676.01 1914.32 2674.4 1914.84L2666.19 1917.47C2664.11 1923.61 2660.39 1929.06 2655.44 1933.24C2650.48 1937.42 2644.48 1940.17 2638.08 1941.18L2501.98 1962.74L2396.14 2033.25L2396.3 1948.86Z" fill="#FBBD9D"/>
<path d="M2297.68 2036.45L2405.39 2039.03L2410.33 1940.61L2272.2 1916.12L2297.68 2036.45Z" fill="#FBBD9D"/>
<path d="M2400.74 2036.13L2402.89 2037.47C2404.53 2038.49 2406.4 2039.1 2408.32 2039.24L2480.86 2044.49C2482.54 2044.61 2484.23 2044.37 2485.81 2043.8C2487.38 2043.22 2488.82 2042.31 2490.03 2041.14L2545.68 1986.74L2579.22 1952.47C2580.59 1951.06 2582.3 1950.02 2584.18 1949.43C2586.06 1948.85 2588.05 1948.74 2589.99 1949.12L2652.03 1961.23C2654.68 1961.74 2657.42 1961.34 2659.81 1960.1C2661.47 1959.23 2662.91 1957.98 2664 1956.45C2665.08 1954.92 2665.79 1953.15 2666.07 1951.3C2666.34 1949.44 2666.17 1947.54 2665.57 1945.76C2664.97 1943.99 2663.96 1942.37 2662.62 1941.06L2661.48 1939.95C2660.05 1938.55 2658.29 1937.54 2656.36 1937L2552.09 1908.02C2550.34 1907.53 2548.49 1907.45 2546.7 1907.79C2544.91 1908.13 2543.22 1908.87 2541.77 1909.97L2399.9 2016.54C2398.35 2017.7 2397.12 2019.22 2396.29 2020.96C2395.47 2022.71 2395.08 2024.63 2395.16 2026.56C2395.24 2028.48 2395.79 2030.36 2396.77 2032.03C2397.74 2033.7 2399.1 2035.1 2400.74 2036.13Z" fill="#FBBD9D"/>
<path d="M2364.8 1922.36L2390.14 1925.2C2390.14 1925.2 2390.14 1983.3 2371.71 2020.74C2358.46 2047.65 2344.08 2081.99 2344.08 2081.99L2304.6 2076.58L2364.8 1922.36Z" fill="#CFF6F9"/>
<path d="M2304.91 2094.88L1753.53 1988.54V2274.96L1087.36 2321.12L966.389 2329.5C966.389 2329.5 975.444 1727.24 1379.27 1381.15L1379.49 1380.96C1379.49 1380.96 1543.34 1414.13 1663.42 1504.79C1783.53 1595.45 2049.28 1795.1 2049.28 1795.1L2376.21 1911.7C2376.21 1911.7 2392.06 2002.18 2304.91 2094.88Z" fill="#EEF8FF"/>
<path d="M1753.53 1988.53C1753.53 1988.53 1559.32 1952.25 1472.07 1884.38C1472.07 1884.38 1626.82 2001.01 1753.53 2030.94" fill="#CFF6F9"/>
<path d="M1087.36 2321.12L966.389 2329.5C966.389 2329.5 975.444 1727.24 1379.27 1381.15C1369.06 1390.25 1007.26 1717.29 1087.36 2321.12Z" fill="#CFF6F9"/>
<path d="M2376.21 1911.7L2036.4 1827.89L1663.43 1504.79C1783.53 1595.45 2049.28 1795.1 2049.28 1795.1L2376.21 1911.7Z" fill="#CFF6F9"/>
<path d="M2985.93 2546.67H654.435C654.374 2519.5 658.081 2492.46 665.449 2466.31C676.971 2426.54 700.451 2383.9 748.233 2369.02C846.163 2338.52 2048.49 1920.95 2646.97 2129.74C2646.97 2129.74 2985.93 2292.02 2985.93 2546.67Z" fill="#06378E"/>
<mask id="mask8_1_2" style="mask-type:luminance" maskUnits="userSpaceOnUse" x="654" y="2129" width="2332" height="418">
<path style="mix-blend-mode:multiply" d="M2985.93 2546.67H654.435C654.374 2519.5 658.081 2492.46 665.449 2466.31C687.254 2467.91 714.46 2463.85 748.233 2452.26C987.936 2370.03 1964.36 2397.44 2320.71 2312.07C2677.06 2226.71 2646.97 2129.74 2646.97 2129.74C2646.97 2129.74 2985.93 2292.02 2985.93 2546.67Z" fill="url(#paint29_linear_1_2)"/>
</mask>
<g mask="url(#mask8_1_2)">
<path style="mix-blend-mode:multiply" opacity="0.55" d="M2985.93 2546.67H654.435C654.374 2519.5 658.081 2492.46 665.449 2466.31C687.254 2467.91 714.46 2463.85 748.233 2452.26C987.936 2370.03 1964.36 2397.44 2320.71 2312.07C2677.06 2226.71 2646.97 2129.74 2646.97 2129.74C2646.97 2129.74 2985.93 2292.02 2985.93 2546.67Z" fill="url(#paint30_linear_1_2)"/>
</g>
<g style="mix-blend-mode:multiply" opacity="0.62">
<path d="M1178.01 1036.14L1140.9 1005.05C1139.05 1003.5 1137.55 1001.56 1136.53 999.369C1135.51 997.178 1134.98 994.79 1134.98 992.371V816.979C1134.98 813.363 1134.27 809.783 1132.88 806.443C1131.5 803.102 1129.47 800.067 1126.91 797.51C1124.36 794.953 1121.32 792.925 1117.98 791.541C1114.64 790.157 1111.06 789.445 1107.45 789.445H679.554C672.252 789.445 665.249 792.346 660.085 797.51C654.921 802.673 652.02 809.677 652.02 816.979V1014.03C652.02 1021.33 654.921 1028.34 660.085 1033.5C665.249 1038.67 672.252 1041.57 679.554 1041.57H1176.04C1176.67 1041.57 1177.28 1041.37 1177.8 1041.01C1178.32 1040.65 1178.71 1040.14 1178.92 1039.55C1179.14 1038.95 1179.17 1038.31 1179 1037.7C1178.84 1037.09 1178.49 1036.55 1178.01 1036.14Z" fill="#98BDF9"/>
</g>
<path d="M1158.57 1024.91H662.084C654.782 1024.91 647.778 1022.01 642.615 1016.85C637.451 1011.68 634.55 1004.68 634.55 997.378V800.325C634.55 793.022 637.451 786.019 642.615 780.855C647.778 775.692 654.782 772.791 662.084 772.791H1089.98C1093.59 772.791 1097.17 773.503 1100.51 774.887C1103.85 776.27 1106.89 778.298 1109.44 780.855C1112 783.412 1114.03 786.447 1115.41 789.788C1116.8 793.128 1117.51 796.709 1117.51 800.325V975.717C1117.51 978.135 1118.04 980.524 1119.06 982.715C1120.08 984.906 1121.58 986.846 1123.43 988.399L1160.54 1019.49C1161.02 1019.89 1161.37 1020.44 1161.53 1021.05C1161.7 1021.65 1161.67 1022.3 1161.45 1022.89C1161.24 1023.48 1160.85 1023.99 1160.33 1024.36C1159.81 1024.72 1159.2 1024.91 1158.57 1024.91Z" fill="#FABF44"/>
<path d="M984.969 906.424C988.523 897.846 984.449 888.011 975.871 884.458C967.293 880.905 957.458 884.978 953.905 893.557C950.352 902.135 954.425 911.969 963.003 915.523C971.582 919.076 981.416 915.002 984.969 906.424Z" fill="white"/>
<path d="M880.399 916.353C889.436 914.22 895.032 905.165 892.899 896.128C890.765 887.092 881.71 881.495 872.674 883.629C863.637 885.762 858.041 894.817 860.174 903.854C862.308 912.89 871.363 918.486 880.399 916.353Z" fill="white"/>
<path d="M794.169 911.878C800.735 905.312 800.735 894.668 794.17 888.102C787.604 881.537 776.959 881.537 770.394 888.102C763.828 894.668 763.828 905.312 770.394 911.878C776.959 918.443 787.604 918.443 794.169 911.878Z" fill="white"/>
<g style="mix-blend-mode:multiply" opacity="0.37">
<path d="M3664.56 904.62H3327.76C3321.75 904.619 3315.79 905.802 3310.24 908.101C3304.69 910.401 3299.64 913.771 3295.39 918.021C3291.14 922.271 3287.77 927.316 3285.47 932.869C3283.17 938.422 3281.99 944.373 3281.99 950.384V1115.34C3281.99 1121.35 3283.17 1127.3 3285.47 1132.85C3287.77 1138.41 3291.14 1143.45 3295.39 1147.7C3299.64 1151.95 3304.69 1155.32 3310.24 1157.62C3315.79 1159.92 3321.75 1161.1 3327.76 1161.1H3390.16L3505.93 1245.66L3512.35 1161.1H3664.56C3670.57 1161.1 3676.52 1159.92 3682.07 1157.62C3687.62 1155.32 3692.67 1151.95 3696.92 1147.7C3701.17 1143.45 3704.54 1138.41 3706.84 1132.85C3709.14 1127.3 3710.32 1121.35 3710.32 1115.34V950.384C3710.32 944.374 3709.14 938.422 3706.84 932.869C3704.54 927.317 3701.17 922.271 3696.92 918.021C3692.67 913.772 3687.62 910.401 3682.07 908.101C3676.52 905.802 3670.57 904.619 3664.56 904.62Z" fill="#98BDF9"/>
</g>
<path d="M3704.48 942.425V1107.38C3704.48 1113.39 3703.3 1119.34 3701 1124.89C3698.7 1130.45 3695.33 1135.49 3691.08 1139.74C3686.83 1143.99 3681.79 1147.36 3676.23 1149.66C3670.68 1151.96 3664.73 1153.14 3658.72 1153.14H3506.52L3500.09 1237.7L3397.21 1153.14H3328.36C3322.35 1153.14 3316.4 1151.96 3310.85 1149.66C3305.29 1147.36 3300.25 1143.99 3296 1139.74C3291.75 1135.49 3288.38 1130.45 3286.08 1124.89C3283.78 1119.34 3282.6 1113.39 3282.6 1107.38V942.425C3282.6 936.415 3283.78 930.463 3286.08 924.911C3288.38 919.358 3291.75 914.312 3296 910.063C3300.25 905.813 3305.29 902.442 3310.85 900.143C3316.4 897.843 3322.35 896.66 3328.36 896.661H3658.72C3664.73 896.66 3670.68 897.843 3676.23 900.143C3681.79 902.442 3686.83 905.813 3691.08 910.063C3695.33 914.312 3698.7 919.358 3701 924.911C3703.3 930.463 3704.48 936.415 3704.48 942.425Z" fill="#123C84"/>
<path d="M3685.16 942.425V1107.38C3685.16 1113.39 3683.98 1119.34 3681.68 1124.89C3679.38 1130.45 3676.01 1135.49 3671.76 1139.74C3667.51 1143.99 3662.46 1147.36 3656.91 1149.66C3651.36 1151.96 3645.41 1153.14 3639.4 1153.14H3487.19L3500.09 1237.7L3384.32 1153.14H3321.92C3315.91 1153.14 3309.96 1151.96 3304.4 1149.66C3298.85 1147.36 3293.81 1143.99 3289.56 1139.74C3285.31 1135.49 3281.94 1130.45 3279.64 1124.89C3277.34 1119.34 3276.15 1113.39 3276.16 1107.38V942.425C3276.15 936.415 3277.34 930.463 3279.64 924.911C3281.94 919.358 3285.31 914.312 3289.56 910.063C3293.81 905.813 3298.85 902.442 3304.4 900.143C3309.96 897.843 3315.91 896.66 3321.92 896.661H3639.4C3645.41 896.66 3651.36 897.843 3656.91 900.143C3662.46 902.442 3667.51 905.813 3671.76 910.063C3676.01 914.312 3679.38 919.358 3681.68 924.911C3683.98 930.463 3685.16 936.415 3685.16 942.425Z" fill="#005CA9"/>
<path d="M3593.99 1032.61C3597.6 1023.88 3593.46 1013.87 3584.73 1010.26C3576 1006.64 3566 1010.79 3562.39 1019.52C3558.77 1028.24 3562.91 1038.25 3571.64 1041.86C3580.37 1045.48 3590.37 1041.33 3593.99 1032.61Z" fill="white"/>
<path d="M3499.48 1032.61C3503.09 1023.88 3498.95 1013.87 3490.22 1010.26C3481.5 1006.64 3471.49 1010.79 3467.88 1019.52C3464.26 1028.24 3468.41 1038.25 3477.13 1041.86C3485.86 1045.48 3495.87 1041.33 3499.48 1032.61Z" fill="white"/>
<path d="M3403.6 1032.6C3407.21 1023.88 3403.07 1013.87 3394.34 1010.26C3385.61 1006.64 3375.61 1010.79 3371.99 1019.51C3368.38 1028.24 3372.52 1038.25 3381.25 1041.86C3389.98 1045.48 3399.98 1041.33 3403.6 1032.6Z" fill="white"/>
<path d="M2820.02 2424.66L2788.84 2557.75H2543.88V2451.38L2570.61 2448.79L2820.02 2424.66Z" fill="#FFBA94"/>
<path d="M2623.31 2491.21L2618.97 2506.45L2604.72 2556.49L2543.88 2556.95L2096.02 2560.25C2087.93 2560.25 2080.04 2557.65 2073.53 2552.84C2067.02 2548.03 2062.22 2541.26 2059.83 2533.52L2054.48 2516.15L2235.99 2415.43C2243.41 2411.31 2252 2409.81 2260.38 2411.16L2570.61 2448.79L2623.31 2491.21Z" fill="#FFBA94"/>
<path d="M2543.88 2557.75V2556.95L2096.02 2560.25C2087.93 2560.25 2080.04 2557.65 2073.53 2552.84C2067.02 2548.03 2062.22 2541.26 2059.83 2533.52C2098.45 2580.79 2203.19 2521.86 2278.82 2514C2354.45 2506.15 2514.54 2525.57 2514.54 2525.57L2543.88 2520.19L2618.97 2506.45L2756.24 2481.32L2778.84 2557.75H2543.88Z" fill="#F7AA84"/>
<path d="M3142.06 2350.95C3152.52 2349.34 3159.66 2341.45 3167.98 2334.9C3298.83 2232.01 3389.11 1984.28 3481.24 1963.67C3557.27 1946.65 3684.1 1995.43 3684.1 1995.43L3283.8 2541.79C3280.18 2546.73 3275.44 2550.76 3269.97 2553.53C3264.5 2556.3 3258.45 2557.75 3252.32 2557.75H2762.12C2762.12 2557.75 2771.03 2524.34 2739.85 2412.99L3142.06 2350.95Z" fill="#FCB500"/>
<path opacity="0.7" d="M3266.6 2226.29C3266.6 2226.29 3451.42 1963.88 3511.71 1950.3C3572.01 1936.73 3621.75 1955.42 3621.75 1955.42C3621.75 1955.42 3557.94 1936.73 3509.7 1972.91C3461.47 2009.09 3266.6 2226.29 3266.6 2226.29Z" fill="#C2931A"/>
<defs>
<linearGradient id="paint0_linear_1_2" x1="2254.11" y1="2198.55" x2="3147.63" y2="2198.55" gradientUnits="userSpaceOnUse">
<stop stop-color="#B0DEFE"/>
<stop offset="1" stop-color="#008EE2"/>
</linearGradient>
<linearGradient id="paint1_linear_1_2" x1="2163.93" y1="1958.85" x2="2865.14" y2="1958.85" gradientUnits="userSpaceOnUse">
<stop stop-color="#B0DEFE"/>
<stop offset="1" stop-color="#008EE2"/>
</linearGradient>
<linearGradient id="paint2_linear_1_2" x1="2163.93" y1="2204.78" x2="2865.14" y2="2204.78" gradientUnits="userSpaceOnUse">
<stop stop-color="#B0DEFE"/>
<stop offset="1" stop-color="#008EE2"/>
</linearGradient>
<linearGradient id="paint3_linear_1_2" x1="2163.93" y1="2449.3" x2="2865.14" y2="2449.3" gradientUnits="userSpaceOnUse">
<stop stop-color="#B0DEFE"/>
<stop offset="1" stop-color="#008EE2"/>
</linearGradient>
<linearGradient id="paint4_linear_1_2" x1="2163.93" y1="1958.85" x2="2807.92" y2="1958.85" gradientUnits="userSpaceOnUse">
<stop stop-color="#77D3EF"/>
<stop offset="1" stop-color="#559CFF"/>
</linearGradient>
<linearGradient id="paint5_linear_1_2" x1="0.00016456" y1="2204.78" x2="2807.92" y2="2204.78" gradientUnits="userSpaceOnUse">
<stop stop-color="#77D3EF"/>
<stop offset="1" stop-color="#559CFF"/>
</linearGradient>
<linearGradient id="paint6_linear_1_2" x1="0.00016456" y1="2449.3" x2="2807.92" y2="2449.3" gradientUnits="userSpaceOnUse">
<stop stop-color="#77D3EF"/>
<stop offset="1" stop-color="#559CFF"/>
</linearGradient>
<linearGradient id="paint7_linear_1_2" x1="4000.98" y1="2278.51" x2="4055.57" y2="2577.7" gradientUnits="userSpaceOnUse">
<stop stop-color="#00B488"/>
<stop offset="0.92" stop-color="#007BC0"/>
</linearGradient>
<linearGradient id="paint8_linear_1_2" x1="3839.87" y1="1796.78" x2="3914.53" y2="2561.26" gradientUnits="userSpaceOnUse">
<stop stop-color="#00B488"/>
<stop offset="0.92" stop-color="#007BC0"/>
</linearGradient>
<linearGradient id="paint9_linear_1_2" x1="2397.42" y1="793.337" x2="3175.13" y2="793.337" gradientUnits="userSpaceOnUse">
<stop stop-color="#89EFEF"/>
<stop offset="1" stop-color="#55CEFF"/>
</linearGradient>
<linearGradient id="paint10_linear_1_2" x1="2889.03" y1="973.169" x2="2889.03" y2="1680.22" gradientUnits="userSpaceOnUse">
<stop stop-color="#649CE5"/>
<stop offset="1" stop-color="#4550DB"/>
</linearGradient>
<linearGradient id="paint11_linear_1_2" x1="1348.37" y1="1588.22" x2="3527.68" y2="1231.75" gradientUnits="userSpaceOnUse">
<stop offset="0.37" stop-color="#999999"/>
<stop offset="0.496" stop-color="#A8A8A8"/>
<stop offset="0.738" stop-color="#CECECE"/>
<stop offset="1" stop-color="white"/>
</linearGradient>
<linearGradient id="paint12_linear_1_2" x1="1348.37" y1="1588.22" x2="3527.68" y2="1231.75" gradientUnits="userSpaceOnUse">
<stop offset="0.37" stop-color="#172652"/>
<stop offset="0.529" stop-color="#132F61"/>
<stop offset="0.833" stop-color="#074887"/>
<stop offset="1" stop-color="#00579F"/>
</linearGradient>
<linearGradient id="paint13_linear_1_2" x1="3470.29" y1="1197.54" x2="3534.91" y2="1401.93" gradientUnits="userSpaceOnUse">
<stop stop-color="#808080"/>
<stop offset="1" stop-color="white"/>
</linearGradient>
<linearGradient id="paint14_linear_1_2" x1="3470.29" y1="1197.54" x2="3534.91" y2="1401.93" gradientUnits="userSpaceOnUse">
<stop stop-color="white"/>
<stop offset="1"/>
</linearGradient>
<linearGradient id="paint15_linear_1_2" x1="3543.87" y1="1531.18" x2="4142.85" y2="1531.18" gradientUnits="userSpaceOnUse">
<stop stop-color="#808080"/>
<stop offset="1" stop-color="white"/>
</linearGradient>
<linearGradient id="paint16_linear_1_2" x1="3543.87" y1="1531.18" x2="4142.85" y2="1531.18" gradientUnits="userSpaceOnUse">
<stop stop-color="white"/>
<stop offset="1"/>
</linearGradient>
<linearGradient id="paint17_linear_1_2" x1="3606.99" y1="1353.63" x2="4041.42" y2="1353.63" gradientUnits="userSpaceOnUse">
<stop stop-color="#808080"/>
<stop offset="1" stop-color="white"/>
</linearGradient>
<linearGradient id="paint18_linear_1_2" x1="3606.99" y1="1353.63" x2="4041.42" y2="1353.63" gradientUnits="userSpaceOnUse">
<stop stop-color="white"/>
<stop offset="1"/>
</linearGradient>
<linearGradient id="paint19_linear_1_2" x1="4084.72" y1="1428.02" x2="4087.28" y2="1428.02" gradientUnits="userSpaceOnUse">
<stop stop-color="#808080"/>
<stop offset="1" stop-color="white"/>
</linearGradient>
<linearGradient id="paint20_linear_1_2" x1="4084.72" y1="1428.02" x2="4087.28" y2="1428.02" gradientUnits="userSpaceOnUse">
<stop stop-color="white"/>
<stop offset="1"/>
</linearGradient>
<linearGradient id="paint21_linear_1_2" x1="2946.4" y1="2257.73" x2="2765.5" y2="2135.12" gradientUnits="userSpaceOnUse">
<stop offset="0.37" stop-color="#999999"/>
<stop offset="0.496" stop-color="#A8A8A8"/>
<stop offset="0.738" stop-color="#CECECE"/>
<stop offset="1" stop-color="white"/>
</linearGradient>
<linearGradient id="paint22_linear_1_2" x1="2946.4" y1="2257.73" x2="2765.5" y2="2135.12" gradientUnits="userSpaceOnUse">
<stop offset="0.37" stop-color="#172652"/>
<stop offset="0.529" stop-color="#132F61"/>
<stop offset="0.833" stop-color="#074887"/>
<stop offset="1" stop-color="#00579F"/>
</linearGradient>
<radialGradient id="paint23_radial_1_2" cx="0" cy="0" r="1" gradientUnits="userSpaceOnUse" gradientTransform="translate(918.367 1559.62) scale(245.009)">
<stop offset="0.158" stop-color="#999999"/>
<stop offset="0.327" stop-color="#A8A8A8"/>
<stop offset="0.65" stop-color="#CECECE"/>
<stop offset="1" stop-color="white"/>
</radialGradient>
<radialGradient id="paint24_radial_1_2" cx="0" cy="0" r="1" gradientUnits="userSpaceOnUse" gradientTransform="translate(918.367 1559.62) scale(245.009)">
<stop offset="0.158" stop-color="#172652"/>
<stop offset="0.371" stop-color="#132F61"/>
<stop offset="0.777" stop-color="#074887"/>
<stop offset="1" stop-color="#00579F"/>
</radialGradient>
<radialGradient id="paint25_radial_1_2" cx="0" cy="0" r="1" gradientUnits="userSpaceOnUse" gradientTransform="translate(918.367 1559.62) scale(197.493)">
<stop offset="0.158" stop-color="#999999"/>
<stop offset="0.327" stop-color="#A8A8A8"/>
<stop offset="0.65" stop-color="#CECECE"/>
<stop offset="1" stop-color="white"/>
</radialGradient>
<radialGradient id="paint26_radial_1_2" cx="0" cy="0" r="1" gradientUnits="userSpaceOnUse" gradientTransform="translate(918.367 1559.62) scale(197.493)">
<stop offset="0.158" stop-color="#172652"/>
<stop offset="0.371" stop-color="#132F61"/>
<stop offset="0.777" stop-color="#074887"/>
<stop offset="1" stop-color="#00579F"/>
</radialGradient>
<linearGradient id="paint27_linear_1_2" x1="1325.25" y1="1196.86" x2="1371.6" y2="1188.72" gradientUnits="userSpaceOnUse">
<stop stop-color="#51D7ED"/>
<stop offset="1" stop-color="#399EED"/>
</linearGradient>
<linearGradient id="paint28_linear_1_2" x1="1325.01" y1="1195.45" x2="1358.34" y2="1189.59" gradientUnits="userSpaceOnUse">
<stop stop-color="#59CBED"/>
<stop offset="1" stop-color="#398FED"/>
</linearGradient>
<linearGradient id="paint29_linear_1_2" x1="654.409" y1="2338.2" x2="2985.93" y2="2338.2" gradientUnits="userSpaceOnUse">
<stop offset="0.17" stop-color="#999999"/>
<stop offset="1" stop-color="white"/>
</linearGradient>
<linearGradient id="paint30_linear_1_2" x1="654.409" y1="2338.2" x2="2985.93" y2="2338.2" gradientUnits="userSpaceOnUse">
<stop offset="0.17" stop-color="#29ABE2"/>
<stop offset="1" stop-color="#4F80FF"/>
</linearGradient>
</defs>
</svg>
